%TF.GenerationSoftware,KiCad,Pcbnew,7.0.8*%
%TF.CreationDate,2023-10-17T14:13:34+02:00*%
%TF.ProjectId,pour_fillet,706f7572-5f66-4696-9c6c-65742e6b6963,rev?*%
%TF.SameCoordinates,Original*%
%TF.FileFunction,Drillmap*%
%TF.FilePolarity,Positive*%
%FSLAX45Y45*%
G04 Gerber Fmt 4.5, Leading zero omitted, Abs format (unit mm)*
G04 Created by KiCad (PCBNEW 7.0.8) date 2023-10-17 14:13:34*
%MOMM*%
%LPD*%
G01*
G04 APERTURE LIST*
%ADD10C,0.100000*%
%ADD11C,0.200000*%
%ADD12C,0.320000*%
G04 APERTURE END LIST*
D10*
X7750000Y-4750000D02*
X15750000Y-4750000D01*
X15750000Y-13750000D02*
X7750000Y-13750000D01*
X7250000Y-13250000D02*
G75*
G03*
X7750000Y-13750000I500000J0D01*
G01*
X16250000Y-5250000D02*
X16250000Y-13250000D01*
X7750000Y-4750000D02*
G75*
G03*
X7250000Y-5250000I0J-500000D01*
G01*
X7250000Y-13250000D02*
X7250000Y-5250000D01*
X15750000Y-13750000D02*
G75*
G03*
X16250000Y-13250000I0J500000D01*
G01*
X16250000Y-5250000D02*
G75*
G03*
X15750000Y-4750000I-500000J0D01*
G01*
D11*
D12*
X7590000Y-5090000D02*
X7910000Y-5410000D01*
X7910000Y-5090000D02*
X7590000Y-5410000D01*
D11*
X7505777Y-14066484D02*
X7505777Y-13866484D01*
X7505777Y-13866484D02*
X7553396Y-13866484D01*
X7553396Y-13866484D02*
X7581967Y-13876008D01*
X7581967Y-13876008D02*
X7601015Y-13895055D01*
X7601015Y-13895055D02*
X7610539Y-13914103D01*
X7610539Y-13914103D02*
X7620062Y-13952198D01*
X7620062Y-13952198D02*
X7620062Y-13980769D01*
X7620062Y-13980769D02*
X7610539Y-14018865D01*
X7610539Y-14018865D02*
X7601015Y-14037912D01*
X7601015Y-14037912D02*
X7581967Y-14056960D01*
X7581967Y-14056960D02*
X7553396Y-14066484D01*
X7553396Y-14066484D02*
X7505777Y-14066484D01*
X7705777Y-14066484D02*
X7705777Y-13933150D01*
X7705777Y-13971246D02*
X7715301Y-13952198D01*
X7715301Y-13952198D02*
X7724824Y-13942674D01*
X7724824Y-13942674D02*
X7743872Y-13933150D01*
X7743872Y-13933150D02*
X7762920Y-13933150D01*
X7829586Y-14066484D02*
X7829586Y-13933150D01*
X7829586Y-13866484D02*
X7820062Y-13876008D01*
X7820062Y-13876008D02*
X7829586Y-13885531D01*
X7829586Y-13885531D02*
X7839110Y-13876008D01*
X7839110Y-13876008D02*
X7829586Y-13866484D01*
X7829586Y-13866484D02*
X7829586Y-13885531D01*
X7953396Y-14066484D02*
X7934348Y-14056960D01*
X7934348Y-14056960D02*
X7924824Y-14037912D01*
X7924824Y-14037912D02*
X7924824Y-13866484D01*
X8058158Y-14066484D02*
X8039110Y-14056960D01*
X8039110Y-14056960D02*
X8029586Y-14037912D01*
X8029586Y-14037912D02*
X8029586Y-13866484D01*
X8286729Y-14066484D02*
X8286729Y-13866484D01*
X8286729Y-13866484D02*
X8353396Y-14009341D01*
X8353396Y-14009341D02*
X8420063Y-13866484D01*
X8420063Y-13866484D02*
X8420063Y-14066484D01*
X8601015Y-14066484D02*
X8601015Y-13961722D01*
X8601015Y-13961722D02*
X8591491Y-13942674D01*
X8591491Y-13942674D02*
X8572444Y-13933150D01*
X8572444Y-13933150D02*
X8534348Y-13933150D01*
X8534348Y-13933150D02*
X8515301Y-13942674D01*
X8601015Y-14056960D02*
X8581967Y-14066484D01*
X8581967Y-14066484D02*
X8534348Y-14066484D01*
X8534348Y-14066484D02*
X8515301Y-14056960D01*
X8515301Y-14056960D02*
X8505777Y-14037912D01*
X8505777Y-14037912D02*
X8505777Y-14018865D01*
X8505777Y-14018865D02*
X8515301Y-13999817D01*
X8515301Y-13999817D02*
X8534348Y-13990293D01*
X8534348Y-13990293D02*
X8581967Y-13990293D01*
X8581967Y-13990293D02*
X8601015Y-13980769D01*
X8696253Y-13933150D02*
X8696253Y-14133150D01*
X8696253Y-13942674D02*
X8715301Y-13933150D01*
X8715301Y-13933150D02*
X8753396Y-13933150D01*
X8753396Y-13933150D02*
X8772444Y-13942674D01*
X8772444Y-13942674D02*
X8781967Y-13952198D01*
X8781967Y-13952198D02*
X8791491Y-13971246D01*
X8791491Y-13971246D02*
X8791491Y-14028388D01*
X8791491Y-14028388D02*
X8781967Y-14047436D01*
X8781967Y-14047436D02*
X8772444Y-14056960D01*
X8772444Y-14056960D02*
X8753396Y-14066484D01*
X8753396Y-14066484D02*
X8715301Y-14066484D01*
X8715301Y-14066484D02*
X8696253Y-14056960D01*
X8877205Y-14047436D02*
X8886729Y-14056960D01*
X8886729Y-14056960D02*
X8877205Y-14066484D01*
X8877205Y-14066484D02*
X8867682Y-14056960D01*
X8867682Y-14056960D02*
X8877205Y-14047436D01*
X8877205Y-14047436D02*
X8877205Y-14066484D01*
X8877205Y-13942674D02*
X8886729Y-13952198D01*
X8886729Y-13952198D02*
X8877205Y-13961722D01*
X8877205Y-13961722D02*
X8867682Y-13952198D01*
X8867682Y-13952198D02*
X8877205Y-13942674D01*
X8877205Y-13942674D02*
X8877205Y-13961722D01*
X7045000Y-14295000D02*
X7245000Y-14495000D01*
X7245000Y-14295000D02*
X7045000Y-14495000D01*
X7486729Y-14286484D02*
X7610539Y-14286484D01*
X7610539Y-14286484D02*
X7543872Y-14362674D01*
X7543872Y-14362674D02*
X7572443Y-14362674D01*
X7572443Y-14362674D02*
X7591491Y-14372198D01*
X7591491Y-14372198D02*
X7601015Y-14381722D01*
X7601015Y-14381722D02*
X7610539Y-14400769D01*
X7610539Y-14400769D02*
X7610539Y-14448388D01*
X7610539Y-14448388D02*
X7601015Y-14467436D01*
X7601015Y-14467436D02*
X7591491Y-14476960D01*
X7591491Y-14476960D02*
X7572443Y-14486484D01*
X7572443Y-14486484D02*
X7515301Y-14486484D01*
X7515301Y-14486484D02*
X7496253Y-14476960D01*
X7496253Y-14476960D02*
X7486729Y-14467436D01*
X7696253Y-14467436D02*
X7705777Y-14476960D01*
X7705777Y-14476960D02*
X7696253Y-14486484D01*
X7696253Y-14486484D02*
X7686729Y-14476960D01*
X7686729Y-14476960D02*
X7696253Y-14467436D01*
X7696253Y-14467436D02*
X7696253Y-14486484D01*
X7781967Y-14305531D02*
X7791491Y-14296008D01*
X7791491Y-14296008D02*
X7810539Y-14286484D01*
X7810539Y-14286484D02*
X7858158Y-14286484D01*
X7858158Y-14286484D02*
X7877205Y-14296008D01*
X7877205Y-14296008D02*
X7886729Y-14305531D01*
X7886729Y-14305531D02*
X7896253Y-14324579D01*
X7896253Y-14324579D02*
X7896253Y-14343627D01*
X7896253Y-14343627D02*
X7886729Y-14372198D01*
X7886729Y-14372198D02*
X7772443Y-14486484D01*
X7772443Y-14486484D02*
X7896253Y-14486484D01*
X8020062Y-14286484D02*
X8039110Y-14286484D01*
X8039110Y-14286484D02*
X8058158Y-14296008D01*
X8058158Y-14296008D02*
X8067682Y-14305531D01*
X8067682Y-14305531D02*
X8077205Y-14324579D01*
X8077205Y-14324579D02*
X8086729Y-14362674D01*
X8086729Y-14362674D02*
X8086729Y-14410293D01*
X8086729Y-14410293D02*
X8077205Y-14448388D01*
X8077205Y-14448388D02*
X8067682Y-14467436D01*
X8067682Y-14467436D02*
X8058158Y-14476960D01*
X8058158Y-14476960D02*
X8039110Y-14486484D01*
X8039110Y-14486484D02*
X8020062Y-14486484D01*
X8020062Y-14486484D02*
X8001015Y-14476960D01*
X8001015Y-14476960D02*
X7991491Y-14467436D01*
X7991491Y-14467436D02*
X7981967Y-14448388D01*
X7981967Y-14448388D02*
X7972443Y-14410293D01*
X7972443Y-14410293D02*
X7972443Y-14362674D01*
X7972443Y-14362674D02*
X7981967Y-14324579D01*
X7981967Y-14324579D02*
X7991491Y-14305531D01*
X7991491Y-14305531D02*
X8001015Y-14296008D01*
X8001015Y-14296008D02*
X8020062Y-14286484D01*
X8210539Y-14286484D02*
X8229586Y-14286484D01*
X8229586Y-14286484D02*
X8248634Y-14296008D01*
X8248634Y-14296008D02*
X8258158Y-14305531D01*
X8258158Y-14305531D02*
X8267682Y-14324579D01*
X8267682Y-14324579D02*
X8277205Y-14362674D01*
X8277205Y-14362674D02*
X8277205Y-14410293D01*
X8277205Y-14410293D02*
X8267682Y-14448388D01*
X8267682Y-14448388D02*
X8258158Y-14467436D01*
X8258158Y-14467436D02*
X8248634Y-14476960D01*
X8248634Y-14476960D02*
X8229586Y-14486484D01*
X8229586Y-14486484D02*
X8210539Y-14486484D01*
X8210539Y-14486484D02*
X8191491Y-14476960D01*
X8191491Y-14476960D02*
X8181967Y-14467436D01*
X8181967Y-14467436D02*
X8172443Y-14448388D01*
X8172443Y-14448388D02*
X8162920Y-14410293D01*
X8162920Y-14410293D02*
X8162920Y-14362674D01*
X8162920Y-14362674D02*
X8172443Y-14324579D01*
X8172443Y-14324579D02*
X8181967Y-14305531D01*
X8181967Y-14305531D02*
X8191491Y-14296008D01*
X8191491Y-14296008D02*
X8210539Y-14286484D01*
X8362920Y-14486484D02*
X8362920Y-14353150D01*
X8362920Y-14372198D02*
X8372443Y-14362674D01*
X8372443Y-14362674D02*
X8391491Y-14353150D01*
X8391491Y-14353150D02*
X8420063Y-14353150D01*
X8420063Y-14353150D02*
X8439110Y-14362674D01*
X8439110Y-14362674D02*
X8448634Y-14381722D01*
X8448634Y-14381722D02*
X8448634Y-14486484D01*
X8448634Y-14381722D02*
X8458158Y-14362674D01*
X8458158Y-14362674D02*
X8477205Y-14353150D01*
X8477205Y-14353150D02*
X8505777Y-14353150D01*
X8505777Y-14353150D02*
X8524825Y-14362674D01*
X8524825Y-14362674D02*
X8534348Y-14381722D01*
X8534348Y-14381722D02*
X8534348Y-14486484D01*
X8629586Y-14486484D02*
X8629586Y-14353150D01*
X8629586Y-14372198D02*
X8639110Y-14362674D01*
X8639110Y-14362674D02*
X8658158Y-14353150D01*
X8658158Y-14353150D02*
X8686729Y-14353150D01*
X8686729Y-14353150D02*
X8705777Y-14362674D01*
X8705777Y-14362674D02*
X8715301Y-14381722D01*
X8715301Y-14381722D02*
X8715301Y-14486484D01*
X8715301Y-14381722D02*
X8724825Y-14362674D01*
X8724825Y-14362674D02*
X8743872Y-14353150D01*
X8743872Y-14353150D02*
X8772444Y-14353150D01*
X8772444Y-14353150D02*
X8791491Y-14362674D01*
X8791491Y-14362674D02*
X8801015Y-14381722D01*
X8801015Y-14381722D02*
X8801015Y-14486484D01*
X9191491Y-14276960D02*
X9020063Y-14534103D01*
X9448634Y-14286484D02*
X9467682Y-14286484D01*
X9467682Y-14286484D02*
X9486729Y-14296008D01*
X9486729Y-14296008D02*
X9496253Y-14305531D01*
X9496253Y-14305531D02*
X9505777Y-14324579D01*
X9505777Y-14324579D02*
X9515301Y-14362674D01*
X9515301Y-14362674D02*
X9515301Y-14410293D01*
X9515301Y-14410293D02*
X9505777Y-14448388D01*
X9505777Y-14448388D02*
X9496253Y-14467436D01*
X9496253Y-14467436D02*
X9486729Y-14476960D01*
X9486729Y-14476960D02*
X9467682Y-14486484D01*
X9467682Y-14486484D02*
X9448634Y-14486484D01*
X9448634Y-14486484D02*
X9429587Y-14476960D01*
X9429587Y-14476960D02*
X9420063Y-14467436D01*
X9420063Y-14467436D02*
X9410539Y-14448388D01*
X9410539Y-14448388D02*
X9401015Y-14410293D01*
X9401015Y-14410293D02*
X9401015Y-14362674D01*
X9401015Y-14362674D02*
X9410539Y-14324579D01*
X9410539Y-14324579D02*
X9420063Y-14305531D01*
X9420063Y-14305531D02*
X9429587Y-14296008D01*
X9429587Y-14296008D02*
X9448634Y-14286484D01*
X9601015Y-14467436D02*
X9610539Y-14476960D01*
X9610539Y-14476960D02*
X9601015Y-14486484D01*
X9601015Y-14486484D02*
X9591491Y-14476960D01*
X9591491Y-14476960D02*
X9601015Y-14467436D01*
X9601015Y-14467436D02*
X9601015Y-14486484D01*
X9801015Y-14486484D02*
X9686729Y-14486484D01*
X9743872Y-14486484D02*
X9743872Y-14286484D01*
X9743872Y-14286484D02*
X9724825Y-14315055D01*
X9724825Y-14315055D02*
X9705777Y-14334103D01*
X9705777Y-14334103D02*
X9686729Y-14343627D01*
X9877206Y-14305531D02*
X9886729Y-14296008D01*
X9886729Y-14296008D02*
X9905777Y-14286484D01*
X9905777Y-14286484D02*
X9953396Y-14286484D01*
X9953396Y-14286484D02*
X9972444Y-14296008D01*
X9972444Y-14296008D02*
X9981968Y-14305531D01*
X9981968Y-14305531D02*
X9991491Y-14324579D01*
X9991491Y-14324579D02*
X9991491Y-14343627D01*
X9991491Y-14343627D02*
X9981968Y-14372198D01*
X9981968Y-14372198D02*
X9867682Y-14486484D01*
X9867682Y-14486484D02*
X9991491Y-14486484D01*
X10162920Y-14286484D02*
X10124825Y-14286484D01*
X10124825Y-14286484D02*
X10105777Y-14296008D01*
X10105777Y-14296008D02*
X10096253Y-14305531D01*
X10096253Y-14305531D02*
X10077206Y-14334103D01*
X10077206Y-14334103D02*
X10067682Y-14372198D01*
X10067682Y-14372198D02*
X10067682Y-14448388D01*
X10067682Y-14448388D02*
X10077206Y-14467436D01*
X10077206Y-14467436D02*
X10086729Y-14476960D01*
X10086729Y-14476960D02*
X10105777Y-14486484D01*
X10105777Y-14486484D02*
X10143872Y-14486484D01*
X10143872Y-14486484D02*
X10162920Y-14476960D01*
X10162920Y-14476960D02*
X10172444Y-14467436D01*
X10172444Y-14467436D02*
X10181968Y-14448388D01*
X10181968Y-14448388D02*
X10181968Y-14400769D01*
X10181968Y-14400769D02*
X10172444Y-14381722D01*
X10172444Y-14381722D02*
X10162920Y-14372198D01*
X10162920Y-14372198D02*
X10143872Y-14362674D01*
X10143872Y-14362674D02*
X10105777Y-14362674D01*
X10105777Y-14362674D02*
X10086729Y-14372198D01*
X10086729Y-14372198D02*
X10077206Y-14381722D01*
X10077206Y-14381722D02*
X10067682Y-14400769D01*
X10305777Y-14286484D02*
X10324825Y-14286484D01*
X10324825Y-14286484D02*
X10343872Y-14296008D01*
X10343872Y-14296008D02*
X10353396Y-14305531D01*
X10353396Y-14305531D02*
X10362920Y-14324579D01*
X10362920Y-14324579D02*
X10372444Y-14362674D01*
X10372444Y-14362674D02*
X10372444Y-14410293D01*
X10372444Y-14410293D02*
X10362920Y-14448388D01*
X10362920Y-14448388D02*
X10353396Y-14467436D01*
X10353396Y-14467436D02*
X10343872Y-14476960D01*
X10343872Y-14476960D02*
X10324825Y-14486484D01*
X10324825Y-14486484D02*
X10305777Y-14486484D01*
X10305777Y-14486484D02*
X10286729Y-14476960D01*
X10286729Y-14476960D02*
X10277206Y-14467436D01*
X10277206Y-14467436D02*
X10267682Y-14448388D01*
X10267682Y-14448388D02*
X10258158Y-14410293D01*
X10258158Y-14410293D02*
X10258158Y-14362674D01*
X10258158Y-14362674D02*
X10267682Y-14324579D01*
X10267682Y-14324579D02*
X10277206Y-14305531D01*
X10277206Y-14305531D02*
X10286729Y-14296008D01*
X10286729Y-14296008D02*
X10305777Y-14286484D01*
X10448634Y-14286484D02*
X10448634Y-14324579D01*
X10524825Y-14286484D02*
X10524825Y-14324579D01*
X10820063Y-14562674D02*
X10810539Y-14553150D01*
X10810539Y-14553150D02*
X10791491Y-14524579D01*
X10791491Y-14524579D02*
X10781968Y-14505531D01*
X10781968Y-14505531D02*
X10772444Y-14476960D01*
X10772444Y-14476960D02*
X10762920Y-14429341D01*
X10762920Y-14429341D02*
X10762920Y-14391246D01*
X10762920Y-14391246D02*
X10772444Y-14343627D01*
X10772444Y-14343627D02*
X10781968Y-14315055D01*
X10781968Y-14315055D02*
X10791491Y-14296008D01*
X10791491Y-14296008D02*
X10810539Y-14267436D01*
X10810539Y-14267436D02*
X10820063Y-14257912D01*
X11001015Y-14486484D02*
X10886730Y-14486484D01*
X10943872Y-14486484D02*
X10943872Y-14286484D01*
X10943872Y-14286484D02*
X10924825Y-14315055D01*
X10924825Y-14315055D02*
X10905777Y-14334103D01*
X10905777Y-14334103D02*
X10886730Y-14343627D01*
X11239110Y-14486484D02*
X11239110Y-14286484D01*
X11324825Y-14486484D02*
X11324825Y-14381722D01*
X11324825Y-14381722D02*
X11315301Y-14362674D01*
X11315301Y-14362674D02*
X11296253Y-14353150D01*
X11296253Y-14353150D02*
X11267682Y-14353150D01*
X11267682Y-14353150D02*
X11248634Y-14362674D01*
X11248634Y-14362674D02*
X11239110Y-14372198D01*
X11448634Y-14486484D02*
X11429587Y-14476960D01*
X11429587Y-14476960D02*
X11420063Y-14467436D01*
X11420063Y-14467436D02*
X11410539Y-14448388D01*
X11410539Y-14448388D02*
X11410539Y-14391246D01*
X11410539Y-14391246D02*
X11420063Y-14372198D01*
X11420063Y-14372198D02*
X11429587Y-14362674D01*
X11429587Y-14362674D02*
X11448634Y-14353150D01*
X11448634Y-14353150D02*
X11477206Y-14353150D01*
X11477206Y-14353150D02*
X11496253Y-14362674D01*
X11496253Y-14362674D02*
X11505777Y-14372198D01*
X11505777Y-14372198D02*
X11515301Y-14391246D01*
X11515301Y-14391246D02*
X11515301Y-14448388D01*
X11515301Y-14448388D02*
X11505777Y-14467436D01*
X11505777Y-14467436D02*
X11496253Y-14476960D01*
X11496253Y-14476960D02*
X11477206Y-14486484D01*
X11477206Y-14486484D02*
X11448634Y-14486484D01*
X11629587Y-14486484D02*
X11610539Y-14476960D01*
X11610539Y-14476960D02*
X11601015Y-14457912D01*
X11601015Y-14457912D02*
X11601015Y-14286484D01*
X11781968Y-14476960D02*
X11762920Y-14486484D01*
X11762920Y-14486484D02*
X11724825Y-14486484D01*
X11724825Y-14486484D02*
X11705777Y-14476960D01*
X11705777Y-14476960D02*
X11696253Y-14457912D01*
X11696253Y-14457912D02*
X11696253Y-14381722D01*
X11696253Y-14381722D02*
X11705777Y-14362674D01*
X11705777Y-14362674D02*
X11724825Y-14353150D01*
X11724825Y-14353150D02*
X11762920Y-14353150D01*
X11762920Y-14353150D02*
X11781968Y-14362674D01*
X11781968Y-14362674D02*
X11791491Y-14381722D01*
X11791491Y-14381722D02*
X11791491Y-14400769D01*
X11791491Y-14400769D02*
X11696253Y-14419817D01*
X11858158Y-14562674D02*
X11867682Y-14553150D01*
X11867682Y-14553150D02*
X11886730Y-14524579D01*
X11886730Y-14524579D02*
X11896253Y-14505531D01*
X11896253Y-14505531D02*
X11905777Y-14476960D01*
X11905777Y-14476960D02*
X11915301Y-14429341D01*
X11915301Y-14429341D02*
X11915301Y-14391246D01*
X11915301Y-14391246D02*
X11905777Y-14343627D01*
X11905777Y-14343627D02*
X11896253Y-14315055D01*
X11896253Y-14315055D02*
X11886730Y-14296008D01*
X11886730Y-14296008D02*
X11867682Y-14267436D01*
X11867682Y-14267436D02*
X11858158Y-14257912D01*
X12220063Y-14562674D02*
X12210539Y-14553150D01*
X12210539Y-14553150D02*
X12191491Y-14524579D01*
X12191491Y-14524579D02*
X12181968Y-14505531D01*
X12181968Y-14505531D02*
X12172444Y-14476960D01*
X12172444Y-14476960D02*
X12162920Y-14429341D01*
X12162920Y-14429341D02*
X12162920Y-14391246D01*
X12162920Y-14391246D02*
X12172444Y-14343627D01*
X12172444Y-14343627D02*
X12181968Y-14315055D01*
X12181968Y-14315055D02*
X12191491Y-14296008D01*
X12191491Y-14296008D02*
X12210539Y-14267436D01*
X12210539Y-14267436D02*
X12220063Y-14257912D01*
X12296253Y-14353150D02*
X12296253Y-14486484D01*
X12296253Y-14372198D02*
X12305777Y-14362674D01*
X12305777Y-14362674D02*
X12324825Y-14353150D01*
X12324825Y-14353150D02*
X12353396Y-14353150D01*
X12353396Y-14353150D02*
X12372444Y-14362674D01*
X12372444Y-14362674D02*
X12381968Y-14381722D01*
X12381968Y-14381722D02*
X12381968Y-14486484D01*
X12505777Y-14486484D02*
X12486730Y-14476960D01*
X12486730Y-14476960D02*
X12477206Y-14467436D01*
X12477206Y-14467436D02*
X12467682Y-14448388D01*
X12467682Y-14448388D02*
X12467682Y-14391246D01*
X12467682Y-14391246D02*
X12477206Y-14372198D01*
X12477206Y-14372198D02*
X12486730Y-14362674D01*
X12486730Y-14362674D02*
X12505777Y-14353150D01*
X12505777Y-14353150D02*
X12534349Y-14353150D01*
X12534349Y-14353150D02*
X12553396Y-14362674D01*
X12553396Y-14362674D02*
X12562920Y-14372198D01*
X12562920Y-14372198D02*
X12572444Y-14391246D01*
X12572444Y-14391246D02*
X12572444Y-14448388D01*
X12572444Y-14448388D02*
X12562920Y-14467436D01*
X12562920Y-14467436D02*
X12553396Y-14476960D01*
X12553396Y-14476960D02*
X12534349Y-14486484D01*
X12534349Y-14486484D02*
X12505777Y-14486484D01*
X12629587Y-14353150D02*
X12705777Y-14353150D01*
X12658158Y-14286484D02*
X12658158Y-14457912D01*
X12658158Y-14457912D02*
X12667682Y-14476960D01*
X12667682Y-14476960D02*
X12686730Y-14486484D01*
X12686730Y-14486484D02*
X12705777Y-14486484D01*
X12924825Y-14353150D02*
X12924825Y-14553150D01*
X12924825Y-14362674D02*
X12943872Y-14353150D01*
X12943872Y-14353150D02*
X12981968Y-14353150D01*
X12981968Y-14353150D02*
X13001015Y-14362674D01*
X13001015Y-14362674D02*
X13010539Y-14372198D01*
X13010539Y-14372198D02*
X13020063Y-14391246D01*
X13020063Y-14391246D02*
X13020063Y-14448388D01*
X13020063Y-14448388D02*
X13010539Y-14467436D01*
X13010539Y-14467436D02*
X13001015Y-14476960D01*
X13001015Y-14476960D02*
X12981968Y-14486484D01*
X12981968Y-14486484D02*
X12943872Y-14486484D01*
X12943872Y-14486484D02*
X12924825Y-14476960D01*
X13134349Y-14486484D02*
X13115301Y-14476960D01*
X13115301Y-14476960D02*
X13105777Y-14457912D01*
X13105777Y-14457912D02*
X13105777Y-14286484D01*
X13296253Y-14486484D02*
X13296253Y-14381722D01*
X13296253Y-14381722D02*
X13286730Y-14362674D01*
X13286730Y-14362674D02*
X13267682Y-14353150D01*
X13267682Y-14353150D02*
X13229587Y-14353150D01*
X13229587Y-14353150D02*
X13210539Y-14362674D01*
X13296253Y-14476960D02*
X13277206Y-14486484D01*
X13277206Y-14486484D02*
X13229587Y-14486484D01*
X13229587Y-14486484D02*
X13210539Y-14476960D01*
X13210539Y-14476960D02*
X13201015Y-14457912D01*
X13201015Y-14457912D02*
X13201015Y-14438865D01*
X13201015Y-14438865D02*
X13210539Y-14419817D01*
X13210539Y-14419817D02*
X13229587Y-14410293D01*
X13229587Y-14410293D02*
X13277206Y-14410293D01*
X13277206Y-14410293D02*
X13296253Y-14400769D01*
X13362920Y-14353150D02*
X13439111Y-14353150D01*
X13391492Y-14286484D02*
X13391492Y-14457912D01*
X13391492Y-14457912D02*
X13401015Y-14476960D01*
X13401015Y-14476960D02*
X13420063Y-14486484D01*
X13420063Y-14486484D02*
X13439111Y-14486484D01*
X13581968Y-14476960D02*
X13562920Y-14486484D01*
X13562920Y-14486484D02*
X13524825Y-14486484D01*
X13524825Y-14486484D02*
X13505777Y-14476960D01*
X13505777Y-14476960D02*
X13496253Y-14457912D01*
X13496253Y-14457912D02*
X13496253Y-14381722D01*
X13496253Y-14381722D02*
X13505777Y-14362674D01*
X13505777Y-14362674D02*
X13524825Y-14353150D01*
X13524825Y-14353150D02*
X13562920Y-14353150D01*
X13562920Y-14353150D02*
X13581968Y-14362674D01*
X13581968Y-14362674D02*
X13591492Y-14381722D01*
X13591492Y-14381722D02*
X13591492Y-14400769D01*
X13591492Y-14400769D02*
X13496253Y-14419817D01*
X13762920Y-14486484D02*
X13762920Y-14286484D01*
X13762920Y-14476960D02*
X13743873Y-14486484D01*
X13743873Y-14486484D02*
X13705777Y-14486484D01*
X13705777Y-14486484D02*
X13686730Y-14476960D01*
X13686730Y-14476960D02*
X13677206Y-14467436D01*
X13677206Y-14467436D02*
X13667682Y-14448388D01*
X13667682Y-14448388D02*
X13667682Y-14391246D01*
X13667682Y-14391246D02*
X13677206Y-14372198D01*
X13677206Y-14372198D02*
X13686730Y-14362674D01*
X13686730Y-14362674D02*
X13705777Y-14353150D01*
X13705777Y-14353150D02*
X13743873Y-14353150D01*
X13743873Y-14353150D02*
X13762920Y-14362674D01*
X13839111Y-14562674D02*
X13848634Y-14553150D01*
X13848634Y-14553150D02*
X13867682Y-14524579D01*
X13867682Y-14524579D02*
X13877206Y-14505531D01*
X13877206Y-14505531D02*
X13886730Y-14476960D01*
X13886730Y-14476960D02*
X13896253Y-14429341D01*
X13896253Y-14429341D02*
X13896253Y-14391246D01*
X13896253Y-14391246D02*
X13886730Y-14343627D01*
X13886730Y-14343627D02*
X13877206Y-14315055D01*
X13877206Y-14315055D02*
X13867682Y-14296008D01*
X13867682Y-14296008D02*
X13848634Y-14267436D01*
X13848634Y-14267436D02*
X13839111Y-14257912D01*
M02*
