G04 #@! TF.GenerationSoftware,KiCad,Pcbnew,7.0.8*
G04 #@! TF.CreationDate,2023-10-17T14:12:28+02:00*
G04 #@! TF.ProjectId,pour_fillet,706f7572-5f66-4696-9c6c-65742e6b6963,rev?*
G04 #@! TF.SameCoordinates,Original*
G04 #@! TF.FileFunction,Copper,L1,Top*
G04 #@! TF.FilePolarity,Positive*
%FSLAX46Y46*%
G04 Gerber Fmt 4.6, Leading zero omitted, Abs format (unit mm)*
G04 Created by KiCad (PCBNEW 7.0.8) date 2023-10-17 14:12:28*
%MOMM*%
%LPD*%
G01*
G04 APERTURE LIST*
G04 #@! TA.AperFunction,SMDPad,CuDef*
%ADD10C,4.000000*%
G04 #@! TD*
G04 APERTURE END LIST*
D10*
X105000000Y-120000000D03*
X80000000Y-67000000D03*
X130000000Y-67000000D03*
X92500000Y-91000000D03*
X117500000Y-72000000D03*
X92500000Y-115000000D03*
X92500000Y-67000000D03*
X155000000Y-96000000D03*
X142500000Y-115000000D03*
X105000000Y-91000000D03*
X142500000Y-96000000D03*
X105000000Y-67000000D03*
X92500000Y-96000000D03*
X130000000Y-91000000D03*
X142500000Y-120000000D03*
X105000000Y-115000000D03*
X130000000Y-120000000D03*
X130000000Y-96000000D03*
X117500000Y-67000000D03*
X155000000Y-91000000D03*
X117500000Y-91000000D03*
X130000000Y-115000000D03*
X142500000Y-91000000D03*
X155000000Y-72000000D03*
X80000000Y-72000000D03*
X130000000Y-72000000D03*
X92500000Y-72000000D03*
X92500000Y-120000000D03*
X105000000Y-96000000D03*
X105000000Y-72000000D03*
X142500000Y-67000000D03*
X142500000Y-72000000D03*
X155000000Y-67000000D03*
X117500000Y-120000000D03*
X117500000Y-96000000D03*
X117500000Y-115000000D03*
G04 #@! TA.AperFunction,NonConductor*
G36*
X133015677Y-63019685D02*
G01*
X133036319Y-63036319D01*
X134963681Y-64963681D01*
X134997166Y-65025004D01*
X135000000Y-65051362D01*
X135000000Y-74948638D01*
X134980315Y-75015677D01*
X134963681Y-75036319D01*
X133036319Y-76963681D01*
X132974996Y-76997166D01*
X132948638Y-77000000D01*
X127051362Y-77000000D01*
X126984323Y-76980315D01*
X126963681Y-76963681D01*
X125036319Y-75036319D01*
X125002834Y-74974996D01*
X125000000Y-74948638D01*
X125000000Y-72000005D01*
X127494556Y-72000005D01*
X127514310Y-72314004D01*
X127514311Y-72314011D01*
X127573270Y-72623083D01*
X127670497Y-72922316D01*
X127670499Y-72922321D01*
X127804461Y-73207003D01*
X127804464Y-73207009D01*
X127973051Y-73472661D01*
X127973054Y-73472665D01*
X128173606Y-73715090D01*
X128173608Y-73715092D01*
X128402968Y-73930476D01*
X128402978Y-73930484D01*
X128657504Y-74115408D01*
X128657509Y-74115410D01*
X128657516Y-74115416D01*
X128933234Y-74266994D01*
X128933239Y-74266996D01*
X128933241Y-74266997D01*
X128933242Y-74266998D01*
X129225771Y-74382818D01*
X129225774Y-74382819D01*
X129530523Y-74461065D01*
X129530527Y-74461066D01*
X129596010Y-74469338D01*
X129842670Y-74500499D01*
X129842679Y-74500499D01*
X129842682Y-74500500D01*
X129842684Y-74500500D01*
X130157316Y-74500500D01*
X130157318Y-74500500D01*
X130157321Y-74500499D01*
X130157329Y-74500499D01*
X130343593Y-74476968D01*
X130469473Y-74461066D01*
X130774225Y-74382819D01*
X130774228Y-74382818D01*
X131066757Y-74266998D01*
X131066758Y-74266997D01*
X131066756Y-74266997D01*
X131066766Y-74266994D01*
X131342484Y-74115416D01*
X131597030Y-73930478D01*
X131826390Y-73715094D01*
X132026947Y-73472663D01*
X132195537Y-73207007D01*
X132329503Y-72922315D01*
X132426731Y-72623079D01*
X132485688Y-72314015D01*
X132505444Y-72000000D01*
X132485688Y-71685985D01*
X132426731Y-71376921D01*
X132329503Y-71077685D01*
X132195537Y-70792993D01*
X132026947Y-70527337D01*
X132026945Y-70527334D01*
X131826393Y-70284909D01*
X131826391Y-70284907D01*
X131597031Y-70069523D01*
X131597021Y-70069515D01*
X131342495Y-69884591D01*
X131342488Y-69884586D01*
X131342484Y-69884584D01*
X131066766Y-69733006D01*
X131066763Y-69733004D01*
X131066758Y-69733002D01*
X131066757Y-69733001D01*
X130770602Y-69615746D01*
X130771186Y-69614269D01*
X130718870Y-69578508D01*
X130691661Y-69514154D01*
X130703565Y-69445306D01*
X130750801Y-69393823D01*
X130770778Y-69384699D01*
X130770602Y-69384254D01*
X131066757Y-69266998D01*
X131066758Y-69266997D01*
X131066756Y-69266997D01*
X131066766Y-69266994D01*
X131342484Y-69115416D01*
X131597030Y-68930478D01*
X131826390Y-68715094D01*
X132026947Y-68472663D01*
X132195537Y-68207007D01*
X132329503Y-67922315D01*
X132426731Y-67623079D01*
X132485688Y-67314015D01*
X132505444Y-67000000D01*
X132485688Y-66685985D01*
X132426731Y-66376921D01*
X132329503Y-66077685D01*
X132195537Y-65792993D01*
X132026947Y-65527337D01*
X132026945Y-65527334D01*
X131826393Y-65284909D01*
X131826391Y-65284907D01*
X131597031Y-65069523D01*
X131597021Y-65069515D01*
X131342495Y-64884591D01*
X131342488Y-64884586D01*
X131342484Y-64884584D01*
X131066766Y-64733006D01*
X131066763Y-64733004D01*
X131066758Y-64733002D01*
X131066757Y-64733001D01*
X130774228Y-64617181D01*
X130774225Y-64617180D01*
X130469476Y-64538934D01*
X130469463Y-64538932D01*
X130157329Y-64499500D01*
X130157318Y-64499500D01*
X129842682Y-64499500D01*
X129842670Y-64499500D01*
X129530536Y-64538932D01*
X129530523Y-64538934D01*
X129225774Y-64617180D01*
X129225771Y-64617181D01*
X128933242Y-64733001D01*
X128933241Y-64733002D01*
X128657516Y-64884584D01*
X128657504Y-64884591D01*
X128402978Y-65069515D01*
X128402968Y-65069523D01*
X128173608Y-65284907D01*
X128173606Y-65284909D01*
X127973054Y-65527334D01*
X127973051Y-65527338D01*
X127804464Y-65792990D01*
X127804461Y-65792996D01*
X127670499Y-66077678D01*
X127670497Y-66077683D01*
X127573270Y-66376916D01*
X127514311Y-66685988D01*
X127514310Y-66685995D01*
X127494556Y-66999994D01*
X127494556Y-67000005D01*
X127514310Y-67314004D01*
X127514311Y-67314011D01*
X127573270Y-67623083D01*
X127670497Y-67922316D01*
X127670499Y-67922321D01*
X127804461Y-68207003D01*
X127804464Y-68207009D01*
X127973051Y-68472661D01*
X127973054Y-68472665D01*
X128173606Y-68715090D01*
X128173608Y-68715092D01*
X128402968Y-68930476D01*
X128402978Y-68930484D01*
X128657504Y-69115408D01*
X128657509Y-69115410D01*
X128657516Y-69115416D01*
X128933234Y-69266994D01*
X128933239Y-69266996D01*
X128933241Y-69266997D01*
X128933242Y-69266998D01*
X129229398Y-69384254D01*
X129228815Y-69385724D01*
X129281146Y-69421512D01*
X129308341Y-69485872D01*
X129296422Y-69554718D01*
X129249175Y-69606191D01*
X129229222Y-69615303D01*
X129229398Y-69615746D01*
X128933242Y-69733001D01*
X128933241Y-69733002D01*
X128657516Y-69884584D01*
X128657504Y-69884591D01*
X128402978Y-70069515D01*
X128402968Y-70069523D01*
X128173608Y-70284907D01*
X128173606Y-70284909D01*
X127973054Y-70527334D01*
X127973051Y-70527338D01*
X127804464Y-70792990D01*
X127804461Y-70792996D01*
X127670499Y-71077678D01*
X127670497Y-71077683D01*
X127573270Y-71376916D01*
X127514311Y-71685988D01*
X127514310Y-71685995D01*
X127494556Y-71999994D01*
X127494556Y-72000005D01*
X125000000Y-72000005D01*
X125000000Y-65051362D01*
X125019685Y-64984323D01*
X125036319Y-64963681D01*
X126963681Y-63036319D01*
X127025004Y-63002834D01*
X127051362Y-63000000D01*
X132948638Y-63000000D01*
X133015677Y-63019685D01*
G37*
G04 #@! TD.AperFunction*
G04 #@! TA.AperFunction,NonConductor*
G36*
X97496632Y-87003368D02*
G01*
X97500000Y-87011500D01*
X97500000Y-100988500D01*
X97496632Y-100996632D01*
X97488500Y-101000000D01*
X87511500Y-101000000D01*
X87503368Y-100996632D01*
X87500000Y-100988500D01*
X87500000Y-96000004D01*
X89994556Y-96000004D01*
X90014311Y-96314011D01*
X90073266Y-96623067D01*
X90073269Y-96623082D01*
X90149134Y-96856569D01*
X90170497Y-96922315D01*
X90233951Y-97057162D01*
X90304461Y-97207004D01*
X90473054Y-97472665D01*
X90673609Y-97715094D01*
X90902961Y-97930470D01*
X90902970Y-97930478D01*
X91157516Y-98115416D01*
X91433234Y-98266994D01*
X91725775Y-98382819D01*
X92030527Y-98461066D01*
X92030535Y-98461067D01*
X92342668Y-98500499D01*
X92342680Y-98500499D01*
X92342682Y-98500500D01*
X92342683Y-98500500D01*
X92657317Y-98500500D01*
X92657318Y-98500500D01*
X92657319Y-98500499D01*
X92657331Y-98500499D01*
X92914604Y-98467997D01*
X92969473Y-98461066D01*
X93274225Y-98382819D01*
X93566766Y-98266994D01*
X93842484Y-98115416D01*
X94097030Y-97930478D01*
X94326390Y-97715094D01*
X94526947Y-97472663D01*
X94695537Y-97207007D01*
X94829503Y-96922315D01*
X94926731Y-96623079D01*
X94985688Y-96314015D01*
X95005444Y-96000000D01*
X94985688Y-95685985D01*
X94926731Y-95376921D01*
X94829503Y-95077685D01*
X94695537Y-94792993D01*
X94526947Y-94527337D01*
X94526945Y-94527334D01*
X94326390Y-94284905D01*
X94097038Y-94069529D01*
X94097035Y-94069527D01*
X94097030Y-94069522D01*
X93842484Y-93884584D01*
X93566766Y-93733006D01*
X93274225Y-93617181D01*
X92969473Y-93538934D01*
X92969472Y-93538933D01*
X92969464Y-93538932D01*
X92751588Y-93511409D01*
X92743942Y-93507048D01*
X92741620Y-93498559D01*
X92745981Y-93490913D01*
X92751588Y-93488591D01*
X92809720Y-93481247D01*
X92969473Y-93461066D01*
X93274225Y-93382819D01*
X93566766Y-93266994D01*
X93842484Y-93115416D01*
X94097030Y-92930478D01*
X94326390Y-92715094D01*
X94526947Y-92472663D01*
X94695537Y-92207007D01*
X94829503Y-91922315D01*
X94926731Y-91623079D01*
X94985688Y-91314015D01*
X95005444Y-91000000D01*
X94985688Y-90685985D01*
X94926731Y-90376921D01*
X94829503Y-90077685D01*
X94695537Y-89792993D01*
X94526947Y-89527337D01*
X94526945Y-89527334D01*
X94326390Y-89284905D01*
X94097038Y-89069529D01*
X94097035Y-89069527D01*
X94097030Y-89069522D01*
X93842484Y-88884584D01*
X93566766Y-88733006D01*
X93274225Y-88617181D01*
X92969473Y-88538934D01*
X92969472Y-88538933D01*
X92969464Y-88538932D01*
X92657331Y-88499500D01*
X92657318Y-88499500D01*
X92342682Y-88499500D01*
X92342668Y-88499500D01*
X92030535Y-88538932D01*
X92030522Y-88538935D01*
X91725774Y-88617181D01*
X91433238Y-88733004D01*
X91433233Y-88733006D01*
X91157517Y-88884583D01*
X91157516Y-88884584D01*
X90902970Y-89069522D01*
X90902967Y-89069524D01*
X90902961Y-89069529D01*
X90673609Y-89284905D01*
X90473054Y-89527334D01*
X90304461Y-89792995D01*
X90170498Y-90077683D01*
X90170495Y-90077691D01*
X90073269Y-90376917D01*
X90073266Y-90376932D01*
X90014311Y-90685988D01*
X89994556Y-90999995D01*
X89994556Y-91000004D01*
X90014311Y-91314011D01*
X90073266Y-91623067D01*
X90073269Y-91623082D01*
X90149134Y-91856569D01*
X90170497Y-91922315D01*
X90233951Y-92057162D01*
X90304461Y-92207004D01*
X90473054Y-92472665D01*
X90673609Y-92715094D01*
X90902961Y-92930470D01*
X90902970Y-92930478D01*
X91157516Y-93115416D01*
X91433234Y-93266994D01*
X91725775Y-93382819D01*
X92030527Y-93461066D01*
X92030535Y-93461067D01*
X92248410Y-93488591D01*
X92256056Y-93492952D01*
X92258378Y-93501441D01*
X92254017Y-93509087D01*
X92248410Y-93511409D01*
X92030535Y-93538932D01*
X92030522Y-93538935D01*
X91725774Y-93617181D01*
X91433238Y-93733004D01*
X91433233Y-93733006D01*
X91157517Y-93884583D01*
X91157516Y-93884584D01*
X90902970Y-94069522D01*
X90902967Y-94069524D01*
X90902961Y-94069529D01*
X90673609Y-94284905D01*
X90473054Y-94527334D01*
X90304461Y-94792995D01*
X90170498Y-95077683D01*
X90170495Y-95077691D01*
X90073269Y-95376917D01*
X90073266Y-95376932D01*
X90014311Y-95685988D01*
X89994556Y-95999995D01*
X89994556Y-96000004D01*
X87500000Y-96000004D01*
X87500000Y-87011500D01*
X87503368Y-87003368D01*
X87511500Y-87000000D01*
X97488500Y-87000000D01*
X97496632Y-87003368D01*
G37*
G04 #@! TD.AperFunction*
G04 #@! TA.AperFunction,NonConductor*
G36*
X134943039Y-111019685D02*
G01*
X134988794Y-111072489D01*
X135000000Y-111124000D01*
X135000000Y-124876000D01*
X134980315Y-124943039D01*
X134927511Y-124988794D01*
X134876000Y-125000000D01*
X125124000Y-125000000D01*
X125056961Y-124980315D01*
X125011206Y-124927511D01*
X125000000Y-124876000D01*
X125000000Y-120000000D01*
X127394747Y-120000000D01*
X127413741Y-120314023D01*
X127413741Y-120314028D01*
X127413742Y-120314029D01*
X127470451Y-120623478D01*
X127470452Y-120623482D01*
X127470453Y-120623486D01*
X127564039Y-120923816D01*
X127564043Y-120923827D01*
X127564044Y-120923830D01*
X127564046Y-120923835D01*
X127693163Y-121210721D01*
X127855919Y-121479952D01*
X127855924Y-121479960D01*
X128049942Y-121727605D01*
X128272394Y-121950057D01*
X128520039Y-122144075D01*
X128520044Y-122144078D01*
X128520048Y-122144081D01*
X128789279Y-122306837D01*
X129076165Y-122435954D01*
X129076175Y-122435957D01*
X129076183Y-122435960D01*
X129276403Y-122498350D01*
X129376522Y-122529549D01*
X129685971Y-122586258D01*
X130000000Y-122605253D01*
X130314029Y-122586258D01*
X130623478Y-122529549D01*
X130923835Y-122435954D01*
X131210721Y-122306837D01*
X131479952Y-122144081D01*
X131727602Y-121950060D01*
X131950060Y-121727602D01*
X132144081Y-121479952D01*
X132306837Y-121210721D01*
X132435954Y-120923835D01*
X132529549Y-120623478D01*
X132586258Y-120314029D01*
X132605253Y-120000000D01*
X132586258Y-119685971D01*
X132529549Y-119376522D01*
X132435954Y-119076165D01*
X132306837Y-118789279D01*
X132144081Y-118520048D01*
X132144078Y-118520044D01*
X132144075Y-118520039D01*
X131950057Y-118272394D01*
X131727605Y-118049942D01*
X131479960Y-117855924D01*
X131479952Y-117855919D01*
X131210721Y-117693163D01*
X131032770Y-117613073D01*
X130979719Y-117567612D01*
X130959666Y-117500681D01*
X130978982Y-117433535D01*
X131031533Y-117387490D01*
X131032624Y-117386991D01*
X131210721Y-117306837D01*
X131479952Y-117144081D01*
X131727602Y-116950060D01*
X131950060Y-116727602D01*
X132144081Y-116479952D01*
X132306837Y-116210721D01*
X132435954Y-115923835D01*
X132529549Y-115623478D01*
X132586258Y-115314029D01*
X132605253Y-115000000D01*
X132586258Y-114685971D01*
X132529549Y-114376522D01*
X132435954Y-114076165D01*
X132306837Y-113789279D01*
X132144081Y-113520048D01*
X132144078Y-113520044D01*
X132144075Y-113520039D01*
X131950057Y-113272394D01*
X131727605Y-113049942D01*
X131479960Y-112855924D01*
X131479952Y-112855919D01*
X131210721Y-112693163D01*
X130923835Y-112564046D01*
X130923830Y-112564044D01*
X130923827Y-112564043D01*
X130923816Y-112564039D01*
X130623486Y-112470453D01*
X130623482Y-112470452D01*
X130623478Y-112470451D01*
X130314029Y-112413742D01*
X130314028Y-112413741D01*
X130314023Y-112413741D01*
X130000000Y-112394747D01*
X129685976Y-112413741D01*
X129685971Y-112413742D01*
X129376522Y-112470451D01*
X129376519Y-112470451D01*
X129376513Y-112470453D01*
X129076183Y-112564039D01*
X129076172Y-112564043D01*
X128789283Y-112693161D01*
X128789281Y-112693162D01*
X128520039Y-112855924D01*
X128272394Y-113049942D01*
X128049942Y-113272394D01*
X127855924Y-113520039D01*
X127693162Y-113789281D01*
X127693161Y-113789283D01*
X127564043Y-114076172D01*
X127564039Y-114076183D01*
X127470453Y-114376513D01*
X127413741Y-114685976D01*
X127394747Y-115000000D01*
X127413741Y-115314023D01*
X127413741Y-115314028D01*
X127413742Y-115314029D01*
X127470451Y-115623478D01*
X127470452Y-115623482D01*
X127470453Y-115623486D01*
X127564039Y-115923816D01*
X127564043Y-115923827D01*
X127564044Y-115923830D01*
X127564046Y-115923835D01*
X127693163Y-116210721D01*
X127855919Y-116479952D01*
X127855924Y-116479960D01*
X128049942Y-116727605D01*
X128272394Y-116950057D01*
X128520039Y-117144075D01*
X128520044Y-117144078D01*
X128520048Y-117144081D01*
X128789279Y-117306837D01*
X128967227Y-117386925D01*
X129020281Y-117432388D01*
X129040333Y-117499319D01*
X129021017Y-117566465D01*
X128968465Y-117612510D01*
X128967300Y-117613042D01*
X128840008Y-117670331D01*
X128789283Y-117693161D01*
X128789281Y-117693162D01*
X128520039Y-117855924D01*
X128272394Y-118049942D01*
X128049942Y-118272394D01*
X127855924Y-118520039D01*
X127693162Y-118789281D01*
X127693161Y-118789283D01*
X127564043Y-119076172D01*
X127564039Y-119076183D01*
X127470453Y-119376513D01*
X127413741Y-119685976D01*
X127394747Y-120000000D01*
X125000000Y-120000000D01*
X125000000Y-111124000D01*
X125019685Y-111056961D01*
X125072489Y-111011206D01*
X125124000Y-111000000D01*
X134876000Y-111000000D01*
X134943039Y-111019685D01*
G37*
G04 #@! TD.AperFunction*
G04 #@! TA.AperFunction,NonConductor*
G36*
X122443039Y-111019685D02*
G01*
X122488794Y-111072489D01*
X122500000Y-111124000D01*
X122500000Y-124876000D01*
X122480315Y-124943039D01*
X122427511Y-124988794D01*
X122376000Y-125000000D01*
X112624000Y-125000000D01*
X112556961Y-124980315D01*
X112511206Y-124927511D01*
X112500000Y-124876000D01*
X112500000Y-120000005D01*
X115094754Y-120000005D01*
X115113718Y-120301446D01*
X115113719Y-120301453D01*
X115170320Y-120598164D01*
X115263659Y-120885431D01*
X115263661Y-120885436D01*
X115392265Y-121158732D01*
X115392268Y-121158738D01*
X115554111Y-121413763D01*
X115746652Y-121646505D01*
X115966836Y-121853272D01*
X115966846Y-121853280D01*
X116211193Y-122030808D01*
X116211198Y-122030810D01*
X116211205Y-122030816D01*
X116475896Y-122176332D01*
X116475901Y-122176334D01*
X116475903Y-122176335D01*
X116475904Y-122176336D01*
X116756734Y-122287524D01*
X116756737Y-122287525D01*
X116854259Y-122312564D01*
X117049302Y-122362642D01*
X117196039Y-122381179D01*
X117348963Y-122400499D01*
X117348969Y-122400499D01*
X117348973Y-122400500D01*
X117348975Y-122400500D01*
X117651025Y-122400500D01*
X117651027Y-122400500D01*
X117651032Y-122400499D01*
X117651036Y-122400499D01*
X117730591Y-122390448D01*
X117950698Y-122362642D01*
X118243262Y-122287525D01*
X118243265Y-122287524D01*
X118524095Y-122176336D01*
X118524096Y-122176335D01*
X118524094Y-122176335D01*
X118524104Y-122176332D01*
X118788795Y-122030816D01*
X119033162Y-121853274D01*
X119253349Y-121646504D01*
X119445885Y-121413768D01*
X119607733Y-121158736D01*
X119736341Y-120885430D01*
X119829681Y-120598160D01*
X119886280Y-120301457D01*
X119905246Y-120000000D01*
X119886280Y-119698543D01*
X119829681Y-119401840D01*
X119736341Y-119114570D01*
X119607733Y-118841264D01*
X119445885Y-118586232D01*
X119253349Y-118353496D01*
X119033162Y-118146726D01*
X119033159Y-118146724D01*
X119033153Y-118146719D01*
X118788806Y-117969191D01*
X118788799Y-117969186D01*
X118788795Y-117969184D01*
X118524104Y-117823668D01*
X118524101Y-117823666D01*
X118524096Y-117823664D01*
X118524095Y-117823663D01*
X118243265Y-117712475D01*
X118243262Y-117712474D01*
X117950695Y-117637357D01*
X117837222Y-117623022D01*
X117773179Y-117595090D01*
X117734403Y-117536968D01*
X117733206Y-117467109D01*
X117769968Y-117407692D01*
X117833017Y-117377583D01*
X117837222Y-117376978D01*
X117892805Y-117369955D01*
X117950698Y-117362642D01*
X118243262Y-117287525D01*
X118243265Y-117287524D01*
X118524095Y-117176336D01*
X118524096Y-117176335D01*
X118524094Y-117176335D01*
X118524104Y-117176332D01*
X118788795Y-117030816D01*
X119033162Y-116853274D01*
X119253349Y-116646504D01*
X119445885Y-116413768D01*
X119607733Y-116158736D01*
X119736341Y-115885430D01*
X119829681Y-115598160D01*
X119886280Y-115301457D01*
X119905246Y-115000000D01*
X119886280Y-114698543D01*
X119829681Y-114401840D01*
X119736341Y-114114570D01*
X119607733Y-113841264D01*
X119445885Y-113586232D01*
X119253349Y-113353496D01*
X119033162Y-113146726D01*
X119033159Y-113146724D01*
X119033153Y-113146719D01*
X118788806Y-112969191D01*
X118788799Y-112969186D01*
X118788795Y-112969184D01*
X118524104Y-112823668D01*
X118524101Y-112823666D01*
X118524096Y-112823664D01*
X118524095Y-112823663D01*
X118243265Y-112712475D01*
X118243262Y-112712474D01*
X117950695Y-112637357D01*
X117651036Y-112599500D01*
X117651027Y-112599500D01*
X117348973Y-112599500D01*
X117348963Y-112599500D01*
X117049304Y-112637357D01*
X116756737Y-112712474D01*
X116756734Y-112712475D01*
X116475904Y-112823663D01*
X116475903Y-112823664D01*
X116211205Y-112969184D01*
X116211193Y-112969191D01*
X115966846Y-113146719D01*
X115966836Y-113146727D01*
X115746652Y-113353494D01*
X115554111Y-113586236D01*
X115392268Y-113841261D01*
X115392265Y-113841267D01*
X115263661Y-114114563D01*
X115263659Y-114114568D01*
X115170320Y-114401835D01*
X115113719Y-114698546D01*
X115113718Y-114698553D01*
X115094754Y-114999994D01*
X115094754Y-115000005D01*
X115113718Y-115301446D01*
X115113719Y-115301453D01*
X115170320Y-115598164D01*
X115263659Y-115885431D01*
X115263661Y-115885436D01*
X115392265Y-116158732D01*
X115392268Y-116158738D01*
X115554111Y-116413763D01*
X115746652Y-116646505D01*
X115966836Y-116853272D01*
X115966846Y-116853280D01*
X116211193Y-117030808D01*
X116211198Y-117030810D01*
X116211205Y-117030816D01*
X116475896Y-117176332D01*
X116475901Y-117176334D01*
X116475903Y-117176335D01*
X116475904Y-117176336D01*
X116756734Y-117287524D01*
X116756737Y-117287525D01*
X116854259Y-117312564D01*
X117049302Y-117362642D01*
X117087897Y-117367517D01*
X117162777Y-117376978D01*
X117226820Y-117404910D01*
X117265596Y-117463032D01*
X117266793Y-117532891D01*
X117230031Y-117592308D01*
X117166982Y-117622418D01*
X117162777Y-117623022D01*
X117049304Y-117637357D01*
X116756737Y-117712474D01*
X116756734Y-117712475D01*
X116475904Y-117823663D01*
X116475903Y-117823664D01*
X116211205Y-117969184D01*
X116211193Y-117969191D01*
X115966846Y-118146719D01*
X115966836Y-118146727D01*
X115746652Y-118353494D01*
X115554111Y-118586236D01*
X115392268Y-118841261D01*
X115392265Y-118841267D01*
X115263661Y-119114563D01*
X115263659Y-119114568D01*
X115170320Y-119401835D01*
X115113719Y-119698546D01*
X115113718Y-119698553D01*
X115094754Y-119999994D01*
X115094754Y-120000005D01*
X112500000Y-120000005D01*
X112500000Y-111124000D01*
X112519685Y-111056961D01*
X112572489Y-111011206D01*
X112624000Y-111000000D01*
X122376000Y-111000000D01*
X122443039Y-111019685D01*
G37*
G04 #@! TD.AperFunction*
G04 #@! TA.AperFunction,NonConductor*
G36*
X97004031Y-63000530D02*
G01*
X97095879Y-63012622D01*
X97113223Y-63014906D01*
X97144491Y-63023284D01*
X97234918Y-63060740D01*
X97262952Y-63076925D01*
X97340602Y-63136509D01*
X97363491Y-63159398D01*
X97423074Y-63237048D01*
X97439259Y-63265081D01*
X97476715Y-63355508D01*
X97485093Y-63386775D01*
X97499469Y-63495964D01*
X97500000Y-63504065D01*
X97500000Y-76495934D01*
X97499469Y-76504035D01*
X97485093Y-76613224D01*
X97476715Y-76644491D01*
X97439259Y-76734918D01*
X97423074Y-76762951D01*
X97363491Y-76840601D01*
X97340601Y-76863491D01*
X97262951Y-76923074D01*
X97234918Y-76939259D01*
X97144491Y-76976715D01*
X97113224Y-76985093D01*
X97024783Y-76996737D01*
X97004031Y-76999469D01*
X96995934Y-77000000D01*
X88004066Y-77000000D01*
X87995968Y-76999469D01*
X87972457Y-76996374D01*
X87886775Y-76985093D01*
X87855508Y-76976715D01*
X87765081Y-76939259D01*
X87737048Y-76923074D01*
X87659398Y-76863491D01*
X87636508Y-76840601D01*
X87576925Y-76762951D01*
X87560740Y-76734918D01*
X87523284Y-76644491D01*
X87514906Y-76613223D01*
X87500531Y-76504035D01*
X87500000Y-76495933D01*
X87500000Y-72000005D01*
X89994556Y-72000005D01*
X90014310Y-72314004D01*
X90014311Y-72314011D01*
X90073270Y-72623083D01*
X90170497Y-72922316D01*
X90170499Y-72922321D01*
X90304461Y-73207003D01*
X90304464Y-73207009D01*
X90473051Y-73472661D01*
X90473054Y-73472665D01*
X90673606Y-73715090D01*
X90673608Y-73715092D01*
X90902968Y-73930476D01*
X90902978Y-73930484D01*
X91157504Y-74115408D01*
X91157509Y-74115410D01*
X91157516Y-74115416D01*
X91433234Y-74266994D01*
X91433239Y-74266996D01*
X91433241Y-74266997D01*
X91433242Y-74266998D01*
X91725771Y-74382818D01*
X91725774Y-74382819D01*
X92030523Y-74461065D01*
X92030527Y-74461066D01*
X92096010Y-74469338D01*
X92342670Y-74500499D01*
X92342679Y-74500499D01*
X92342682Y-74500500D01*
X92342684Y-74500500D01*
X92657316Y-74500500D01*
X92657318Y-74500500D01*
X92657321Y-74500499D01*
X92657329Y-74500499D01*
X92843593Y-74476968D01*
X92969473Y-74461066D01*
X93274225Y-74382819D01*
X93274228Y-74382818D01*
X93566757Y-74266998D01*
X93566758Y-74266997D01*
X93566756Y-74266997D01*
X93566766Y-74266994D01*
X93842484Y-74115416D01*
X94097030Y-73930478D01*
X94326390Y-73715094D01*
X94526947Y-73472663D01*
X94695537Y-73207007D01*
X94829503Y-72922315D01*
X94926731Y-72623079D01*
X94985688Y-72314015D01*
X95005444Y-72000000D01*
X94985688Y-71685985D01*
X94926731Y-71376921D01*
X94829503Y-71077685D01*
X94695537Y-70792993D01*
X94526947Y-70527337D01*
X94526945Y-70527334D01*
X94326393Y-70284909D01*
X94326391Y-70284907D01*
X94097031Y-70069523D01*
X94097021Y-70069515D01*
X93842495Y-69884591D01*
X93842488Y-69884586D01*
X93842484Y-69884584D01*
X93566766Y-69733006D01*
X93566763Y-69733004D01*
X93566758Y-69733002D01*
X93566757Y-69733001D01*
X93270602Y-69615746D01*
X93271186Y-69614269D01*
X93218870Y-69578508D01*
X93191661Y-69514154D01*
X93203565Y-69445306D01*
X93250801Y-69393823D01*
X93270778Y-69384699D01*
X93270602Y-69384254D01*
X93566757Y-69266998D01*
X93566758Y-69266997D01*
X93566756Y-69266997D01*
X93566766Y-69266994D01*
X93842484Y-69115416D01*
X94097030Y-68930478D01*
X94326390Y-68715094D01*
X94526947Y-68472663D01*
X94695537Y-68207007D01*
X94829503Y-67922315D01*
X94926731Y-67623079D01*
X94985688Y-67314015D01*
X95005444Y-67000000D01*
X94985688Y-66685985D01*
X94926731Y-66376921D01*
X94829503Y-66077685D01*
X94695537Y-65792993D01*
X94526947Y-65527337D01*
X94526945Y-65527334D01*
X94326393Y-65284909D01*
X94326391Y-65284907D01*
X94097031Y-65069523D01*
X94097021Y-65069515D01*
X93842495Y-64884591D01*
X93842488Y-64884586D01*
X93842484Y-64884584D01*
X93566766Y-64733006D01*
X93566763Y-64733004D01*
X93566758Y-64733002D01*
X93566757Y-64733001D01*
X93274228Y-64617181D01*
X93274225Y-64617180D01*
X92969476Y-64538934D01*
X92969463Y-64538932D01*
X92657329Y-64499500D01*
X92657318Y-64499500D01*
X92342682Y-64499500D01*
X92342670Y-64499500D01*
X92030536Y-64538932D01*
X92030523Y-64538934D01*
X91725774Y-64617180D01*
X91725771Y-64617181D01*
X91433242Y-64733001D01*
X91433241Y-64733002D01*
X91157516Y-64884584D01*
X91157504Y-64884591D01*
X90902978Y-65069515D01*
X90902968Y-65069523D01*
X90673608Y-65284907D01*
X90673606Y-65284909D01*
X90473054Y-65527334D01*
X90473051Y-65527338D01*
X90304464Y-65792990D01*
X90304461Y-65792996D01*
X90170499Y-66077678D01*
X90170497Y-66077683D01*
X90073270Y-66376916D01*
X90014311Y-66685988D01*
X90014310Y-66685995D01*
X89994556Y-66999994D01*
X89994556Y-67000005D01*
X90014310Y-67314004D01*
X90014311Y-67314011D01*
X90073270Y-67623083D01*
X90170497Y-67922316D01*
X90170499Y-67922321D01*
X90304461Y-68207003D01*
X90304464Y-68207009D01*
X90473051Y-68472661D01*
X90473054Y-68472665D01*
X90673606Y-68715090D01*
X90673608Y-68715092D01*
X90902968Y-68930476D01*
X90902978Y-68930484D01*
X91157504Y-69115408D01*
X91157509Y-69115410D01*
X91157516Y-69115416D01*
X91433234Y-69266994D01*
X91433239Y-69266996D01*
X91433241Y-69266997D01*
X91433242Y-69266998D01*
X91729398Y-69384254D01*
X91728815Y-69385724D01*
X91781146Y-69421512D01*
X91808341Y-69485872D01*
X91796422Y-69554718D01*
X91749175Y-69606191D01*
X91729222Y-69615303D01*
X91729398Y-69615746D01*
X91433242Y-69733001D01*
X91433241Y-69733002D01*
X91157516Y-69884584D01*
X91157504Y-69884591D01*
X90902978Y-70069515D01*
X90902968Y-70069523D01*
X90673608Y-70284907D01*
X90673606Y-70284909D01*
X90473054Y-70527334D01*
X90473051Y-70527338D01*
X90304464Y-70792990D01*
X90304461Y-70792996D01*
X90170499Y-71077678D01*
X90170497Y-71077683D01*
X90073270Y-71376916D01*
X90014311Y-71685988D01*
X90014310Y-71685995D01*
X89994556Y-71999994D01*
X89994556Y-72000005D01*
X87500000Y-72000005D01*
X87500000Y-63504066D01*
X87500531Y-63495964D01*
X87514906Y-63386776D01*
X87523284Y-63355508D01*
X87560740Y-63265081D01*
X87576923Y-63237050D01*
X87636513Y-63159392D01*
X87659392Y-63136513D01*
X87737050Y-63076923D01*
X87765079Y-63060740D01*
X87855509Y-63023283D01*
X87886775Y-63014906D01*
X87995967Y-63000530D01*
X88004067Y-63000000D01*
X96995933Y-63000000D01*
X97004031Y-63000530D01*
G37*
G04 #@! TD.AperFunction*
G04 #@! TA.AperFunction,NonConductor*
G36*
X134846288Y-87018954D02*
G01*
X134927070Y-87072930D01*
X134981046Y-87153712D01*
X135000000Y-87249000D01*
X135000000Y-100751000D01*
X134981046Y-100846288D01*
X134927070Y-100927070D01*
X134846288Y-100981046D01*
X134751000Y-101000000D01*
X125249000Y-101000000D01*
X125153712Y-100981046D01*
X125072930Y-100927070D01*
X125018954Y-100846288D01*
X125000000Y-100751000D01*
X125000000Y-96000000D01*
X127494556Y-96000000D01*
X127514312Y-96314017D01*
X127514314Y-96314033D01*
X127573267Y-96623070D01*
X127573270Y-96623083D01*
X127670495Y-96922311D01*
X127670497Y-96922315D01*
X127804463Y-97207007D01*
X127973053Y-97472663D01*
X128173610Y-97715094D01*
X128402970Y-97930478D01*
X128402973Y-97930480D01*
X128402975Y-97930482D01*
X128657503Y-98115407D01*
X128657507Y-98115410D01*
X128657516Y-98115416D01*
X128933234Y-98266994D01*
X129225775Y-98382819D01*
X129530527Y-98461066D01*
X129842682Y-98500500D01*
X129842687Y-98500500D01*
X130157313Y-98500500D01*
X130157318Y-98500500D01*
X130469473Y-98461066D01*
X130774225Y-98382819D01*
X131066766Y-98266994D01*
X131342484Y-98115416D01*
X131597030Y-97930478D01*
X131826390Y-97715094D01*
X132026947Y-97472663D01*
X132195537Y-97207007D01*
X132329503Y-96922315D01*
X132426731Y-96623079D01*
X132485688Y-96314015D01*
X132505444Y-96000000D01*
X132485688Y-95685985D01*
X132485686Y-95685975D01*
X132485685Y-95685966D01*
X132453688Y-95518237D01*
X132426731Y-95376921D01*
X132329503Y-95077685D01*
X132195537Y-94792993D01*
X132026947Y-94527337D01*
X131826390Y-94284906D01*
X131597030Y-94069522D01*
X131597027Y-94069519D01*
X131597024Y-94069517D01*
X131342496Y-93884592D01*
X131342485Y-93884585D01*
X131342486Y-93884585D01*
X131342484Y-93884584D01*
X131066766Y-93733006D01*
X131063003Y-93731516D01*
X131061396Y-93730479D01*
X131059682Y-93729672D01*
X131059790Y-93729441D01*
X130981383Y-93678817D01*
X130926143Y-93598894D01*
X130905693Y-93503916D01*
X130923146Y-93408341D01*
X130975845Y-93326721D01*
X131055768Y-93271481D01*
X131063003Y-93268484D01*
X131063421Y-93268318D01*
X131066766Y-93266994D01*
X131342484Y-93115416D01*
X131597030Y-92930478D01*
X131826390Y-92715094D01*
X132026947Y-92472663D01*
X132195537Y-92207007D01*
X132329503Y-91922315D01*
X132426731Y-91623079D01*
X132485688Y-91314015D01*
X132505444Y-91000000D01*
X132485688Y-90685985D01*
X132485686Y-90685975D01*
X132485685Y-90685966D01*
X132453688Y-90518237D01*
X132426731Y-90376921D01*
X132329503Y-90077685D01*
X132195537Y-89792993D01*
X132026947Y-89527337D01*
X131826390Y-89284906D01*
X131597030Y-89069522D01*
X131597027Y-89069519D01*
X131597024Y-89069517D01*
X131342496Y-88884592D01*
X131342485Y-88884585D01*
X131342486Y-88884585D01*
X131342484Y-88884584D01*
X131229581Y-88822515D01*
X131066769Y-88733007D01*
X131010692Y-88710804D01*
X130774225Y-88617181D01*
X130774218Y-88617179D01*
X130774215Y-88617178D01*
X130583002Y-88568083D01*
X130469473Y-88538934D01*
X130157318Y-88499500D01*
X129842682Y-88499500D01*
X129530527Y-88538934D01*
X129225784Y-88617178D01*
X129225778Y-88617180D01*
X129225775Y-88617181D01*
X129107541Y-88663992D01*
X128933230Y-88733007D01*
X128657514Y-88884585D01*
X128657503Y-88884592D01*
X128402975Y-89069517D01*
X128173609Y-89284907D01*
X127973051Y-89527339D01*
X127804466Y-89792987D01*
X127670495Y-90077688D01*
X127573270Y-90376916D01*
X127573267Y-90376929D01*
X127514314Y-90685966D01*
X127514312Y-90685982D01*
X127494556Y-91000000D01*
X127514312Y-91314017D01*
X127514314Y-91314033D01*
X127573267Y-91623070D01*
X127573270Y-91623083D01*
X127670495Y-91922311D01*
X127670497Y-91922315D01*
X127804463Y-92207007D01*
X127973053Y-92472663D01*
X128173610Y-92715094D01*
X128402970Y-92930478D01*
X128402973Y-92930480D01*
X128402975Y-92930482D01*
X128657503Y-93115407D01*
X128657507Y-93115410D01*
X128657516Y-93115416D01*
X128933232Y-93266993D01*
X128933234Y-93266994D01*
X128933238Y-93266996D01*
X128937003Y-93268487D01*
X128938607Y-93269523D01*
X128940318Y-93270328D01*
X128940209Y-93270557D01*
X129018622Y-93321189D01*
X129073859Y-93401113D01*
X129094306Y-93496092D01*
X129076850Y-93591666D01*
X129024148Y-93673285D01*
X128944224Y-93728522D01*
X128937003Y-93731513D01*
X128933238Y-93733003D01*
X128933234Y-93733005D01*
X128657514Y-93884585D01*
X128657503Y-93884592D01*
X128402975Y-94069517D01*
X128173609Y-94284907D01*
X127973051Y-94527339D01*
X127804466Y-94792987D01*
X127670495Y-95077688D01*
X127573270Y-95376916D01*
X127573267Y-95376929D01*
X127514314Y-95685966D01*
X127514312Y-95685982D01*
X127494556Y-96000000D01*
X125000000Y-96000000D01*
X125000000Y-87249000D01*
X125018954Y-87153712D01*
X125072930Y-87072930D01*
X125153712Y-87018954D01*
X125249000Y-87000000D01*
X134751000Y-87000000D01*
X134846288Y-87018954D01*
G37*
G04 #@! TD.AperFunction*
G04 #@! TA.AperFunction,NonConductor*
G36*
X159515677Y-63019685D02*
G01*
X159536319Y-63036319D01*
X159963681Y-63463681D01*
X159997166Y-63525004D01*
X160000000Y-63551362D01*
X160000000Y-76448638D01*
X159980315Y-76515677D01*
X159963681Y-76536319D01*
X159536319Y-76963681D01*
X159474996Y-76997166D01*
X159448638Y-77000000D01*
X150551362Y-77000000D01*
X150484323Y-76980315D01*
X150463681Y-76963681D01*
X150036319Y-76536319D01*
X150002834Y-76474996D01*
X150000000Y-76448638D01*
X150000000Y-72000005D01*
X152494556Y-72000005D01*
X152514310Y-72314004D01*
X152514311Y-72314011D01*
X152573270Y-72623083D01*
X152670497Y-72922316D01*
X152670499Y-72922321D01*
X152804461Y-73207003D01*
X152804464Y-73207009D01*
X152973051Y-73472661D01*
X152973054Y-73472665D01*
X153173606Y-73715090D01*
X153173608Y-73715092D01*
X153402968Y-73930476D01*
X153402978Y-73930484D01*
X153657504Y-74115408D01*
X153657509Y-74115410D01*
X153657516Y-74115416D01*
X153933234Y-74266994D01*
X153933239Y-74266996D01*
X153933241Y-74266997D01*
X153933242Y-74266998D01*
X154225771Y-74382818D01*
X154225774Y-74382819D01*
X154530523Y-74461065D01*
X154530527Y-74461066D01*
X154596010Y-74469338D01*
X154842670Y-74500499D01*
X154842679Y-74500499D01*
X154842682Y-74500500D01*
X154842684Y-74500500D01*
X155157316Y-74500500D01*
X155157318Y-74500500D01*
X155157321Y-74500499D01*
X155157329Y-74500499D01*
X155343593Y-74476968D01*
X155469473Y-74461066D01*
X155774225Y-74382819D01*
X155774228Y-74382818D01*
X156066757Y-74266998D01*
X156066758Y-74266997D01*
X156066756Y-74266997D01*
X156066766Y-74266994D01*
X156342484Y-74115416D01*
X156597030Y-73930478D01*
X156826390Y-73715094D01*
X157026947Y-73472663D01*
X157195537Y-73207007D01*
X157329503Y-72922315D01*
X157426731Y-72623079D01*
X157485688Y-72314015D01*
X157505444Y-72000000D01*
X157485688Y-71685985D01*
X157426731Y-71376921D01*
X157329503Y-71077685D01*
X157195537Y-70792993D01*
X157026947Y-70527337D01*
X157026945Y-70527334D01*
X156826393Y-70284909D01*
X156826391Y-70284907D01*
X156597031Y-70069523D01*
X156597021Y-70069515D01*
X156342495Y-69884591D01*
X156342488Y-69884586D01*
X156342484Y-69884584D01*
X156066766Y-69733006D01*
X156066763Y-69733004D01*
X156066758Y-69733002D01*
X156066757Y-69733001D01*
X155770602Y-69615746D01*
X155771186Y-69614269D01*
X155718870Y-69578508D01*
X155691661Y-69514154D01*
X155703565Y-69445306D01*
X155750801Y-69393823D01*
X155770778Y-69384699D01*
X155770602Y-69384254D01*
X156066757Y-69266998D01*
X156066758Y-69266997D01*
X156066756Y-69266997D01*
X156066766Y-69266994D01*
X156342484Y-69115416D01*
X156597030Y-68930478D01*
X156826390Y-68715094D01*
X157026947Y-68472663D01*
X157195537Y-68207007D01*
X157329503Y-67922315D01*
X157426731Y-67623079D01*
X157485688Y-67314015D01*
X157505444Y-67000000D01*
X157485688Y-66685985D01*
X157426731Y-66376921D01*
X157329503Y-66077685D01*
X157195537Y-65792993D01*
X157026947Y-65527337D01*
X157026945Y-65527334D01*
X156826393Y-65284909D01*
X156826391Y-65284907D01*
X156597031Y-65069523D01*
X156597021Y-65069515D01*
X156342495Y-64884591D01*
X156342488Y-64884586D01*
X156342484Y-64884584D01*
X156066766Y-64733006D01*
X156066763Y-64733004D01*
X156066758Y-64733002D01*
X156066757Y-64733001D01*
X155774228Y-64617181D01*
X155774225Y-64617180D01*
X155469476Y-64538934D01*
X155469463Y-64538932D01*
X155157329Y-64499500D01*
X155157318Y-64499500D01*
X154842682Y-64499500D01*
X154842670Y-64499500D01*
X154530536Y-64538932D01*
X154530523Y-64538934D01*
X154225774Y-64617180D01*
X154225771Y-64617181D01*
X153933242Y-64733001D01*
X153933241Y-64733002D01*
X153657516Y-64884584D01*
X153657504Y-64884591D01*
X153402978Y-65069515D01*
X153402968Y-65069523D01*
X153173608Y-65284907D01*
X153173606Y-65284909D01*
X152973054Y-65527334D01*
X152973051Y-65527338D01*
X152804464Y-65792990D01*
X152804461Y-65792996D01*
X152670499Y-66077678D01*
X152670497Y-66077683D01*
X152573270Y-66376916D01*
X152514311Y-66685988D01*
X152514310Y-66685995D01*
X152494556Y-66999994D01*
X152494556Y-67000005D01*
X152514310Y-67314004D01*
X152514311Y-67314011D01*
X152573270Y-67623083D01*
X152670497Y-67922316D01*
X152670499Y-67922321D01*
X152804461Y-68207003D01*
X152804464Y-68207009D01*
X152973051Y-68472661D01*
X152973054Y-68472665D01*
X153173606Y-68715090D01*
X153173608Y-68715092D01*
X153402968Y-68930476D01*
X153402978Y-68930484D01*
X153657504Y-69115408D01*
X153657509Y-69115410D01*
X153657516Y-69115416D01*
X153933234Y-69266994D01*
X153933239Y-69266996D01*
X153933241Y-69266997D01*
X153933242Y-69266998D01*
X154229398Y-69384254D01*
X154228815Y-69385724D01*
X154281146Y-69421512D01*
X154308341Y-69485872D01*
X154296422Y-69554718D01*
X154249175Y-69606191D01*
X154229222Y-69615303D01*
X154229398Y-69615746D01*
X153933242Y-69733001D01*
X153933241Y-69733002D01*
X153657516Y-69884584D01*
X153657504Y-69884591D01*
X153402978Y-70069515D01*
X153402968Y-70069523D01*
X153173608Y-70284907D01*
X153173606Y-70284909D01*
X152973054Y-70527334D01*
X152973051Y-70527338D01*
X152804464Y-70792990D01*
X152804461Y-70792996D01*
X152670499Y-71077678D01*
X152670497Y-71077683D01*
X152573270Y-71376916D01*
X152514311Y-71685988D01*
X152514310Y-71685995D01*
X152494556Y-71999994D01*
X152494556Y-72000005D01*
X150000000Y-72000005D01*
X150000000Y-63551362D01*
X150019685Y-63484323D01*
X150036319Y-63463681D01*
X150463681Y-63036319D01*
X150525004Y-63002834D01*
X150551362Y-63000000D01*
X159448638Y-63000000D01*
X159515677Y-63019685D01*
G37*
G04 #@! TD.AperFunction*
G04 #@! TA.AperFunction,NonConductor*
G36*
X147443039Y-111019685D02*
G01*
X147488794Y-111072489D01*
X147500000Y-111124000D01*
X147500000Y-124876000D01*
X147480315Y-124943039D01*
X147427511Y-124988794D01*
X147376000Y-125000000D01*
X137624000Y-125000000D01*
X137556961Y-124980315D01*
X137511206Y-124927511D01*
X137500000Y-124876000D01*
X137500000Y-120000003D01*
X139494415Y-120000003D01*
X139514738Y-120348927D01*
X139514739Y-120348938D01*
X139575428Y-120693127D01*
X139575430Y-120693134D01*
X139675674Y-121027972D01*
X139814107Y-121348895D01*
X139814113Y-121348908D01*
X139988870Y-121651597D01*
X140197584Y-121931949D01*
X140197589Y-121931955D01*
X140321463Y-122063253D01*
X140437442Y-122186183D01*
X140613903Y-122334251D01*
X140705186Y-122410847D01*
X140705194Y-122410853D01*
X140997203Y-122602911D01*
X140997207Y-122602913D01*
X141309549Y-122759777D01*
X141637989Y-122879319D01*
X141978086Y-122959923D01*
X142325241Y-123000500D01*
X142325248Y-123000500D01*
X142674752Y-123000500D01*
X142674759Y-123000500D01*
X143021914Y-122959923D01*
X143362011Y-122879319D01*
X143690451Y-122759777D01*
X144002793Y-122602913D01*
X144294811Y-122410849D01*
X144562558Y-122186183D01*
X144802412Y-121931953D01*
X145011130Y-121651596D01*
X145185889Y-121348904D01*
X145324326Y-121027971D01*
X145424569Y-120693136D01*
X145485262Y-120348927D01*
X145505585Y-120000000D01*
X145485262Y-119651073D01*
X145485260Y-119651061D01*
X145424571Y-119306872D01*
X145424569Y-119306865D01*
X145324325Y-118972027D01*
X145185892Y-118651104D01*
X145185889Y-118651096D01*
X145011130Y-118348404D01*
X145011129Y-118348402D01*
X144802415Y-118068050D01*
X144802410Y-118068044D01*
X144686433Y-117945117D01*
X144562558Y-117813817D01*
X144392091Y-117670779D01*
X144301769Y-117594989D01*
X144263067Y-117536818D01*
X144261959Y-117466957D01*
X144298796Y-117407587D01*
X144301769Y-117405011D01*
X144352540Y-117362407D01*
X144562558Y-117186183D01*
X144802412Y-116931953D01*
X145011130Y-116651596D01*
X145185889Y-116348904D01*
X145324326Y-116027971D01*
X145424569Y-115693136D01*
X145485262Y-115348927D01*
X145505585Y-115000000D01*
X145485262Y-114651073D01*
X145485260Y-114651061D01*
X145424571Y-114306872D01*
X145424569Y-114306865D01*
X145324325Y-113972027D01*
X145185892Y-113651104D01*
X145185889Y-113651096D01*
X145011130Y-113348404D01*
X145011129Y-113348402D01*
X144802415Y-113068050D01*
X144802410Y-113068044D01*
X144686433Y-112945117D01*
X144562558Y-112813817D01*
X144414488Y-112689572D01*
X144294813Y-112589152D01*
X144294805Y-112589146D01*
X144002796Y-112397088D01*
X143690458Y-112240226D01*
X143690452Y-112240223D01*
X143362012Y-112120681D01*
X143362009Y-112120680D01*
X143021915Y-112040077D01*
X142978519Y-112035004D01*
X142674759Y-111999500D01*
X142325241Y-111999500D01*
X142021480Y-112035004D01*
X141978085Y-112040077D01*
X141978083Y-112040077D01*
X141637990Y-112120680D01*
X141637987Y-112120681D01*
X141309547Y-112240223D01*
X141309541Y-112240226D01*
X140997203Y-112397088D01*
X140705194Y-112589146D01*
X140705186Y-112589152D01*
X140437442Y-112813817D01*
X140437440Y-112813819D01*
X140197589Y-113068044D01*
X140197584Y-113068050D01*
X139988870Y-113348402D01*
X139814113Y-113651091D01*
X139814107Y-113651104D01*
X139675674Y-113972027D01*
X139575430Y-114306865D01*
X139575428Y-114306872D01*
X139514739Y-114651061D01*
X139514738Y-114651072D01*
X139494415Y-114999996D01*
X139494415Y-115000003D01*
X139514738Y-115348927D01*
X139514739Y-115348938D01*
X139575428Y-115693127D01*
X139575430Y-115693134D01*
X139675674Y-116027972D01*
X139814107Y-116348895D01*
X139814113Y-116348908D01*
X139988870Y-116651597D01*
X140197584Y-116931949D01*
X140197589Y-116931955D01*
X140321463Y-117063253D01*
X140437442Y-117186183D01*
X140551637Y-117282003D01*
X140698230Y-117405011D01*
X140736932Y-117463182D01*
X140738040Y-117533043D01*
X140701203Y-117592413D01*
X140698230Y-117594989D01*
X140437442Y-117813817D01*
X140437440Y-117813819D01*
X140197589Y-118068044D01*
X140197584Y-118068050D01*
X139988870Y-118348402D01*
X139814113Y-118651091D01*
X139814107Y-118651104D01*
X139675674Y-118972027D01*
X139575430Y-119306865D01*
X139575428Y-119306872D01*
X139514739Y-119651061D01*
X139514738Y-119651072D01*
X139494415Y-119999996D01*
X139494415Y-120000003D01*
X137500000Y-120000003D01*
X137500000Y-111124000D01*
X137519685Y-111056961D01*
X137572489Y-111011206D01*
X137624000Y-111000000D01*
X147376000Y-111000000D01*
X147443039Y-111019685D01*
G37*
G04 #@! TD.AperFunction*
G04 #@! TA.AperFunction,NonConductor*
G36*
X84943039Y-63019685D02*
G01*
X84988794Y-63072489D01*
X85000000Y-63124000D01*
X85000000Y-76876000D01*
X84980315Y-76943039D01*
X84927511Y-76988794D01*
X84876000Y-77000000D01*
X75124000Y-77000000D01*
X75056961Y-76980315D01*
X75011206Y-76927511D01*
X75000000Y-76876000D01*
X75000000Y-72000005D01*
X77494556Y-72000005D01*
X77514310Y-72314004D01*
X77514311Y-72314011D01*
X77573270Y-72623083D01*
X77670497Y-72922316D01*
X77670499Y-72922321D01*
X77804461Y-73207003D01*
X77804464Y-73207009D01*
X77973051Y-73472661D01*
X77973054Y-73472665D01*
X78173606Y-73715090D01*
X78173608Y-73715092D01*
X78402968Y-73930476D01*
X78402978Y-73930484D01*
X78657504Y-74115408D01*
X78657509Y-74115410D01*
X78657516Y-74115416D01*
X78933234Y-74266994D01*
X78933239Y-74266996D01*
X78933241Y-74266997D01*
X78933242Y-74266998D01*
X79225771Y-74382818D01*
X79225774Y-74382819D01*
X79530523Y-74461065D01*
X79530527Y-74461066D01*
X79596010Y-74469338D01*
X79842670Y-74500499D01*
X79842679Y-74500499D01*
X79842682Y-74500500D01*
X79842684Y-74500500D01*
X80157316Y-74500500D01*
X80157318Y-74500500D01*
X80157321Y-74500499D01*
X80157329Y-74500499D01*
X80343593Y-74476968D01*
X80469473Y-74461066D01*
X80774225Y-74382819D01*
X80774228Y-74382818D01*
X81066757Y-74266998D01*
X81066758Y-74266997D01*
X81066756Y-74266997D01*
X81066766Y-74266994D01*
X81342484Y-74115416D01*
X81597030Y-73930478D01*
X81826390Y-73715094D01*
X82026947Y-73472663D01*
X82195537Y-73207007D01*
X82329503Y-72922315D01*
X82426731Y-72623079D01*
X82485688Y-72314015D01*
X82505444Y-72000000D01*
X82485688Y-71685985D01*
X82426731Y-71376921D01*
X82329503Y-71077685D01*
X82195537Y-70792993D01*
X82026947Y-70527337D01*
X82026945Y-70527334D01*
X81826393Y-70284909D01*
X81826391Y-70284907D01*
X81597031Y-70069523D01*
X81597021Y-70069515D01*
X81342495Y-69884591D01*
X81342488Y-69884586D01*
X81342484Y-69884584D01*
X81066766Y-69733006D01*
X81066763Y-69733004D01*
X81066758Y-69733002D01*
X81066757Y-69733001D01*
X80770602Y-69615746D01*
X80771186Y-69614269D01*
X80718870Y-69578508D01*
X80691661Y-69514154D01*
X80703565Y-69445306D01*
X80750801Y-69393823D01*
X80770778Y-69384699D01*
X80770602Y-69384254D01*
X81066757Y-69266998D01*
X81066758Y-69266997D01*
X81066756Y-69266997D01*
X81066766Y-69266994D01*
X81342484Y-69115416D01*
X81597030Y-68930478D01*
X81826390Y-68715094D01*
X82026947Y-68472663D01*
X82195537Y-68207007D01*
X82329503Y-67922315D01*
X82426731Y-67623079D01*
X82485688Y-67314015D01*
X82505444Y-67000000D01*
X82485688Y-66685985D01*
X82426731Y-66376921D01*
X82329503Y-66077685D01*
X82195537Y-65792993D01*
X82026947Y-65527337D01*
X82026945Y-65527334D01*
X81826393Y-65284909D01*
X81826391Y-65284907D01*
X81597031Y-65069523D01*
X81597021Y-65069515D01*
X81342495Y-64884591D01*
X81342488Y-64884586D01*
X81342484Y-64884584D01*
X81066766Y-64733006D01*
X81066763Y-64733004D01*
X81066758Y-64733002D01*
X81066757Y-64733001D01*
X80774228Y-64617181D01*
X80774225Y-64617180D01*
X80469476Y-64538934D01*
X80469463Y-64538932D01*
X80157329Y-64499500D01*
X80157318Y-64499500D01*
X79842682Y-64499500D01*
X79842670Y-64499500D01*
X79530536Y-64538932D01*
X79530523Y-64538934D01*
X79225774Y-64617180D01*
X79225771Y-64617181D01*
X78933242Y-64733001D01*
X78933241Y-64733002D01*
X78657516Y-64884584D01*
X78657504Y-64884591D01*
X78402978Y-65069515D01*
X78402968Y-65069523D01*
X78173608Y-65284907D01*
X78173606Y-65284909D01*
X77973054Y-65527334D01*
X77973051Y-65527338D01*
X77804464Y-65792990D01*
X77804461Y-65792996D01*
X77670499Y-66077678D01*
X77670497Y-66077683D01*
X77573270Y-66376916D01*
X77514311Y-66685988D01*
X77514310Y-66685995D01*
X77494556Y-66999994D01*
X77494556Y-67000005D01*
X77514310Y-67314004D01*
X77514311Y-67314011D01*
X77573270Y-67623083D01*
X77670497Y-67922316D01*
X77670499Y-67922321D01*
X77804461Y-68207003D01*
X77804464Y-68207009D01*
X77973051Y-68472661D01*
X77973054Y-68472665D01*
X78173606Y-68715090D01*
X78173608Y-68715092D01*
X78402968Y-68930476D01*
X78402978Y-68930484D01*
X78657504Y-69115408D01*
X78657509Y-69115410D01*
X78657516Y-69115416D01*
X78933234Y-69266994D01*
X78933239Y-69266996D01*
X78933241Y-69266997D01*
X78933242Y-69266998D01*
X79229398Y-69384254D01*
X79228815Y-69385724D01*
X79281146Y-69421512D01*
X79308341Y-69485872D01*
X79296422Y-69554718D01*
X79249175Y-69606191D01*
X79229222Y-69615303D01*
X79229398Y-69615746D01*
X78933242Y-69733001D01*
X78933241Y-69733002D01*
X78657516Y-69884584D01*
X78657504Y-69884591D01*
X78402978Y-70069515D01*
X78402968Y-70069523D01*
X78173608Y-70284907D01*
X78173606Y-70284909D01*
X77973054Y-70527334D01*
X77973051Y-70527338D01*
X77804464Y-70792990D01*
X77804461Y-70792996D01*
X77670499Y-71077678D01*
X77670497Y-71077683D01*
X77573270Y-71376916D01*
X77514311Y-71685988D01*
X77514310Y-71685995D01*
X77494556Y-71999994D01*
X77494556Y-72000005D01*
X75000000Y-72000005D01*
X75000000Y-63124000D01*
X75019685Y-63056961D01*
X75072489Y-63011206D01*
X75124000Y-63000000D01*
X84876000Y-63000000D01*
X84943039Y-63019685D01*
G37*
G04 #@! TD.AperFunction*
G04 #@! TA.AperFunction,NonConductor*
G36*
X147141585Y-87020213D02*
G01*
X147270780Y-87079214D01*
X147378119Y-87172224D01*
X147454906Y-87291708D01*
X147494921Y-87427985D01*
X147500000Y-87499000D01*
X147500000Y-100501000D01*
X147479787Y-100641585D01*
X147420786Y-100770780D01*
X147327776Y-100878119D01*
X147208292Y-100954906D01*
X147072015Y-100994921D01*
X147001000Y-101000000D01*
X137999000Y-101000000D01*
X137858415Y-100979787D01*
X137729220Y-100920786D01*
X137621881Y-100827776D01*
X137545094Y-100708292D01*
X137505079Y-100572015D01*
X137500000Y-100501000D01*
X137500000Y-96000006D01*
X139994556Y-96000006D01*
X140014310Y-96314008D01*
X140014312Y-96314019D01*
X140073267Y-96623073D01*
X140073268Y-96623078D01*
X140170498Y-96922320D01*
X140170501Y-96922326D01*
X140304458Y-97206999D01*
X140304467Y-97207015D01*
X140473047Y-97472655D01*
X140473053Y-97472663D01*
X140673610Y-97715094D01*
X140902970Y-97930478D01*
X141157516Y-98115416D01*
X141433234Y-98266994D01*
X141725775Y-98382819D01*
X142030527Y-98461066D01*
X142342682Y-98500500D01*
X142342685Y-98500500D01*
X142657315Y-98500500D01*
X142657318Y-98500500D01*
X142969473Y-98461066D01*
X143274225Y-98382819D01*
X143566766Y-98266994D01*
X143842484Y-98115416D01*
X144097030Y-97930478D01*
X144326390Y-97715094D01*
X144526947Y-97472663D01*
X144695537Y-97207007D01*
X144829503Y-96922315D01*
X144926731Y-96623079D01*
X144985688Y-96314015D01*
X144985688Y-96314012D01*
X144985689Y-96314008D01*
X145005444Y-96000006D01*
X145005444Y-95999993D01*
X144985689Y-95685991D01*
X144985687Y-95685980D01*
X144926732Y-95376926D01*
X144926731Y-95376921D01*
X144829501Y-95077679D01*
X144829498Y-95077673D01*
X144695541Y-94793000D01*
X144695532Y-94792984D01*
X144526952Y-94527344D01*
X144526944Y-94527333D01*
X144462614Y-94449573D01*
X144326390Y-94284906D01*
X144097030Y-94069522D01*
X143868791Y-93903697D01*
X143766940Y-93804713D01*
X143697099Y-93681041D01*
X143664929Y-93542702D01*
X143673038Y-93400903D01*
X143720767Y-93267133D01*
X143804250Y-93152228D01*
X143868788Y-93096304D01*
X144097030Y-92930478D01*
X144326390Y-92715094D01*
X144526947Y-92472663D01*
X144695537Y-92207007D01*
X144829503Y-91922315D01*
X144926731Y-91623079D01*
X144985688Y-91314015D01*
X144985688Y-91314012D01*
X144985689Y-91314008D01*
X145005444Y-91000006D01*
X145005444Y-90999993D01*
X144985689Y-90685991D01*
X144985687Y-90685980D01*
X144926732Y-90376926D01*
X144926731Y-90376921D01*
X144829501Y-90077679D01*
X144829498Y-90077673D01*
X144695541Y-89793000D01*
X144695532Y-89792984D01*
X144526952Y-89527344D01*
X144526944Y-89527333D01*
X144462614Y-89449573D01*
X144326390Y-89284906D01*
X144097030Y-89069522D01*
X143842484Y-88884584D01*
X143842482Y-88884583D01*
X143842481Y-88884582D01*
X143842475Y-88884579D01*
X143566762Y-88733004D01*
X143274225Y-88617181D01*
X143274221Y-88617180D01*
X142969473Y-88538934D01*
X142969470Y-88538933D01*
X142969468Y-88538933D01*
X142657330Y-88499501D01*
X142657321Y-88499500D01*
X142657318Y-88499500D01*
X142342682Y-88499500D01*
X142342679Y-88499500D01*
X142342669Y-88499501D01*
X142030531Y-88538933D01*
X141725778Y-88617180D01*
X141725774Y-88617181D01*
X141433237Y-88733004D01*
X141157524Y-88884579D01*
X141157518Y-88884582D01*
X140902966Y-89069525D01*
X140673608Y-89284908D01*
X140473055Y-89527333D01*
X140473047Y-89527344D01*
X140304467Y-89792984D01*
X140304458Y-89793000D01*
X140170501Y-90077673D01*
X140170498Y-90077679D01*
X140073268Y-90376921D01*
X140073267Y-90376926D01*
X140014312Y-90685980D01*
X140014310Y-90685991D01*
X139994556Y-90999993D01*
X139994556Y-91000006D01*
X140014310Y-91314008D01*
X140014312Y-91314019D01*
X140073267Y-91623073D01*
X140073268Y-91623078D01*
X140170498Y-91922320D01*
X140170501Y-91922326D01*
X140304458Y-92206999D01*
X140304467Y-92207015D01*
X140473047Y-92472655D01*
X140473053Y-92472663D01*
X140673610Y-92715094D01*
X140902970Y-92930478D01*
X141095927Y-93070669D01*
X141131206Y-93096301D01*
X141233060Y-93195287D01*
X141302900Y-93318960D01*
X141335070Y-93457299D01*
X141326961Y-93599098D01*
X141279232Y-93732868D01*
X141195748Y-93847772D01*
X141131206Y-93903699D01*
X140902970Y-94069522D01*
X140902968Y-94069524D01*
X140673608Y-94284908D01*
X140473055Y-94527333D01*
X140473047Y-94527344D01*
X140304467Y-94792984D01*
X140304458Y-94793000D01*
X140170501Y-95077673D01*
X140170498Y-95077679D01*
X140073268Y-95376921D01*
X140073267Y-95376926D01*
X140014312Y-95685980D01*
X140014310Y-95685991D01*
X139994556Y-95999993D01*
X139994556Y-96000006D01*
X137500000Y-96000006D01*
X137500000Y-87499000D01*
X137520213Y-87358415D01*
X137579214Y-87229220D01*
X137672224Y-87121881D01*
X137791708Y-87045094D01*
X137927985Y-87005079D01*
X137999000Y-87000000D01*
X147001000Y-87000000D01*
X147141585Y-87020213D01*
G37*
G04 #@! TD.AperFunction*
G04 #@! TA.AperFunction,NonConductor*
G36*
X97443039Y-111019685D02*
G01*
X97488794Y-111072489D01*
X97500000Y-111124000D01*
X97500000Y-124876000D01*
X97480315Y-124943039D01*
X97427511Y-124988794D01*
X97376000Y-125000000D01*
X87624000Y-125000000D01*
X87556961Y-124980315D01*
X87511206Y-124927511D01*
X87500000Y-124876000D01*
X87500000Y-120000000D01*
X90294778Y-120000000D01*
X90313644Y-120287837D01*
X90313646Y-120287849D01*
X90369917Y-120570745D01*
X90369921Y-120570760D01*
X90462642Y-120843905D01*
X90590219Y-121102606D01*
X90590223Y-121102613D01*
X90750478Y-121342452D01*
X90940672Y-121559327D01*
X91157546Y-121749520D01*
X91397389Y-121909778D01*
X91656098Y-122037359D01*
X91929247Y-122130081D01*
X92212161Y-122186356D01*
X92500000Y-122205222D01*
X92787839Y-122186356D01*
X93070753Y-122130081D01*
X93343902Y-122037359D01*
X93602611Y-121909778D01*
X93842454Y-121749520D01*
X94059327Y-121559327D01*
X94249520Y-121342454D01*
X94409778Y-121102611D01*
X94537359Y-120843902D01*
X94630081Y-120570753D01*
X94686356Y-120287839D01*
X94705222Y-120000000D01*
X94686356Y-119712161D01*
X94630081Y-119429247D01*
X94537359Y-119156098D01*
X94409778Y-118897389D01*
X94249520Y-118657546D01*
X94059327Y-118440672D01*
X93842452Y-118250478D01*
X93602613Y-118090223D01*
X93602606Y-118090219D01*
X93343905Y-117962642D01*
X93070760Y-117869921D01*
X93070754Y-117869919D01*
X93070753Y-117869919D01*
X93070751Y-117869918D01*
X93070745Y-117869917D01*
X92787849Y-117813646D01*
X92787839Y-117813644D01*
X92500000Y-117794778D01*
X92212161Y-117813644D01*
X92212155Y-117813645D01*
X92212150Y-117813646D01*
X91929254Y-117869917D01*
X91929239Y-117869921D01*
X91656094Y-117962642D01*
X91397393Y-118090219D01*
X91397386Y-118090223D01*
X91157547Y-118250478D01*
X90940672Y-118440672D01*
X90750478Y-118657547D01*
X90590223Y-118897386D01*
X90590219Y-118897393D01*
X90462642Y-119156094D01*
X90369921Y-119429239D01*
X90369917Y-119429254D01*
X90313646Y-119712150D01*
X90313644Y-119712162D01*
X90294778Y-120000000D01*
X87500000Y-120000000D01*
X87500000Y-115000000D01*
X90294778Y-115000000D01*
X90313644Y-115287837D01*
X90313646Y-115287849D01*
X90369917Y-115570745D01*
X90369921Y-115570760D01*
X90462642Y-115843905D01*
X90590219Y-116102606D01*
X90590223Y-116102613D01*
X90750478Y-116342452D01*
X90940672Y-116559327D01*
X91157546Y-116749520D01*
X91397389Y-116909778D01*
X91656098Y-117037359D01*
X91929247Y-117130081D01*
X92212161Y-117186356D01*
X92500000Y-117205222D01*
X92787839Y-117186356D01*
X93070753Y-117130081D01*
X93343902Y-117037359D01*
X93602611Y-116909778D01*
X93842454Y-116749520D01*
X94059327Y-116559327D01*
X94249520Y-116342454D01*
X94409778Y-116102611D01*
X94537359Y-115843902D01*
X94630081Y-115570753D01*
X94686356Y-115287839D01*
X94705222Y-115000000D01*
X94686356Y-114712161D01*
X94630081Y-114429247D01*
X94537359Y-114156098D01*
X94409778Y-113897389D01*
X94249520Y-113657546D01*
X94059327Y-113440672D01*
X93842452Y-113250478D01*
X93602613Y-113090223D01*
X93602606Y-113090219D01*
X93343905Y-112962642D01*
X93070760Y-112869921D01*
X93070754Y-112869919D01*
X93070753Y-112869919D01*
X93070751Y-112869918D01*
X93070745Y-112869917D01*
X92787849Y-112813646D01*
X92787839Y-112813644D01*
X92500000Y-112794778D01*
X92212161Y-112813644D01*
X92212155Y-112813645D01*
X92212150Y-112813646D01*
X91929254Y-112869917D01*
X91929239Y-112869921D01*
X91656094Y-112962642D01*
X91397393Y-113090219D01*
X91397386Y-113090223D01*
X91157547Y-113250478D01*
X90940672Y-113440672D01*
X90750478Y-113657547D01*
X90590223Y-113897386D01*
X90590219Y-113897393D01*
X90462642Y-114156094D01*
X90369921Y-114429239D01*
X90369917Y-114429254D01*
X90313646Y-114712150D01*
X90313644Y-114712162D01*
X90294778Y-115000000D01*
X87500000Y-115000000D01*
X87500000Y-111124000D01*
X87519685Y-111056961D01*
X87572489Y-111011206D01*
X87624000Y-111000000D01*
X97376000Y-111000000D01*
X97443039Y-111019685D01*
G37*
G04 #@! TD.AperFunction*
G04 #@! TA.AperFunction,NonConductor*
G36*
X120502208Y-63000157D02*
G01*
X120775790Y-63019724D01*
X120793291Y-63022241D01*
X121054803Y-63079129D01*
X121071762Y-63084108D01*
X121322524Y-63177638D01*
X121338616Y-63184987D01*
X121573501Y-63313244D01*
X121588375Y-63322802D01*
X121802624Y-63483188D01*
X121815994Y-63494774D01*
X122005225Y-63684005D01*
X122016811Y-63697375D01*
X122177193Y-63911619D01*
X122186758Y-63926503D01*
X122315011Y-64161382D01*
X122322361Y-64177475D01*
X122415888Y-64428229D01*
X122420872Y-64445205D01*
X122477757Y-64706702D01*
X122480275Y-64724214D01*
X122499842Y-64997789D01*
X122500000Y-65002213D01*
X122500000Y-74997786D01*
X122499842Y-75002210D01*
X122480275Y-75275785D01*
X122477757Y-75293297D01*
X122420872Y-75554794D01*
X122415888Y-75571770D01*
X122322361Y-75822524D01*
X122315011Y-75838617D01*
X122186758Y-76073496D01*
X122177193Y-76088380D01*
X122016811Y-76302624D01*
X122005225Y-76315994D01*
X121815994Y-76505225D01*
X121802624Y-76516811D01*
X121588380Y-76677193D01*
X121573496Y-76686758D01*
X121338617Y-76815011D01*
X121322524Y-76822361D01*
X121071770Y-76915888D01*
X121054794Y-76920872D01*
X120793297Y-76977757D01*
X120775785Y-76980275D01*
X120527448Y-76998036D01*
X120502208Y-76999842D01*
X120497786Y-77000000D01*
X114502214Y-77000000D01*
X114497791Y-76999842D01*
X114469503Y-76997818D01*
X114224214Y-76980275D01*
X114206702Y-76977757D01*
X113945205Y-76920872D01*
X113928229Y-76915888D01*
X113677475Y-76822361D01*
X113661382Y-76815011D01*
X113426503Y-76686758D01*
X113411619Y-76677193D01*
X113197375Y-76516811D01*
X113184005Y-76505225D01*
X112994774Y-76315994D01*
X112983188Y-76302624D01*
X112822802Y-76088375D01*
X112813244Y-76073501D01*
X112684987Y-75838616D01*
X112677638Y-75822524D01*
X112584108Y-75571762D01*
X112579129Y-75554803D01*
X112522241Y-75293291D01*
X112519724Y-75275785D01*
X112500158Y-75002210D01*
X112500000Y-74997786D01*
X112500000Y-72000005D01*
X114994556Y-72000005D01*
X115014310Y-72314004D01*
X115014311Y-72314011D01*
X115073270Y-72623083D01*
X115170497Y-72922316D01*
X115170499Y-72922321D01*
X115304461Y-73207003D01*
X115304464Y-73207009D01*
X115473051Y-73472661D01*
X115473054Y-73472665D01*
X115673606Y-73715090D01*
X115673608Y-73715092D01*
X115902968Y-73930476D01*
X115902978Y-73930484D01*
X116157504Y-74115408D01*
X116157509Y-74115410D01*
X116157516Y-74115416D01*
X116433234Y-74266994D01*
X116433239Y-74266996D01*
X116433241Y-74266997D01*
X116433242Y-74266998D01*
X116725771Y-74382818D01*
X116725774Y-74382819D01*
X117030523Y-74461065D01*
X117030527Y-74461066D01*
X117096010Y-74469338D01*
X117342670Y-74500499D01*
X117342679Y-74500499D01*
X117342682Y-74500500D01*
X117342684Y-74500500D01*
X117657316Y-74500500D01*
X117657318Y-74500500D01*
X117657321Y-74500499D01*
X117657329Y-74500499D01*
X117843593Y-74476968D01*
X117969473Y-74461066D01*
X118274225Y-74382819D01*
X118274228Y-74382818D01*
X118566757Y-74266998D01*
X118566758Y-74266997D01*
X118566756Y-74266997D01*
X118566766Y-74266994D01*
X118842484Y-74115416D01*
X119097030Y-73930478D01*
X119326390Y-73715094D01*
X119526947Y-73472663D01*
X119695537Y-73207007D01*
X119829503Y-72922315D01*
X119926731Y-72623079D01*
X119985688Y-72314015D01*
X120005444Y-72000000D01*
X119985688Y-71685985D01*
X119926731Y-71376921D01*
X119829503Y-71077685D01*
X119695537Y-70792993D01*
X119526947Y-70527337D01*
X119526945Y-70527334D01*
X119326393Y-70284909D01*
X119326391Y-70284907D01*
X119097031Y-70069523D01*
X119097021Y-70069515D01*
X118842495Y-69884591D01*
X118842488Y-69884586D01*
X118842484Y-69884584D01*
X118566766Y-69733006D01*
X118566763Y-69733004D01*
X118566758Y-69733002D01*
X118566757Y-69733001D01*
X118270602Y-69615746D01*
X118271186Y-69614269D01*
X118218870Y-69578508D01*
X118191661Y-69514154D01*
X118203565Y-69445306D01*
X118250801Y-69393823D01*
X118270778Y-69384699D01*
X118270602Y-69384254D01*
X118566757Y-69266998D01*
X118566758Y-69266997D01*
X118566756Y-69266997D01*
X118566766Y-69266994D01*
X118842484Y-69115416D01*
X119097030Y-68930478D01*
X119326390Y-68715094D01*
X119526947Y-68472663D01*
X119695537Y-68207007D01*
X119829503Y-67922315D01*
X119926731Y-67623079D01*
X119985688Y-67314015D01*
X120005444Y-67000000D01*
X119985688Y-66685985D01*
X119926731Y-66376921D01*
X119829503Y-66077685D01*
X119695537Y-65792993D01*
X119526947Y-65527337D01*
X119526945Y-65527334D01*
X119326393Y-65284909D01*
X119326391Y-65284907D01*
X119097031Y-65069523D01*
X119097021Y-65069515D01*
X118842495Y-64884591D01*
X118842488Y-64884586D01*
X118842484Y-64884584D01*
X118566766Y-64733006D01*
X118566763Y-64733004D01*
X118566758Y-64733002D01*
X118566757Y-64733001D01*
X118274228Y-64617181D01*
X118274225Y-64617180D01*
X117969476Y-64538934D01*
X117969463Y-64538932D01*
X117657329Y-64499500D01*
X117657318Y-64499500D01*
X117342682Y-64499500D01*
X117342670Y-64499500D01*
X117030536Y-64538932D01*
X117030523Y-64538934D01*
X116725774Y-64617180D01*
X116725771Y-64617181D01*
X116433242Y-64733001D01*
X116433241Y-64733002D01*
X116157516Y-64884584D01*
X116157504Y-64884591D01*
X115902978Y-65069515D01*
X115902968Y-65069523D01*
X115673608Y-65284907D01*
X115673606Y-65284909D01*
X115473054Y-65527334D01*
X115473051Y-65527338D01*
X115304464Y-65792990D01*
X115304461Y-65792996D01*
X115170499Y-66077678D01*
X115170497Y-66077683D01*
X115073270Y-66376916D01*
X115014311Y-66685988D01*
X115014310Y-66685995D01*
X114994556Y-66999994D01*
X114994556Y-67000005D01*
X115014310Y-67314004D01*
X115014311Y-67314011D01*
X115073270Y-67623083D01*
X115170497Y-67922316D01*
X115170499Y-67922321D01*
X115304461Y-68207003D01*
X115304464Y-68207009D01*
X115473051Y-68472661D01*
X115473054Y-68472665D01*
X115673606Y-68715090D01*
X115673608Y-68715092D01*
X115902968Y-68930476D01*
X115902978Y-68930484D01*
X116157504Y-69115408D01*
X116157509Y-69115410D01*
X116157516Y-69115416D01*
X116433234Y-69266994D01*
X116433239Y-69266996D01*
X116433241Y-69266997D01*
X116433242Y-69266998D01*
X116729398Y-69384254D01*
X116728815Y-69385724D01*
X116781146Y-69421512D01*
X116808341Y-69485872D01*
X116796422Y-69554718D01*
X116749175Y-69606191D01*
X116729222Y-69615303D01*
X116729398Y-69615746D01*
X116433242Y-69733001D01*
X116433241Y-69733002D01*
X116157516Y-69884584D01*
X116157504Y-69884591D01*
X115902978Y-70069515D01*
X115902968Y-70069523D01*
X115673608Y-70284907D01*
X115673606Y-70284909D01*
X115473054Y-70527334D01*
X115473051Y-70527338D01*
X115304464Y-70792990D01*
X115304461Y-70792996D01*
X115170499Y-71077678D01*
X115170497Y-71077683D01*
X115073270Y-71376916D01*
X115014311Y-71685988D01*
X115014310Y-71685995D01*
X114994556Y-71999994D01*
X114994556Y-72000005D01*
X112500000Y-72000005D01*
X112500000Y-65002213D01*
X112500158Y-64997789D01*
X112508254Y-64884591D01*
X112519724Y-64724207D01*
X112522240Y-64706710D01*
X112579130Y-64445192D01*
X112584107Y-64428241D01*
X112677640Y-64177470D01*
X112684985Y-64161388D01*
X112813248Y-63926491D01*
X112822798Y-63911630D01*
X112983195Y-63697366D01*
X112994767Y-63684012D01*
X113184012Y-63494767D01*
X113197366Y-63483195D01*
X113411630Y-63322798D01*
X113426491Y-63313248D01*
X113661388Y-63184985D01*
X113677470Y-63177640D01*
X113928241Y-63084107D01*
X113945192Y-63079130D01*
X114206710Y-63022240D01*
X114224207Y-63019724D01*
X114497791Y-63000157D01*
X114502214Y-63000000D01*
X120497786Y-63000000D01*
X120502208Y-63000157D01*
G37*
G04 #@! TD.AperFunction*
G04 #@! TA.AperFunction,NonConductor*
G36*
X109973566Y-87017313D02*
G01*
X109998876Y-87061150D01*
X110000000Y-87074000D01*
X110000000Y-100926000D01*
X109982687Y-100973566D01*
X109938850Y-100998876D01*
X109926000Y-101000000D01*
X100074000Y-101000000D01*
X100026434Y-100982687D01*
X100001124Y-100938850D01*
X100000000Y-100926000D01*
X100000000Y-96000000D01*
X102494556Y-96000000D01*
X102514311Y-96314005D01*
X102514314Y-96314028D01*
X102573268Y-96623076D01*
X102573272Y-96623092D01*
X102670492Y-96922304D01*
X102670494Y-96922308D01*
X102804463Y-97207008D01*
X102973052Y-97472662D01*
X103173606Y-97715090D01*
X103173609Y-97715092D01*
X103173610Y-97715094D01*
X103402970Y-97930478D01*
X103657516Y-98115416D01*
X103933234Y-98266994D01*
X104016817Y-98300086D01*
X104225760Y-98382814D01*
X104225772Y-98382817D01*
X104225775Y-98382819D01*
X104225778Y-98382819D01*
X104225782Y-98382821D01*
X104291085Y-98399587D01*
X104530527Y-98461066D01*
X104842682Y-98500500D01*
X104842683Y-98500500D01*
X105157317Y-98500500D01*
X105157318Y-98500500D01*
X105469473Y-98461066D01*
X105774225Y-98382819D01*
X105774232Y-98382816D01*
X105774239Y-98382814D01*
X105895073Y-98334971D01*
X106066766Y-98266994D01*
X106342484Y-98115416D01*
X106597030Y-97930478D01*
X106826390Y-97715094D01*
X107026947Y-97472663D01*
X107195537Y-97207007D01*
X107329503Y-96922315D01*
X107426731Y-96623079D01*
X107485688Y-96314015D01*
X107505444Y-96000000D01*
X107485688Y-95685985D01*
X107426731Y-95376921D01*
X107426728Y-95376914D01*
X107426727Y-95376907D01*
X107329507Y-95077695D01*
X107329505Y-95077691D01*
X107329504Y-95077690D01*
X107329503Y-95077685D01*
X107195537Y-94792993D01*
X107026947Y-94527337D01*
X106826393Y-94284909D01*
X106826390Y-94284906D01*
X106597030Y-94069522D01*
X106490812Y-93992350D01*
X106342489Y-93884587D01*
X106066766Y-93733006D01*
X106066759Y-93733003D01*
X105774239Y-93617185D01*
X105774217Y-93617178D01*
X105596993Y-93571675D01*
X105555227Y-93543077D01*
X105541614Y-93494323D01*
X105562525Y-93448225D01*
X105596993Y-93428325D01*
X105774217Y-93382821D01*
X105774216Y-93382821D01*
X105774225Y-93382819D01*
X105774232Y-93382816D01*
X105774239Y-93382814D01*
X105895073Y-93334971D01*
X106066766Y-93266994D01*
X106342484Y-93115416D01*
X106597030Y-92930478D01*
X106826390Y-92715094D01*
X107026947Y-92472663D01*
X107195537Y-92207007D01*
X107329503Y-91922315D01*
X107426731Y-91623079D01*
X107485688Y-91314015D01*
X107505444Y-91000000D01*
X107485688Y-90685985D01*
X107426731Y-90376921D01*
X107426728Y-90376914D01*
X107426727Y-90376907D01*
X107329507Y-90077695D01*
X107329505Y-90077691D01*
X107329504Y-90077690D01*
X107329503Y-90077685D01*
X107195537Y-89792993D01*
X107026947Y-89527337D01*
X106826393Y-89284909D01*
X106826390Y-89284906D01*
X106597030Y-89069522D01*
X106490812Y-88992350D01*
X106342489Y-88884587D01*
X106066766Y-88733006D01*
X106066759Y-88733003D01*
X105774239Y-88617185D01*
X105774217Y-88617178D01*
X105469473Y-88538934D01*
X105469462Y-88538932D01*
X105157325Y-88499500D01*
X105157318Y-88499500D01*
X104842682Y-88499500D01*
X104842674Y-88499500D01*
X104530537Y-88538932D01*
X104530526Y-88538934D01*
X104225782Y-88617178D01*
X104225760Y-88617185D01*
X103933240Y-88733003D01*
X103933233Y-88733006D01*
X103657510Y-88884587D01*
X103402971Y-89069521D01*
X103173606Y-89284909D01*
X102973052Y-89527337D01*
X102804463Y-89792991D01*
X102670494Y-90077691D01*
X102670492Y-90077695D01*
X102573272Y-90376907D01*
X102573268Y-90376923D01*
X102514314Y-90685971D01*
X102514311Y-90685994D01*
X102494556Y-90999999D01*
X102494556Y-91000000D01*
X102514311Y-91314005D01*
X102514314Y-91314028D01*
X102573268Y-91623076D01*
X102573272Y-91623092D01*
X102670492Y-91922304D01*
X102670494Y-91922308D01*
X102804463Y-92207008D01*
X102973052Y-92472662D01*
X103173606Y-92715090D01*
X103173609Y-92715092D01*
X103173610Y-92715094D01*
X103402970Y-92930478D01*
X103657516Y-93115416D01*
X103933234Y-93266994D01*
X104016817Y-93300086D01*
X104225760Y-93382814D01*
X104225772Y-93382817D01*
X104225775Y-93382819D01*
X104225778Y-93382819D01*
X104225782Y-93382821D01*
X104403008Y-93428325D01*
X104444774Y-93456923D01*
X104458387Y-93505677D01*
X104437476Y-93551775D01*
X104403008Y-93571675D01*
X104225782Y-93617178D01*
X104225760Y-93617185D01*
X103933240Y-93733003D01*
X103933233Y-93733006D01*
X103657510Y-93884587D01*
X103402971Y-94069521D01*
X103173606Y-94284909D01*
X102973052Y-94527337D01*
X102804463Y-94792991D01*
X102670494Y-95077691D01*
X102670492Y-95077695D01*
X102573272Y-95376907D01*
X102573268Y-95376923D01*
X102514314Y-95685971D01*
X102514311Y-95685994D01*
X102494556Y-95999999D01*
X102494556Y-96000000D01*
X100000000Y-96000000D01*
X100000000Y-87074000D01*
X100017313Y-87026434D01*
X100061150Y-87001124D01*
X100074000Y-87000000D01*
X109926000Y-87000000D01*
X109973566Y-87017313D01*
G37*
G04 #@! TD.AperFunction*
G04 #@! TA.AperFunction,NonConductor*
G36*
X109943039Y-111019685D02*
G01*
X109988794Y-111072489D01*
X110000000Y-111124000D01*
X110000000Y-124876000D01*
X109980315Y-124943039D01*
X109927511Y-124988794D01*
X109876000Y-125000000D01*
X100124000Y-125000000D01*
X100056961Y-124980315D01*
X100011206Y-124927511D01*
X100000000Y-124876000D01*
X100000000Y-120000000D01*
X102694564Y-120000000D01*
X102714287Y-120300918D01*
X102714288Y-120300930D01*
X102773118Y-120596683D01*
X102773122Y-120596698D01*
X102870053Y-120882247D01*
X102870062Y-120882268D01*
X103003431Y-121152713D01*
X103003435Y-121152720D01*
X103170973Y-121403459D01*
X103369810Y-121630189D01*
X103596540Y-121829026D01*
X103847279Y-121996564D01*
X103847286Y-121996568D01*
X104117731Y-122129937D01*
X104117736Y-122129939D01*
X104117748Y-122129945D01*
X104403309Y-122226880D01*
X104603251Y-122266651D01*
X104699069Y-122285711D01*
X104699070Y-122285711D01*
X104699080Y-122285713D01*
X105000000Y-122305436D01*
X105300920Y-122285713D01*
X105596691Y-122226880D01*
X105882252Y-122129945D01*
X106152718Y-121996566D01*
X106403461Y-121829025D01*
X106630189Y-121630189D01*
X106829025Y-121403461D01*
X106996566Y-121152718D01*
X107129945Y-120882252D01*
X107226880Y-120596691D01*
X107285713Y-120300920D01*
X107305436Y-120000000D01*
X107285713Y-119699080D01*
X107226880Y-119403309D01*
X107129945Y-119117748D01*
X106996566Y-118847282D01*
X106829025Y-118596539D01*
X106630189Y-118369810D01*
X106403459Y-118170973D01*
X106152720Y-118003435D01*
X106152713Y-118003431D01*
X105882268Y-117870062D01*
X105882247Y-117870053D01*
X105596698Y-117773122D01*
X105596692Y-117773120D01*
X105596691Y-117773120D01*
X105596689Y-117773119D01*
X105596683Y-117773118D01*
X105300930Y-117714288D01*
X105300921Y-117714287D01*
X105300920Y-117714287D01*
X105000000Y-117694564D01*
X104699080Y-117714287D01*
X104699079Y-117714287D01*
X104699069Y-117714288D01*
X104403316Y-117773118D01*
X104403301Y-117773122D01*
X104117752Y-117870053D01*
X104117731Y-117870062D01*
X103847286Y-118003431D01*
X103847279Y-118003435D01*
X103596540Y-118170973D01*
X103369810Y-118369810D01*
X103170973Y-118596540D01*
X103003435Y-118847279D01*
X103003431Y-118847286D01*
X102870062Y-119117731D01*
X102870053Y-119117752D01*
X102773122Y-119403301D01*
X102773118Y-119403316D01*
X102714288Y-119699069D01*
X102714287Y-119699081D01*
X102694564Y-120000000D01*
X100000000Y-120000000D01*
X100000000Y-115000000D01*
X102694564Y-115000000D01*
X102714287Y-115300918D01*
X102714288Y-115300930D01*
X102773118Y-115596683D01*
X102773122Y-115596698D01*
X102870053Y-115882247D01*
X102870062Y-115882268D01*
X103003431Y-116152713D01*
X103003435Y-116152720D01*
X103170973Y-116403459D01*
X103369810Y-116630189D01*
X103596540Y-116829026D01*
X103847279Y-116996564D01*
X103847286Y-116996568D01*
X104117731Y-117129937D01*
X104117736Y-117129939D01*
X104117748Y-117129945D01*
X104403309Y-117226880D01*
X104603251Y-117266651D01*
X104699069Y-117285711D01*
X104699070Y-117285711D01*
X104699080Y-117285713D01*
X105000000Y-117305436D01*
X105300920Y-117285713D01*
X105596691Y-117226880D01*
X105882252Y-117129945D01*
X106152718Y-116996566D01*
X106403461Y-116829025D01*
X106630189Y-116630189D01*
X106829025Y-116403461D01*
X106996566Y-116152718D01*
X107129945Y-115882252D01*
X107226880Y-115596691D01*
X107285713Y-115300920D01*
X107305436Y-115000000D01*
X107285713Y-114699080D01*
X107226880Y-114403309D01*
X107129945Y-114117748D01*
X106996566Y-113847282D01*
X106829025Y-113596539D01*
X106630189Y-113369810D01*
X106403459Y-113170973D01*
X106152720Y-113003435D01*
X106152713Y-113003431D01*
X105882268Y-112870062D01*
X105882247Y-112870053D01*
X105596698Y-112773122D01*
X105596692Y-112773120D01*
X105596691Y-112773120D01*
X105596689Y-112773119D01*
X105596683Y-112773118D01*
X105300930Y-112714288D01*
X105300921Y-112714287D01*
X105300920Y-112714287D01*
X105000000Y-112694564D01*
X104699080Y-112714287D01*
X104699079Y-112714287D01*
X104699069Y-112714288D01*
X104403316Y-112773118D01*
X104403301Y-112773122D01*
X104117752Y-112870053D01*
X104117731Y-112870062D01*
X103847286Y-113003431D01*
X103847279Y-113003435D01*
X103596540Y-113170973D01*
X103369810Y-113369810D01*
X103170973Y-113596540D01*
X103003435Y-113847279D01*
X103003431Y-113847286D01*
X102870062Y-114117731D01*
X102870053Y-114117752D01*
X102773122Y-114403301D01*
X102773118Y-114403316D01*
X102714288Y-114699069D01*
X102714287Y-114699081D01*
X102694564Y-115000000D01*
X100000000Y-115000000D01*
X100000000Y-111124000D01*
X100019685Y-111056961D01*
X100072489Y-111011206D01*
X100124000Y-111000000D01*
X109876000Y-111000000D01*
X109943039Y-111019685D01*
G37*
G04 #@! TD.AperFunction*
G04 #@! TA.AperFunction,NonConductor*
G36*
X122443039Y-87019685D02*
G01*
X122488794Y-87072489D01*
X122500000Y-87124000D01*
X122500000Y-100876000D01*
X122480315Y-100943039D01*
X122427511Y-100988794D01*
X122376000Y-101000000D01*
X112624000Y-101000000D01*
X112556961Y-100980315D01*
X112511206Y-100927511D01*
X112500000Y-100876000D01*
X112500000Y-96000005D01*
X114994556Y-96000005D01*
X115014310Y-96314004D01*
X115014311Y-96314011D01*
X115073270Y-96623083D01*
X115170497Y-96922316D01*
X115170499Y-96922321D01*
X115304461Y-97207003D01*
X115304464Y-97207009D01*
X115473051Y-97472661D01*
X115473054Y-97472665D01*
X115673606Y-97715090D01*
X115673608Y-97715092D01*
X115902968Y-97930476D01*
X115902978Y-97930484D01*
X116157504Y-98115408D01*
X116157509Y-98115410D01*
X116157516Y-98115416D01*
X116433234Y-98266994D01*
X116433239Y-98266996D01*
X116433241Y-98266997D01*
X116433242Y-98266998D01*
X116725771Y-98382818D01*
X116725774Y-98382819D01*
X117030523Y-98461065D01*
X117030527Y-98461066D01*
X117096010Y-98469338D01*
X117342670Y-98500499D01*
X117342679Y-98500499D01*
X117342682Y-98500500D01*
X117342684Y-98500500D01*
X117657316Y-98500500D01*
X117657318Y-98500500D01*
X117657321Y-98500499D01*
X117657329Y-98500499D01*
X117843593Y-98476968D01*
X117969473Y-98461066D01*
X118274225Y-98382819D01*
X118274228Y-98382818D01*
X118566757Y-98266998D01*
X118566758Y-98266997D01*
X118566756Y-98266997D01*
X118566766Y-98266994D01*
X118842484Y-98115416D01*
X119097030Y-97930478D01*
X119326390Y-97715094D01*
X119526947Y-97472663D01*
X119695537Y-97207007D01*
X119829503Y-96922315D01*
X119926731Y-96623079D01*
X119985688Y-96314015D01*
X120005444Y-96000000D01*
X119985688Y-95685985D01*
X119926731Y-95376921D01*
X119829503Y-95077685D01*
X119695537Y-94792993D01*
X119526947Y-94527337D01*
X119526945Y-94527334D01*
X119326393Y-94284909D01*
X119326391Y-94284907D01*
X119097031Y-94069523D01*
X119097021Y-94069515D01*
X118842495Y-93884591D01*
X118842488Y-93884586D01*
X118842484Y-93884584D01*
X118566766Y-93733006D01*
X118566763Y-93733004D01*
X118566758Y-93733002D01*
X118566757Y-93733001D01*
X118270602Y-93615746D01*
X118271186Y-93614269D01*
X118218870Y-93578508D01*
X118191661Y-93514154D01*
X118203565Y-93445306D01*
X118250801Y-93393823D01*
X118270778Y-93384699D01*
X118270602Y-93384254D01*
X118566757Y-93266998D01*
X118566758Y-93266997D01*
X118566756Y-93266997D01*
X118566766Y-93266994D01*
X118842484Y-93115416D01*
X119097030Y-92930478D01*
X119326390Y-92715094D01*
X119526947Y-92472663D01*
X119695537Y-92207007D01*
X119829503Y-91922315D01*
X119926731Y-91623079D01*
X119985688Y-91314015D01*
X120005444Y-91000000D01*
X119985688Y-90685985D01*
X119926731Y-90376921D01*
X119829503Y-90077685D01*
X119695537Y-89792993D01*
X119526947Y-89527337D01*
X119526945Y-89527334D01*
X119326393Y-89284909D01*
X119326391Y-89284907D01*
X119097031Y-89069523D01*
X119097021Y-89069515D01*
X118842495Y-88884591D01*
X118842488Y-88884586D01*
X118842484Y-88884584D01*
X118566766Y-88733006D01*
X118566763Y-88733004D01*
X118566758Y-88733002D01*
X118566757Y-88733001D01*
X118274228Y-88617181D01*
X118274225Y-88617180D01*
X117969476Y-88538934D01*
X117969463Y-88538932D01*
X117657329Y-88499500D01*
X117657318Y-88499500D01*
X117342682Y-88499500D01*
X117342670Y-88499500D01*
X117030536Y-88538932D01*
X117030523Y-88538934D01*
X116725774Y-88617180D01*
X116725771Y-88617181D01*
X116433242Y-88733001D01*
X116433241Y-88733002D01*
X116157516Y-88884584D01*
X116157504Y-88884591D01*
X115902978Y-89069515D01*
X115902968Y-89069523D01*
X115673608Y-89284907D01*
X115673606Y-89284909D01*
X115473054Y-89527334D01*
X115473051Y-89527338D01*
X115304464Y-89792990D01*
X115304461Y-89792996D01*
X115170499Y-90077678D01*
X115170497Y-90077683D01*
X115073270Y-90376916D01*
X115014311Y-90685988D01*
X115014310Y-90685995D01*
X114994556Y-90999994D01*
X114994556Y-91000005D01*
X115014310Y-91314004D01*
X115014311Y-91314011D01*
X115073270Y-91623083D01*
X115170497Y-91922316D01*
X115170499Y-91922321D01*
X115304461Y-92207003D01*
X115304464Y-92207009D01*
X115473051Y-92472661D01*
X115473054Y-92472665D01*
X115673606Y-92715090D01*
X115673608Y-92715092D01*
X115902968Y-92930476D01*
X115902978Y-92930484D01*
X116157504Y-93115408D01*
X116157509Y-93115410D01*
X116157516Y-93115416D01*
X116433234Y-93266994D01*
X116433239Y-93266996D01*
X116433241Y-93266997D01*
X116433242Y-93266998D01*
X116729398Y-93384254D01*
X116728815Y-93385724D01*
X116781146Y-93421512D01*
X116808341Y-93485872D01*
X116796422Y-93554718D01*
X116749175Y-93606191D01*
X116729222Y-93615303D01*
X116729398Y-93615746D01*
X116433242Y-93733001D01*
X116433241Y-93733002D01*
X116157516Y-93884584D01*
X116157504Y-93884591D01*
X115902978Y-94069515D01*
X115902968Y-94069523D01*
X115673608Y-94284907D01*
X115673606Y-94284909D01*
X115473054Y-94527334D01*
X115473051Y-94527338D01*
X115304464Y-94792990D01*
X115304461Y-94792996D01*
X115170499Y-95077678D01*
X115170497Y-95077683D01*
X115073270Y-95376916D01*
X115014311Y-95685988D01*
X115014310Y-95685995D01*
X114994556Y-95999994D01*
X114994556Y-96000005D01*
X112500000Y-96000005D01*
X112500000Y-87124000D01*
X112519685Y-87056961D01*
X112572489Y-87011206D01*
X112624000Y-87000000D01*
X122376000Y-87000000D01*
X122443039Y-87019685D01*
G37*
G04 #@! TD.AperFunction*
G04 #@! TA.AperFunction,NonConductor*
G36*
X146515677Y-63019685D02*
G01*
X146536319Y-63036319D01*
X147463681Y-63963681D01*
X147497166Y-64025004D01*
X147500000Y-64051362D01*
X147500000Y-75948638D01*
X147480315Y-76015677D01*
X147463681Y-76036319D01*
X146536319Y-76963681D01*
X146474996Y-76997166D01*
X146448638Y-77000000D01*
X138551362Y-77000000D01*
X138484323Y-76980315D01*
X138463681Y-76963681D01*
X137536319Y-76036319D01*
X137502834Y-75974996D01*
X137500000Y-75948638D01*
X137500000Y-72000005D01*
X139994556Y-72000005D01*
X140014310Y-72314004D01*
X140014311Y-72314011D01*
X140073270Y-72623083D01*
X140170497Y-72922316D01*
X140170499Y-72922321D01*
X140304461Y-73207003D01*
X140304464Y-73207009D01*
X140473051Y-73472661D01*
X140473054Y-73472665D01*
X140673606Y-73715090D01*
X140673608Y-73715092D01*
X140902968Y-73930476D01*
X140902978Y-73930484D01*
X141157504Y-74115408D01*
X141157509Y-74115410D01*
X141157516Y-74115416D01*
X141433234Y-74266994D01*
X141433239Y-74266996D01*
X141433241Y-74266997D01*
X141433242Y-74266998D01*
X141725771Y-74382818D01*
X141725774Y-74382819D01*
X142030523Y-74461065D01*
X142030527Y-74461066D01*
X142096010Y-74469338D01*
X142342670Y-74500499D01*
X142342679Y-74500499D01*
X142342682Y-74500500D01*
X142342684Y-74500500D01*
X142657316Y-74500500D01*
X142657318Y-74500500D01*
X142657321Y-74500499D01*
X142657329Y-74500499D01*
X142843593Y-74476968D01*
X142969473Y-74461066D01*
X143274225Y-74382819D01*
X143274228Y-74382818D01*
X143566757Y-74266998D01*
X143566758Y-74266997D01*
X143566756Y-74266997D01*
X143566766Y-74266994D01*
X143842484Y-74115416D01*
X144097030Y-73930478D01*
X144326390Y-73715094D01*
X144526947Y-73472663D01*
X144695537Y-73207007D01*
X144829503Y-72922315D01*
X144926731Y-72623079D01*
X144985688Y-72314015D01*
X145005444Y-72000000D01*
X144985688Y-71685985D01*
X144926731Y-71376921D01*
X144829503Y-71077685D01*
X144695537Y-70792993D01*
X144526947Y-70527337D01*
X144526945Y-70527334D01*
X144326393Y-70284909D01*
X144326391Y-70284907D01*
X144097031Y-70069523D01*
X144097021Y-70069515D01*
X143842495Y-69884591D01*
X143842488Y-69884586D01*
X143842484Y-69884584D01*
X143566766Y-69733006D01*
X143566763Y-69733004D01*
X143566758Y-69733002D01*
X143566757Y-69733001D01*
X143270602Y-69615746D01*
X143271186Y-69614269D01*
X143218870Y-69578508D01*
X143191661Y-69514154D01*
X143203565Y-69445306D01*
X143250801Y-69393823D01*
X143270778Y-69384699D01*
X143270602Y-69384254D01*
X143566757Y-69266998D01*
X143566758Y-69266997D01*
X143566756Y-69266997D01*
X143566766Y-69266994D01*
X143842484Y-69115416D01*
X144097030Y-68930478D01*
X144326390Y-68715094D01*
X144526947Y-68472663D01*
X144695537Y-68207007D01*
X144829503Y-67922315D01*
X144926731Y-67623079D01*
X144985688Y-67314015D01*
X145005444Y-67000000D01*
X144985688Y-66685985D01*
X144926731Y-66376921D01*
X144829503Y-66077685D01*
X144695537Y-65792993D01*
X144526947Y-65527337D01*
X144526945Y-65527334D01*
X144326393Y-65284909D01*
X144326391Y-65284907D01*
X144097031Y-65069523D01*
X144097021Y-65069515D01*
X143842495Y-64884591D01*
X143842488Y-64884586D01*
X143842484Y-64884584D01*
X143566766Y-64733006D01*
X143566763Y-64733004D01*
X143566758Y-64733002D01*
X143566757Y-64733001D01*
X143274228Y-64617181D01*
X143274225Y-64617180D01*
X142969476Y-64538934D01*
X142969463Y-64538932D01*
X142657329Y-64499500D01*
X142657318Y-64499500D01*
X142342682Y-64499500D01*
X142342670Y-64499500D01*
X142030536Y-64538932D01*
X142030523Y-64538934D01*
X141725774Y-64617180D01*
X141725771Y-64617181D01*
X141433242Y-64733001D01*
X141433241Y-64733002D01*
X141157516Y-64884584D01*
X141157504Y-64884591D01*
X140902978Y-65069515D01*
X140902968Y-65069523D01*
X140673608Y-65284907D01*
X140673606Y-65284909D01*
X140473054Y-65527334D01*
X140473051Y-65527338D01*
X140304464Y-65792990D01*
X140304461Y-65792996D01*
X140170499Y-66077678D01*
X140170497Y-66077683D01*
X140073270Y-66376916D01*
X140014311Y-66685988D01*
X140014310Y-66685995D01*
X139994556Y-66999994D01*
X139994556Y-67000005D01*
X140014310Y-67314004D01*
X140014311Y-67314011D01*
X140073270Y-67623083D01*
X140170497Y-67922316D01*
X140170499Y-67922321D01*
X140304461Y-68207003D01*
X140304464Y-68207009D01*
X140473051Y-68472661D01*
X140473054Y-68472665D01*
X140673606Y-68715090D01*
X140673608Y-68715092D01*
X140902968Y-68930476D01*
X140902978Y-68930484D01*
X141157504Y-69115408D01*
X141157509Y-69115410D01*
X141157516Y-69115416D01*
X141433234Y-69266994D01*
X141433239Y-69266996D01*
X141433241Y-69266997D01*
X141433242Y-69266998D01*
X141729398Y-69384254D01*
X141728815Y-69385724D01*
X141781146Y-69421512D01*
X141808341Y-69485872D01*
X141796422Y-69554718D01*
X141749175Y-69606191D01*
X141729222Y-69615303D01*
X141729398Y-69615746D01*
X141433242Y-69733001D01*
X141433241Y-69733002D01*
X141157516Y-69884584D01*
X141157504Y-69884591D01*
X140902978Y-70069515D01*
X140902968Y-70069523D01*
X140673608Y-70284907D01*
X140673606Y-70284909D01*
X140473054Y-70527334D01*
X140473051Y-70527338D01*
X140304464Y-70792990D01*
X140304461Y-70792996D01*
X140170499Y-71077678D01*
X140170497Y-71077683D01*
X140073270Y-71376916D01*
X140014311Y-71685988D01*
X140014310Y-71685995D01*
X139994556Y-71999994D01*
X139994556Y-72000005D01*
X137500000Y-72000005D01*
X137500000Y-64051362D01*
X137519685Y-63984323D01*
X137536319Y-63963681D01*
X138463681Y-63036319D01*
X138525004Y-63002834D01*
X138551362Y-63000000D01*
X146448638Y-63000000D01*
X146515677Y-63019685D01*
G37*
G04 #@! TD.AperFunction*
G04 #@! TA.AperFunction,NonConductor*
G36*
X109003032Y-63000299D02*
G01*
X109064067Y-63006310D01*
X109182941Y-63018018D01*
X109206769Y-63022757D01*
X109371001Y-63072576D01*
X109393453Y-63081877D01*
X109544798Y-63162772D01*
X109565010Y-63176277D01*
X109697666Y-63285145D01*
X109714854Y-63302333D01*
X109823722Y-63434989D01*
X109837227Y-63455201D01*
X109918121Y-63606543D01*
X109927424Y-63629001D01*
X109977240Y-63793224D01*
X109981982Y-63817065D01*
X109999701Y-63996967D01*
X110000000Y-64003048D01*
X110000000Y-75996951D01*
X109999701Y-76003032D01*
X109981982Y-76182934D01*
X109977240Y-76206775D01*
X109927424Y-76370998D01*
X109918121Y-76393456D01*
X109837227Y-76544798D01*
X109823722Y-76565010D01*
X109714854Y-76697666D01*
X109697666Y-76714854D01*
X109565010Y-76823722D01*
X109544798Y-76837227D01*
X109393456Y-76918121D01*
X109370998Y-76927424D01*
X109206775Y-76977240D01*
X109182934Y-76981982D01*
X109003032Y-76999701D01*
X108996951Y-77000000D01*
X101003049Y-77000000D01*
X100996968Y-76999701D01*
X100817065Y-76981982D01*
X100793224Y-76977240D01*
X100629001Y-76927424D01*
X100606543Y-76918121D01*
X100455201Y-76837227D01*
X100434989Y-76823722D01*
X100302333Y-76714854D01*
X100285145Y-76697666D01*
X100176277Y-76565010D01*
X100162772Y-76544798D01*
X100081878Y-76393456D01*
X100072575Y-76370998D01*
X100022757Y-76206769D01*
X100018018Y-76182941D01*
X100000299Y-76003032D01*
X100000000Y-75996951D01*
X100000000Y-72000005D01*
X102494556Y-72000005D01*
X102514310Y-72314004D01*
X102514311Y-72314011D01*
X102573270Y-72623083D01*
X102670497Y-72922316D01*
X102670499Y-72922321D01*
X102804461Y-73207003D01*
X102804464Y-73207009D01*
X102973051Y-73472661D01*
X102973054Y-73472665D01*
X103173606Y-73715090D01*
X103173608Y-73715092D01*
X103402968Y-73930476D01*
X103402978Y-73930484D01*
X103657504Y-74115408D01*
X103657509Y-74115410D01*
X103657516Y-74115416D01*
X103933234Y-74266994D01*
X103933239Y-74266996D01*
X103933241Y-74266997D01*
X103933242Y-74266998D01*
X104225771Y-74382818D01*
X104225774Y-74382819D01*
X104530523Y-74461065D01*
X104530527Y-74461066D01*
X104596010Y-74469338D01*
X104842670Y-74500499D01*
X104842679Y-74500499D01*
X104842682Y-74500500D01*
X104842684Y-74500500D01*
X105157316Y-74500500D01*
X105157318Y-74500500D01*
X105157321Y-74500499D01*
X105157329Y-74500499D01*
X105343593Y-74476968D01*
X105469473Y-74461066D01*
X105774225Y-74382819D01*
X105774228Y-74382818D01*
X106066757Y-74266998D01*
X106066758Y-74266997D01*
X106066756Y-74266997D01*
X106066766Y-74266994D01*
X106342484Y-74115416D01*
X106597030Y-73930478D01*
X106826390Y-73715094D01*
X107026947Y-73472663D01*
X107195537Y-73207007D01*
X107329503Y-72922315D01*
X107426731Y-72623079D01*
X107485688Y-72314015D01*
X107505444Y-72000000D01*
X107485688Y-71685985D01*
X107426731Y-71376921D01*
X107329503Y-71077685D01*
X107195537Y-70792993D01*
X107026947Y-70527337D01*
X107026945Y-70527334D01*
X106826393Y-70284909D01*
X106826391Y-70284907D01*
X106597031Y-70069523D01*
X106597021Y-70069515D01*
X106342495Y-69884591D01*
X106342488Y-69884586D01*
X106342484Y-69884584D01*
X106066766Y-69733006D01*
X106066763Y-69733004D01*
X106066758Y-69733002D01*
X106066757Y-69733001D01*
X105770602Y-69615746D01*
X105771186Y-69614269D01*
X105718870Y-69578508D01*
X105691661Y-69514154D01*
X105703565Y-69445306D01*
X105750801Y-69393823D01*
X105770778Y-69384699D01*
X105770602Y-69384254D01*
X106066757Y-69266998D01*
X106066758Y-69266997D01*
X106066756Y-69266997D01*
X106066766Y-69266994D01*
X106342484Y-69115416D01*
X106597030Y-68930478D01*
X106826390Y-68715094D01*
X107026947Y-68472663D01*
X107195537Y-68207007D01*
X107329503Y-67922315D01*
X107426731Y-67623079D01*
X107485688Y-67314015D01*
X107505444Y-67000000D01*
X107485688Y-66685985D01*
X107426731Y-66376921D01*
X107329503Y-66077685D01*
X107195537Y-65792993D01*
X107026947Y-65527337D01*
X107026945Y-65527334D01*
X106826393Y-65284909D01*
X106826391Y-65284907D01*
X106597031Y-65069523D01*
X106597021Y-65069515D01*
X106342495Y-64884591D01*
X106342488Y-64884586D01*
X106342484Y-64884584D01*
X106066766Y-64733006D01*
X106066763Y-64733004D01*
X106066758Y-64733002D01*
X106066757Y-64733001D01*
X105774228Y-64617181D01*
X105774225Y-64617180D01*
X105469476Y-64538934D01*
X105469463Y-64538932D01*
X105157329Y-64499500D01*
X105157318Y-64499500D01*
X104842682Y-64499500D01*
X104842670Y-64499500D01*
X104530536Y-64538932D01*
X104530523Y-64538934D01*
X104225774Y-64617180D01*
X104225771Y-64617181D01*
X103933242Y-64733001D01*
X103933241Y-64733002D01*
X103657516Y-64884584D01*
X103657504Y-64884591D01*
X103402978Y-65069515D01*
X103402968Y-65069523D01*
X103173608Y-65284907D01*
X103173606Y-65284909D01*
X102973054Y-65527334D01*
X102973051Y-65527338D01*
X102804464Y-65792990D01*
X102804461Y-65792996D01*
X102670499Y-66077678D01*
X102670497Y-66077683D01*
X102573270Y-66376916D01*
X102514311Y-66685988D01*
X102514310Y-66685995D01*
X102494556Y-66999994D01*
X102494556Y-67000005D01*
X102514310Y-67314004D01*
X102514311Y-67314011D01*
X102573270Y-67623083D01*
X102670497Y-67922316D01*
X102670499Y-67922321D01*
X102804461Y-68207003D01*
X102804464Y-68207009D01*
X102973051Y-68472661D01*
X102973054Y-68472665D01*
X103173606Y-68715090D01*
X103173608Y-68715092D01*
X103402968Y-68930476D01*
X103402978Y-68930484D01*
X103657504Y-69115408D01*
X103657509Y-69115410D01*
X103657516Y-69115416D01*
X103933234Y-69266994D01*
X103933239Y-69266996D01*
X103933241Y-69266997D01*
X103933242Y-69266998D01*
X104229398Y-69384254D01*
X104228815Y-69385724D01*
X104281146Y-69421512D01*
X104308341Y-69485872D01*
X104296422Y-69554718D01*
X104249175Y-69606191D01*
X104229222Y-69615303D01*
X104229398Y-69615746D01*
X103933242Y-69733001D01*
X103933241Y-69733002D01*
X103657516Y-69884584D01*
X103657504Y-69884591D01*
X103402978Y-70069515D01*
X103402968Y-70069523D01*
X103173608Y-70284907D01*
X103173606Y-70284909D01*
X102973054Y-70527334D01*
X102973051Y-70527338D01*
X102804464Y-70792990D01*
X102804461Y-70792996D01*
X102670499Y-71077678D01*
X102670497Y-71077683D01*
X102573270Y-71376916D01*
X102514311Y-71685988D01*
X102514310Y-71685995D01*
X102494556Y-71999994D01*
X102494556Y-72000005D01*
X100000000Y-72000005D01*
X100000000Y-64003048D01*
X100000299Y-63996967D01*
X100004706Y-63952213D01*
X100018018Y-63817056D01*
X100022757Y-63793232D01*
X100072577Y-63628994D01*
X100081875Y-63606549D01*
X100162775Y-63455195D01*
X100176272Y-63434995D01*
X100285149Y-63302328D01*
X100302328Y-63285149D01*
X100434995Y-63176272D01*
X100455195Y-63162775D01*
X100606549Y-63081875D01*
X100628994Y-63072577D01*
X100793232Y-63022757D01*
X100817056Y-63018018D01*
X100931501Y-63006746D01*
X100996969Y-63000299D01*
X101003049Y-63000000D01*
X108996951Y-63000000D01*
X109003032Y-63000299D01*
G37*
G04 #@! TD.AperFunction*
G04 #@! TA.AperFunction,NonConductor*
G36*
X153395811Y-87020450D02*
G01*
X153588675Y-87080961D01*
X153765411Y-87179057D01*
X153918782Y-87310722D01*
X154042510Y-87470565D01*
X154131528Y-87652042D01*
X154182194Y-87847724D01*
X154192432Y-88049599D01*
X154161823Y-88249402D01*
X154091621Y-88438954D01*
X153984699Y-88610494D01*
X153845435Y-88756999D01*
X153679531Y-88872472D01*
X153676231Y-88874295D01*
X153661754Y-88882253D01*
X153657512Y-88884586D01*
X153657505Y-88884591D01*
X153402981Y-89069513D01*
X153402967Y-89069524D01*
X153173615Y-89284900D01*
X153173607Y-89284909D01*
X152973056Y-89527332D01*
X152804459Y-89792999D01*
X152670498Y-90077682D01*
X152670492Y-90077696D01*
X152573270Y-90376915D01*
X152573269Y-90376916D01*
X152514313Y-90685977D01*
X152514312Y-90685981D01*
X152514312Y-90685985D01*
X152494556Y-91000000D01*
X152514312Y-91314015D01*
X152514312Y-91314019D01*
X152514313Y-91314022D01*
X152573269Y-91623083D01*
X152573270Y-91623084D01*
X152670492Y-91922303D01*
X152670498Y-91922317D01*
X152804459Y-92207000D01*
X152804461Y-92207004D01*
X152804463Y-92207007D01*
X152973053Y-92472663D01*
X153173610Y-92715094D01*
X153173615Y-92715098D01*
X153173619Y-92715103D01*
X153233956Y-92771764D01*
X153366550Y-92924332D01*
X153465718Y-93100468D01*
X153527401Y-93292961D01*
X153549072Y-93493931D01*
X153529844Y-93695148D01*
X153470505Y-93888377D01*
X153373485Y-94065705D01*
X153242754Y-94219873D01*
X153233956Y-94228236D01*
X153173619Y-94284896D01*
X153173607Y-94284909D01*
X152973056Y-94527332D01*
X152804459Y-94792999D01*
X152670498Y-95077682D01*
X152670492Y-95077696D01*
X152573270Y-95376915D01*
X152573269Y-95376916D01*
X152514313Y-95685977D01*
X152514312Y-95685981D01*
X152514312Y-95685985D01*
X152494556Y-96000000D01*
X152514312Y-96314015D01*
X152514312Y-96314019D01*
X152514313Y-96314022D01*
X152573269Y-96623083D01*
X152573270Y-96623084D01*
X152670492Y-96922303D01*
X152670498Y-96922317D01*
X152804459Y-97207000D01*
X152804461Y-97207004D01*
X152804463Y-97207007D01*
X152973053Y-97472663D01*
X153173610Y-97715094D01*
X153402970Y-97930478D01*
X153657516Y-98115416D01*
X153933234Y-98266994D01*
X154225775Y-98382819D01*
X154530527Y-98461066D01*
X154842682Y-98500500D01*
X154842687Y-98500500D01*
X155157313Y-98500500D01*
X155157318Y-98500500D01*
X155469473Y-98461066D01*
X155774225Y-98382819D01*
X156066766Y-98266994D01*
X156342484Y-98115416D01*
X156597030Y-97930478D01*
X156826390Y-97715094D01*
X157026947Y-97472663D01*
X157195537Y-97207007D01*
X157329503Y-96922315D01*
X157426731Y-96623079D01*
X157485688Y-96314015D01*
X157505444Y-96000000D01*
X157485688Y-95685985D01*
X157426731Y-95376921D01*
X157426730Y-95376920D01*
X157426730Y-95376916D01*
X157426729Y-95376915D01*
X157329507Y-95077696D01*
X157329505Y-95077691D01*
X157329503Y-95077685D01*
X157195537Y-94792993D01*
X157026947Y-94527337D01*
X156826390Y-94284906D01*
X156826379Y-94284896D01*
X156766047Y-94228240D01*
X156633452Y-94075673D01*
X156534283Y-93899537D01*
X156472600Y-93707045D01*
X156450927Y-93506075D01*
X156470154Y-93304858D01*
X156529491Y-93111629D01*
X156626511Y-92934300D01*
X156757240Y-92780131D01*
X156766047Y-92771760D01*
X156826380Y-92715103D01*
X156826390Y-92715094D01*
X157026947Y-92472663D01*
X157195537Y-92207007D01*
X157329503Y-91922315D01*
X157426731Y-91623079D01*
X157485688Y-91314015D01*
X157505444Y-91000000D01*
X157485688Y-90685985D01*
X157426731Y-90376921D01*
X157426730Y-90376920D01*
X157426730Y-90376916D01*
X157426729Y-90376915D01*
X157329507Y-90077696D01*
X157329505Y-90077691D01*
X157329503Y-90077685D01*
X157195537Y-89792993D01*
X157026947Y-89527337D01*
X156826390Y-89284906D01*
X156597030Y-89069522D01*
X156342484Y-88884584D01*
X156324006Y-88874425D01*
X156157641Y-88759629D01*
X156017784Y-88613689D01*
X155910169Y-88442583D01*
X155839199Y-88253317D01*
X155807781Y-88053639D01*
X155817201Y-87851725D01*
X155867074Y-87655840D01*
X155955357Y-87474003D01*
X156078436Y-87313661D01*
X156231272Y-87181376D01*
X156407609Y-87082564D01*
X156600227Y-87021272D01*
X156801239Y-87000008D01*
X156805286Y-87000000D01*
X159001000Y-87000000D01*
X159202097Y-87020450D01*
X159394961Y-87080961D01*
X159571697Y-87179057D01*
X159725068Y-87310722D01*
X159848796Y-87470565D01*
X159937814Y-87652042D01*
X159988480Y-87847724D01*
X160000000Y-87999000D01*
X160000000Y-100001000D01*
X159979550Y-100202097D01*
X159919039Y-100394961D01*
X159820943Y-100571697D01*
X159689278Y-100725068D01*
X159529435Y-100848796D01*
X159347958Y-100937814D01*
X159152276Y-100988480D01*
X159001000Y-101000000D01*
X150999000Y-101000000D01*
X150797903Y-100979550D01*
X150605039Y-100919039D01*
X150428303Y-100820943D01*
X150274932Y-100689278D01*
X150151204Y-100529435D01*
X150062186Y-100347958D01*
X150011520Y-100152276D01*
X150000000Y-100001000D01*
X150000000Y-87999000D01*
X150020450Y-87797903D01*
X150080961Y-87605039D01*
X150179057Y-87428303D01*
X150310722Y-87274932D01*
X150470565Y-87151204D01*
X150652042Y-87062186D01*
X150847724Y-87011520D01*
X150999000Y-87000000D01*
X153194714Y-87000000D01*
X153395811Y-87020450D01*
G37*
G04 #@! TD.AperFunction*
G04 #@! TA.AperFunction,NonConductor*
G36*
X157501735Y-49500098D02*
G01*
X157658642Y-49508909D01*
X157832425Y-49518668D01*
X157839315Y-49519444D01*
X158115833Y-49566426D01*
X158164125Y-49574632D01*
X158170909Y-49576180D01*
X158487491Y-49667386D01*
X158494055Y-49669683D01*
X158798442Y-49795763D01*
X158804690Y-49798773D01*
X159093051Y-49958144D01*
X159098929Y-49961837D01*
X159367634Y-50152495D01*
X159373061Y-50156822D01*
X159618721Y-50376358D01*
X159623641Y-50381278D01*
X159843177Y-50626938D01*
X159847506Y-50632367D01*
X160038158Y-50901065D01*
X160041855Y-50906948D01*
X160201222Y-51195300D01*
X160204241Y-51201569D01*
X160330315Y-51505941D01*
X160332613Y-51512508D01*
X160423819Y-51829090D01*
X160425367Y-51835874D01*
X160480553Y-52160670D01*
X160481332Y-52167585D01*
X160499804Y-52496521D01*
X160499804Y-52503479D01*
X160481332Y-52832414D01*
X160480553Y-52839329D01*
X160425367Y-53164125D01*
X160423819Y-53170909D01*
X160332613Y-53487491D01*
X160330315Y-53494058D01*
X160204241Y-53798430D01*
X160201222Y-53804699D01*
X160041855Y-54093051D01*
X160038153Y-54098942D01*
X159870183Y-54335674D01*
X159847515Y-54367621D01*
X159843177Y-54373061D01*
X159623641Y-54618721D01*
X159618721Y-54623641D01*
X159373061Y-54843177D01*
X159367621Y-54847515D01*
X159098943Y-55038153D01*
X159093051Y-55041855D01*
X158804699Y-55201222D01*
X158798430Y-55204241D01*
X158494058Y-55330315D01*
X158487491Y-55332613D01*
X158170909Y-55423819D01*
X158164125Y-55425367D01*
X157839329Y-55480553D01*
X157832414Y-55481332D01*
X157501735Y-55499902D01*
X157498258Y-55500000D01*
X77501742Y-55500000D01*
X77498265Y-55499902D01*
X77167585Y-55481332D01*
X77160670Y-55480553D01*
X76835874Y-55425367D01*
X76829090Y-55423819D01*
X76512508Y-55332613D01*
X76505941Y-55330315D01*
X76313208Y-55250483D01*
X76201565Y-55204239D01*
X76195300Y-55201222D01*
X75906948Y-55041855D01*
X75901065Y-55038158D01*
X75632367Y-54847506D01*
X75626938Y-54843177D01*
X75381278Y-54623641D01*
X75376358Y-54618721D01*
X75156822Y-54373061D01*
X75152495Y-54367634D01*
X74961837Y-54098929D01*
X74958144Y-54093051D01*
X74889352Y-53968581D01*
X74798773Y-53804690D01*
X74795763Y-53798442D01*
X74669683Y-53494055D01*
X74667386Y-53487491D01*
X74576180Y-53170909D01*
X74574632Y-53164125D01*
X74541532Y-52969314D01*
X74519444Y-52839315D01*
X74518668Y-52832425D01*
X74503805Y-52567763D01*
X75645787Y-52567763D01*
X75675413Y-52837013D01*
X75675415Y-52837024D01*
X75743926Y-53099082D01*
X75743928Y-53099088D01*
X75849870Y-53348390D01*
X75938770Y-53494058D01*
X75990979Y-53579605D01*
X75990986Y-53579615D01*
X76164253Y-53787819D01*
X76164259Y-53787824D01*
X76183083Y-53804690D01*
X76365998Y-53968582D01*
X76591910Y-54118044D01*
X76837176Y-54233020D01*
X76837183Y-54233022D01*
X76837185Y-54233023D01*
X77096557Y-54311057D01*
X77096564Y-54311058D01*
X77096569Y-54311060D01*
X77364561Y-54350500D01*
X77364566Y-54350500D01*
X77567636Y-54350500D01*
X77619133Y-54346730D01*
X77770156Y-54335677D01*
X77882758Y-54310593D01*
X78034546Y-54276782D01*
X78034548Y-54276781D01*
X78034553Y-54276780D01*
X78287558Y-54180014D01*
X78523777Y-54047441D01*
X78738177Y-53881888D01*
X78926186Y-53686881D01*
X79083799Y-53466579D01*
X79157787Y-53322669D01*
X79207649Y-53225690D01*
X79207651Y-53225684D01*
X79207656Y-53225675D01*
X79295118Y-52969305D01*
X79344319Y-52702933D01*
X79354212Y-52432235D01*
X79324586Y-52162982D01*
X79256072Y-51900912D01*
X79150130Y-51651610D01*
X79009018Y-51420390D01*
X78919747Y-51313119D01*
X78835746Y-51212180D01*
X78835740Y-51212175D01*
X78634002Y-51031418D01*
X78408092Y-50881957D01*
X78408090Y-50881956D01*
X78162824Y-50766980D01*
X78162819Y-50766978D01*
X78162814Y-50766976D01*
X77903442Y-50688942D01*
X77903428Y-50688939D01*
X77787791Y-50671921D01*
X77635439Y-50649500D01*
X77432369Y-50649500D01*
X77432364Y-50649500D01*
X77229844Y-50664323D01*
X77229831Y-50664325D01*
X76965453Y-50723217D01*
X76965446Y-50723220D01*
X76712439Y-50819987D01*
X76476226Y-50952557D01*
X76261822Y-51118112D01*
X76073822Y-51313109D01*
X76073816Y-51313116D01*
X75916202Y-51533419D01*
X75916199Y-51533424D01*
X75792350Y-51774309D01*
X75792343Y-51774327D01*
X75704884Y-52030685D01*
X75704881Y-52030699D01*
X75655681Y-52297068D01*
X75655680Y-52297075D01*
X75645787Y-52567763D01*
X74503805Y-52567763D01*
X74500195Y-52503472D01*
X74500195Y-52496521D01*
X74518668Y-52167572D01*
X74519444Y-52160686D01*
X74574632Y-51835873D01*
X74576180Y-51829090D01*
X74591962Y-51774309D01*
X74667387Y-51512502D01*
X74669680Y-51505950D01*
X74795766Y-51201550D01*
X74798769Y-51195315D01*
X74958149Y-50906939D01*
X74961832Y-50901077D01*
X75152501Y-50632355D01*
X75156811Y-50626950D01*
X75376360Y-50381275D01*
X75381278Y-50376358D01*
X75626950Y-50156811D01*
X75632355Y-50152501D01*
X75901077Y-49961832D01*
X75906939Y-49958149D01*
X76195315Y-49798769D01*
X76201550Y-49795766D01*
X76505950Y-49669680D01*
X76512502Y-49667387D01*
X76829094Y-49576179D01*
X76835874Y-49574632D01*
X77160686Y-49519444D01*
X77167572Y-49518668D01*
X77348408Y-49508513D01*
X77498265Y-49500098D01*
X77501742Y-49500000D01*
X157498258Y-49500000D01*
X157501735Y-49500098D01*
G37*
G04 #@! TD.AperFunction*
G04 #@! TA.AperFunction,NonConductor*
G36*
X78003032Y-79000299D02*
G01*
X78064067Y-79006310D01*
X78182941Y-79018018D01*
X78206769Y-79022757D01*
X78371001Y-79072576D01*
X78393453Y-79081877D01*
X78544798Y-79162772D01*
X78565010Y-79176277D01*
X78697666Y-79285145D01*
X78714854Y-79302333D01*
X78823722Y-79434989D01*
X78837227Y-79455201D01*
X78918121Y-79606543D01*
X78927424Y-79629001D01*
X78977240Y-79793224D01*
X78981982Y-79817065D01*
X78999701Y-79996967D01*
X79000000Y-80003048D01*
X79000000Y-129999996D01*
X79019214Y-130195088D01*
X79019215Y-130195090D01*
X79076120Y-130382683D01*
X79076121Y-130382686D01*
X79076122Y-130382687D01*
X79076123Y-130382690D01*
X79168526Y-130555564D01*
X79168531Y-130555571D01*
X79292892Y-130707107D01*
X79398344Y-130793648D01*
X79444430Y-130831470D01*
X79444433Y-130831471D01*
X79444435Y-130831473D01*
X79617309Y-130923876D01*
X79617310Y-130923876D01*
X79617317Y-130923880D01*
X79804910Y-130980785D01*
X79804909Y-130980785D01*
X79853682Y-130985588D01*
X80000000Y-131000000D01*
X130496951Y-131000000D01*
X130503032Y-131000299D01*
X130564067Y-131006310D01*
X130682941Y-131018018D01*
X130706769Y-131022757D01*
X130871001Y-131072576D01*
X130893453Y-131081877D01*
X131044798Y-131162772D01*
X131065010Y-131176277D01*
X131197666Y-131285145D01*
X131214854Y-131302333D01*
X131323722Y-131434989D01*
X131337227Y-131455201D01*
X131418121Y-131606543D01*
X131427424Y-131629001D01*
X131477240Y-131793224D01*
X131481982Y-131817065D01*
X131499701Y-131996967D01*
X131500000Y-132003048D01*
X131500000Y-135996951D01*
X131499701Y-136003032D01*
X131481982Y-136182934D01*
X131477240Y-136206775D01*
X131427424Y-136370998D01*
X131418121Y-136393456D01*
X131337227Y-136544798D01*
X131323722Y-136565010D01*
X131214854Y-136697666D01*
X131197666Y-136714854D01*
X131065010Y-136823722D01*
X131044798Y-136837227D01*
X130893456Y-136918121D01*
X130870998Y-136927424D01*
X130706775Y-136977240D01*
X130682935Y-136981982D01*
X130508109Y-136999201D01*
X130502028Y-136999500D01*
X77500000Y-136999500D01*
X77110546Y-136982496D01*
X77105155Y-136982024D01*
X76721359Y-136931496D01*
X76716030Y-136930556D01*
X76338085Y-136846768D01*
X76332865Y-136845370D01*
X76161193Y-136791242D01*
X75963663Y-136728961D01*
X75958578Y-136727110D01*
X75713889Y-136625757D01*
X75600921Y-136578964D01*
X75596031Y-136576684D01*
X75252657Y-136397934D01*
X75247971Y-136395228D01*
X74921473Y-136187227D01*
X74917040Y-136184123D01*
X74609920Y-135948462D01*
X74605777Y-135944984D01*
X74320369Y-135683456D01*
X74316543Y-135679630D01*
X74055015Y-135394222D01*
X74051536Y-135390077D01*
X73815876Y-135082959D01*
X73812772Y-135078526D01*
X73604771Y-134752028D01*
X73602065Y-134747342D01*
X73423310Y-134403958D01*
X73421039Y-134399088D01*
X73272889Y-134041421D01*
X73271038Y-134036336D01*
X73154625Y-133667119D01*
X73153231Y-133661914D01*
X73069443Y-133283969D01*
X73068506Y-133278659D01*
X73017973Y-132894826D01*
X73017504Y-132889474D01*
X73000500Y-132500000D01*
X73000500Y-132434108D01*
X73000500Y-79997971D01*
X73000799Y-79991890D01*
X73004472Y-79954589D01*
X73018018Y-79817056D01*
X73022757Y-79793232D01*
X73072577Y-79628994D01*
X73081875Y-79606549D01*
X73162775Y-79455195D01*
X73176272Y-79434995D01*
X73285149Y-79302328D01*
X73302328Y-79285149D01*
X73434995Y-79176272D01*
X73455195Y-79162775D01*
X73606549Y-79081875D01*
X73628994Y-79072577D01*
X73793232Y-79022757D01*
X73817056Y-79018018D01*
X73931501Y-79006746D01*
X73996969Y-79000299D01*
X74003049Y-79000000D01*
X77996951Y-79000000D01*
X78003032Y-79000299D01*
G37*
G04 #@! TD.AperFunction*
M02*
