G04 #@! TF.GenerationSoftware,KiCad,Pcbnew,7.0.8*
G04 #@! TF.CreationDate,2023-10-17T14:12:28+02:00*
G04 #@! TF.ProjectId,pour_fillet,706f7572-5f66-4696-9c6c-65742e6b6963,rev?*
G04 #@! TF.SameCoordinates,Original*
G04 #@! TF.FileFunction,Legend,Bot*
G04 #@! TF.FilePolarity,Positive*
%FSLAX46Y46*%
G04 Gerber Fmt 4.6, Leading zero omitted, Abs format (unit mm)*
G04 Created by KiCad (PCBNEW 7.0.8) date 2023-10-17 14:12:28*
%MOMM*%
%LPD*%
G01*
G04 APERTURE LIST*
%ADD10C,0.150000*%
%ADD11C,3.200000*%
G04 APERTURE END LIST*
D10*
X87857143Y-134369819D02*
X87952381Y-134322200D01*
X87952381Y-134322200D02*
X88000000Y-134226961D01*
X88000000Y-134226961D02*
X88000000Y-133369819D01*
X87047619Y-134369819D02*
X87047619Y-133846009D01*
X87047619Y-133846009D02*
X87095238Y-133750771D01*
X87095238Y-133750771D02*
X87190476Y-133703152D01*
X87190476Y-133703152D02*
X87380952Y-133703152D01*
X87380952Y-133703152D02*
X87476190Y-133750771D01*
X87047619Y-134322200D02*
X87142857Y-134369819D01*
X87142857Y-134369819D02*
X87380952Y-134369819D01*
X87380952Y-134369819D02*
X87476190Y-134322200D01*
X87476190Y-134322200D02*
X87523809Y-134226961D01*
X87523809Y-134226961D02*
X87523809Y-134131723D01*
X87523809Y-134131723D02*
X87476190Y-134036485D01*
X87476190Y-134036485D02*
X87380952Y-133988866D01*
X87380952Y-133988866D02*
X87142857Y-133988866D01*
X87142857Y-133988866D02*
X87047619Y-133941247D01*
X86571428Y-134369819D02*
X86571428Y-133369819D01*
X86571428Y-133750771D02*
X86476190Y-133703152D01*
X86476190Y-133703152D02*
X86285714Y-133703152D01*
X86285714Y-133703152D02*
X86190476Y-133750771D01*
X86190476Y-133750771D02*
X86142857Y-133798390D01*
X86142857Y-133798390D02*
X86095238Y-133893628D01*
X86095238Y-133893628D02*
X86095238Y-134179342D01*
X86095238Y-134179342D02*
X86142857Y-134274580D01*
X86142857Y-134274580D02*
X86190476Y-134322200D01*
X86190476Y-134322200D02*
X86285714Y-134369819D01*
X86285714Y-134369819D02*
X86476190Y-134369819D01*
X86476190Y-134369819D02*
X86571428Y-134322200D01*
X85809523Y-133703152D02*
X85428571Y-133703152D01*
X85666666Y-133369819D02*
X85666666Y-134226961D01*
X85666666Y-134226961D02*
X85619047Y-134322200D01*
X85619047Y-134322200D02*
X85523809Y-134369819D01*
X85523809Y-134369819D02*
X85428571Y-134369819D01*
X85095237Y-134369819D02*
X85095237Y-133703152D01*
X85095237Y-133893628D02*
X85047618Y-133798390D01*
X85047618Y-133798390D02*
X84999999Y-133750771D01*
X84999999Y-133750771D02*
X84904761Y-133703152D01*
X84904761Y-133703152D02*
X84809523Y-133703152D01*
X84333332Y-134369819D02*
X84428570Y-134322200D01*
X84428570Y-134322200D02*
X84476189Y-134274580D01*
X84476189Y-134274580D02*
X84523808Y-134179342D01*
X84523808Y-134179342D02*
X84523808Y-133893628D01*
X84523808Y-133893628D02*
X84476189Y-133798390D01*
X84476189Y-133798390D02*
X84428570Y-133750771D01*
X84428570Y-133750771D02*
X84333332Y-133703152D01*
X84333332Y-133703152D02*
X84190475Y-133703152D01*
X84190475Y-133703152D02*
X84095237Y-133750771D01*
X84095237Y-133750771D02*
X84047618Y-133798390D01*
X84047618Y-133798390D02*
X83999999Y-133893628D01*
X83999999Y-133893628D02*
X83999999Y-134179342D01*
X83999999Y-134179342D02*
X84047618Y-134274580D01*
X84047618Y-134274580D02*
X84095237Y-134322200D01*
X84095237Y-134322200D02*
X84190475Y-134369819D01*
X84190475Y-134369819D02*
X84333332Y-134369819D01*
X83428570Y-134369819D02*
X83523808Y-134322200D01*
X83523808Y-134322200D02*
X83571427Y-134226961D01*
X83571427Y-134226961D02*
X83571427Y-133369819D01*
X82904760Y-134369819D02*
X82999998Y-134322200D01*
X82999998Y-134322200D02*
X83047617Y-134226961D01*
X83047617Y-134226961D02*
X83047617Y-133369819D01*
X82523807Y-134274580D02*
X82476188Y-134322200D01*
X82476188Y-134322200D02*
X82523807Y-134369819D01*
X82523807Y-134369819D02*
X82571426Y-134322200D01*
X82571426Y-134322200D02*
X82523807Y-134274580D01*
X82523807Y-134274580D02*
X82523807Y-134369819D01*
X81619046Y-133703152D02*
X81619046Y-134512676D01*
X81619046Y-134512676D02*
X81666665Y-134607914D01*
X81666665Y-134607914D02*
X81714284Y-134655533D01*
X81714284Y-134655533D02*
X81809522Y-134703152D01*
X81809522Y-134703152D02*
X81952379Y-134703152D01*
X81952379Y-134703152D02*
X82047617Y-134655533D01*
X81619046Y-134322200D02*
X81714284Y-134369819D01*
X81714284Y-134369819D02*
X81904760Y-134369819D01*
X81904760Y-134369819D02*
X81999998Y-134322200D01*
X81999998Y-134322200D02*
X82047617Y-134274580D01*
X82047617Y-134274580D02*
X82095236Y-134179342D01*
X82095236Y-134179342D02*
X82095236Y-133893628D01*
X82095236Y-133893628D02*
X82047617Y-133798390D01*
X82047617Y-133798390D02*
X81999998Y-133750771D01*
X81999998Y-133750771D02*
X81904760Y-133703152D01*
X81904760Y-133703152D02*
X81714284Y-133703152D01*
X81714284Y-133703152D02*
X81619046Y-133750771D01*
X81142855Y-134369819D02*
X81142855Y-133703152D01*
X81142855Y-133369819D02*
X81190474Y-133417438D01*
X81190474Y-133417438D02*
X81142855Y-133465057D01*
X81142855Y-133465057D02*
X81095236Y-133417438D01*
X81095236Y-133417438D02*
X81142855Y-133369819D01*
X81142855Y-133369819D02*
X81142855Y-133465057D01*
X80809522Y-133703152D02*
X80428570Y-133703152D01*
X80666665Y-133369819D02*
X80666665Y-134226961D01*
X80666665Y-134226961D02*
X80619046Y-134322200D01*
X80619046Y-134322200D02*
X80523808Y-134369819D01*
X80523808Y-134369819D02*
X80428570Y-134369819D01*
X80095236Y-134369819D02*
X80095236Y-133369819D01*
X79666665Y-134369819D02*
X79666665Y-133846009D01*
X79666665Y-133846009D02*
X79714284Y-133750771D01*
X79714284Y-133750771D02*
X79809522Y-133703152D01*
X79809522Y-133703152D02*
X79952379Y-133703152D01*
X79952379Y-133703152D02*
X80047617Y-133750771D01*
X80047617Y-133750771D02*
X80095236Y-133798390D01*
X78761903Y-133703152D02*
X78761903Y-134369819D01*
X79190474Y-133703152D02*
X79190474Y-134226961D01*
X79190474Y-134226961D02*
X79142855Y-134322200D01*
X79142855Y-134322200D02*
X79047617Y-134369819D01*
X79047617Y-134369819D02*
X78904760Y-134369819D01*
X78904760Y-134369819D02*
X78809522Y-134322200D01*
X78809522Y-134322200D02*
X78761903Y-134274580D01*
X78285712Y-134369819D02*
X78285712Y-133369819D01*
X78285712Y-133750771D02*
X78190474Y-133703152D01*
X78190474Y-133703152D02*
X77999998Y-133703152D01*
X77999998Y-133703152D02*
X77904760Y-133750771D01*
X77904760Y-133750771D02*
X77857141Y-133798390D01*
X77857141Y-133798390D02*
X77809522Y-133893628D01*
X77809522Y-133893628D02*
X77809522Y-134179342D01*
X77809522Y-134179342D02*
X77857141Y-134274580D01*
X77857141Y-134274580D02*
X77904760Y-134322200D01*
X77904760Y-134322200D02*
X77999998Y-134369819D01*
X77999998Y-134369819D02*
X78190474Y-134369819D01*
X78190474Y-134369819D02*
X78285712Y-134322200D01*
X77380950Y-134274580D02*
X77333331Y-134322200D01*
X77333331Y-134322200D02*
X77380950Y-134369819D01*
X77380950Y-134369819D02*
X77428569Y-134322200D01*
X77428569Y-134322200D02*
X77380950Y-134274580D01*
X77380950Y-134274580D02*
X77380950Y-134369819D01*
X76904760Y-134369819D02*
X76904760Y-133703152D01*
X76904760Y-133369819D02*
X76952379Y-133417438D01*
X76952379Y-133417438D02*
X76904760Y-133465057D01*
X76904760Y-133465057D02*
X76857141Y-133417438D01*
X76857141Y-133417438D02*
X76904760Y-133369819D01*
X76904760Y-133369819D02*
X76904760Y-133465057D01*
X76285713Y-134369819D02*
X76380951Y-134322200D01*
X76380951Y-134322200D02*
X76428570Y-134274580D01*
X76428570Y-134274580D02*
X76476189Y-134179342D01*
X76476189Y-134179342D02*
X76476189Y-133893628D01*
X76476189Y-133893628D02*
X76428570Y-133798390D01*
X76428570Y-133798390D02*
X76380951Y-133750771D01*
X76380951Y-133750771D02*
X76285713Y-133703152D01*
X76285713Y-133703152D02*
X76142856Y-133703152D01*
X76142856Y-133703152D02*
X76047618Y-133750771D01*
X76047618Y-133750771D02*
X75999999Y-133798390D01*
X75999999Y-133798390D02*
X75952380Y-133893628D01*
X75952380Y-133893628D02*
X75952380Y-134179342D01*
X75952380Y-134179342D02*
X75999999Y-134274580D01*
X75999999Y-134274580D02*
X76047618Y-134322200D01*
X76047618Y-134322200D02*
X76142856Y-134369819D01*
X76142856Y-134369819D02*
X76285713Y-134369819D01*
G36*
X84027030Y-129067142D02*
G01*
X84022425Y-129081337D01*
X84019612Y-129095215D01*
X84018658Y-129108771D01*
X84020255Y-129122700D01*
X84024919Y-129137648D01*
X84032462Y-129153543D01*
X84042696Y-129170310D01*
X84055432Y-129187877D01*
X84070484Y-129206169D01*
X84106777Y-129244639D01*
X84150070Y-129285132D01*
X84198856Y-129327060D01*
X84251631Y-129369838D01*
X84306889Y-129412877D01*
X84522627Y-129575905D01*
X84567711Y-129611445D01*
X84606242Y-129643723D01*
X84636716Y-129672152D01*
X84648461Y-129684740D01*
X84657627Y-129696146D01*
X84672000Y-129720595D01*
X84685361Y-129750166D01*
X84697723Y-129783934D01*
X84709096Y-129820975D01*
X84719493Y-129860365D01*
X84728925Y-129901180D01*
X84744939Y-129983384D01*
X84757233Y-130060193D01*
X84765899Y-130124212D01*
X84772721Y-130184302D01*
X84837895Y-130177357D01*
X84909805Y-130172582D01*
X84952804Y-130171008D01*
X84999435Y-130170411D01*
X85048904Y-130171117D01*
X85100414Y-130173450D01*
X85153167Y-130177736D01*
X85206369Y-130184302D01*
X85259221Y-130193472D01*
X85285267Y-130199135D01*
X85310928Y-130205572D01*
X85336103Y-130212822D01*
X85360693Y-130220927D01*
X85384599Y-130229928D01*
X85407721Y-130239864D01*
X85452480Y-130261504D01*
X85495490Y-130284993D01*
X85516112Y-130297543D01*
X85536024Y-130310691D01*
X85555135Y-130324481D01*
X85573354Y-130338959D01*
X85590591Y-130354169D01*
X85606754Y-130370156D01*
X85621753Y-130386967D01*
X85635497Y-130404645D01*
X85647896Y-130423235D01*
X85658857Y-130442784D01*
X85668291Y-130463335D01*
X85676107Y-130484935D01*
X85682214Y-130507627D01*
X85686520Y-130531457D01*
X85688936Y-130556470D01*
X85689370Y-130582712D01*
X85687731Y-130610226D01*
X85683929Y-130639059D01*
X85677873Y-130669255D01*
X85669472Y-130700860D01*
X85658635Y-130733917D01*
X85645271Y-130768474D01*
X85629289Y-130804574D01*
X85610600Y-130842262D01*
X85589110Y-130881584D01*
X85564731Y-130922584D01*
X85537371Y-130965309D01*
X85506939Y-131009802D01*
X85438926Y-131103440D01*
X85363925Y-131200434D01*
X85283505Y-131299485D01*
X85199237Y-131399297D01*
X85025434Y-131596022D01*
X84855072Y-131780235D01*
X84700709Y-131941566D01*
X84574903Y-132069644D01*
X84459189Y-132184552D01*
X84149627Y-132184552D01*
X84134702Y-132203884D01*
X84114691Y-132221732D01*
X84089901Y-132238143D01*
X84060640Y-132253168D01*
X84027216Y-132266855D01*
X83989939Y-132279255D01*
X83905052Y-132300390D01*
X83808446Y-132316966D01*
X83702584Y-132329380D01*
X83589932Y-132338027D01*
X83472955Y-132343302D01*
X83354117Y-132345600D01*
X83235884Y-132345317D01*
X83011092Y-132338589D01*
X82818297Y-132326280D01*
X82677221Y-132311552D01*
X82637786Y-132305560D01*
X82601266Y-132298073D01*
X82567551Y-132289202D01*
X82536531Y-132279058D01*
X82508099Y-132267752D01*
X82482145Y-132255393D01*
X82458560Y-132242093D01*
X82437235Y-132227961D01*
X82418061Y-132213108D01*
X82400929Y-132197645D01*
X82385730Y-132181681D01*
X82372355Y-132165329D01*
X82360695Y-132148697D01*
X82350641Y-132131896D01*
X82342085Y-132115038D01*
X82334916Y-132098232D01*
X82329026Y-132081588D01*
X82324306Y-132065218D01*
X82317940Y-132033739D01*
X82314946Y-132004679D01*
X82314452Y-131978921D01*
X82315585Y-131957348D01*
X82317475Y-131940845D01*
X82320033Y-131926582D01*
X82318925Y-131928468D01*
X82317119Y-131928968D01*
X82314664Y-131928163D01*
X82311607Y-131926133D01*
X82303874Y-131918717D01*
X82294298Y-131907359D01*
X82283257Y-131892699D01*
X82271129Y-131875377D01*
X82258292Y-131856031D01*
X82245123Y-131835302D01*
X82219303Y-131792250D01*
X82207407Y-131771207D01*
X82196692Y-131751338D01*
X82187534Y-131733283D01*
X82180313Y-131717681D01*
X82175405Y-131705172D01*
X82173937Y-131700278D01*
X82173189Y-131696396D01*
X82168395Y-131659417D01*
X82165159Y-131625064D01*
X82163457Y-131593241D01*
X82163267Y-131563854D01*
X82164566Y-131536806D01*
X82167329Y-131512003D01*
X82171534Y-131489350D01*
X82177158Y-131468751D01*
X82184177Y-131450111D01*
X82192568Y-131433336D01*
X82202308Y-131418329D01*
X82213373Y-131404995D01*
X82225741Y-131393240D01*
X82239387Y-131382969D01*
X82254289Y-131374085D01*
X82270424Y-131366494D01*
X82287768Y-131360101D01*
X82306298Y-131354810D01*
X82325990Y-131350526D01*
X82346822Y-131347154D01*
X82368771Y-131344599D01*
X82391812Y-131342766D01*
X82441080Y-131340883D01*
X82677221Y-131343177D01*
X82680648Y-131343587D01*
X82684221Y-131344782D01*
X82687924Y-131346709D01*
X82691739Y-131349317D01*
X82695650Y-131352552D01*
X82699641Y-131356363D01*
X82707792Y-131365502D01*
X82716060Y-131376315D01*
X82724311Y-131388384D01*
X82732410Y-131401290D01*
X82740224Y-131414615D01*
X82754464Y-131440846D01*
X82765959Y-131463728D01*
X82776439Y-131486052D01*
X82797309Y-131484941D01*
X82816803Y-131484558D01*
X82834986Y-131484864D01*
X82851923Y-131485820D01*
X82867680Y-131487386D01*
X82882322Y-131489523D01*
X82895915Y-131492193D01*
X82908524Y-131495355D01*
X82920215Y-131498970D01*
X82931052Y-131502999D01*
X82941101Y-131507404D01*
X82950429Y-131512144D01*
X82959099Y-131517181D01*
X82967178Y-131522475D01*
X82981822Y-131533678D01*
X82994885Y-131545439D01*
X83006890Y-131557444D01*
X83029819Y-131580930D01*
X83041789Y-131591784D01*
X83054794Y-131601627D01*
X83061849Y-131606070D01*
X83069358Y-131610143D01*
X83077387Y-131613807D01*
X83086002Y-131617021D01*
X83126030Y-131627222D01*
X83147986Y-131631915D01*
X83171082Y-131636121D01*
X83195201Y-131639675D01*
X83220226Y-131642415D01*
X83246043Y-131644178D01*
X83272533Y-131644802D01*
X83299582Y-131644124D01*
X83327072Y-131641980D01*
X83354889Y-131638209D01*
X83382914Y-131632648D01*
X83411032Y-131625132D01*
X83425090Y-131620592D01*
X83439128Y-131615501D01*
X83453130Y-131609841D01*
X83467083Y-131603591D01*
X83480973Y-131596730D01*
X83494783Y-131589239D01*
X83507987Y-131580426D01*
X83520097Y-131569710D01*
X83531155Y-131557234D01*
X83541207Y-131543141D01*
X83550296Y-131527574D01*
X83558468Y-131510677D01*
X83565767Y-131492592D01*
X83572236Y-131473463D01*
X83582864Y-131432645D01*
X83590708Y-131389368D01*
X83596121Y-131344776D01*
X83599459Y-131300017D01*
X83601076Y-131256233D01*
X83601327Y-131214572D01*
X83599149Y-131142197D01*
X83594002Y-131073302D01*
X82970908Y-130946301D01*
X82875658Y-130858988D01*
X82775880Y-130828535D01*
X82679252Y-130791535D01*
X82586229Y-130749164D01*
X82497263Y-130702595D01*
X82412809Y-130653003D01*
X82333320Y-130601562D01*
X82259249Y-130549447D01*
X82191049Y-130497832D01*
X82129175Y-130447891D01*
X82074080Y-130400799D01*
X81986038Y-130319858D01*
X81911252Y-130243832D01*
X81911252Y-130085082D01*
X81716784Y-130041426D01*
X81666044Y-130073679D01*
X81615033Y-130110675D01*
X81512230Y-130197494D01*
X81408439Y-130299079D01*
X81303724Y-130412628D01*
X81198148Y-130535339D01*
X81091776Y-130664411D01*
X80876897Y-130930426D01*
X80768519Y-131061764D01*
X80659600Y-131188255D01*
X80550205Y-131307094D01*
X80440397Y-131415481D01*
X80330240Y-131510613D01*
X80275050Y-131552333D01*
X80219798Y-131589688D01*
X80164490Y-131622328D01*
X80109135Y-131649903D01*
X80053741Y-131672063D01*
X79998315Y-131688457D01*
X79949044Y-131701744D01*
X79901057Y-131717734D01*
X79854524Y-131736341D01*
X79809613Y-131757476D01*
X79766493Y-131781053D01*
X79725332Y-131806985D01*
X79686298Y-131835184D01*
X79649561Y-131865563D01*
X79615289Y-131898034D01*
X79583650Y-131932512D01*
X79554814Y-131968908D01*
X79528948Y-132007135D01*
X79506222Y-132047107D01*
X79486803Y-132088735D01*
X79470862Y-132131933D01*
X79464247Y-132154093D01*
X79458565Y-132176613D01*
X79453848Y-132189896D01*
X79446503Y-132202235D01*
X79436691Y-132213662D01*
X79424575Y-132224207D01*
X79410316Y-132233903D01*
X79394077Y-132242783D01*
X79376021Y-132250878D01*
X79356307Y-132258220D01*
X79312561Y-132270774D01*
X79264135Y-132280699D01*
X79212325Y-132288253D01*
X79158428Y-132293691D01*
X79103741Y-132297268D01*
X79049559Y-132299241D01*
X78947898Y-132299396D01*
X78863818Y-132296202D01*
X78807689Y-132291706D01*
X78744784Y-132281946D01*
X78684702Y-132269158D01*
X78627290Y-132253523D01*
X78572394Y-132235221D01*
X78519862Y-132214434D01*
X78469539Y-132191343D01*
X78421273Y-132166128D01*
X78374910Y-132138971D01*
X78330297Y-132110052D01*
X78287281Y-132079553D01*
X78245708Y-132047654D01*
X78205424Y-132014537D01*
X78128114Y-131945369D01*
X78054123Y-131873499D01*
X77911194Y-131727438D01*
X77839802Y-131656143D01*
X77766823Y-131587935D01*
X77691030Y-131524261D01*
X77651695Y-131494577D01*
X77611196Y-131466570D01*
X77569381Y-131440420D01*
X77526096Y-131416309D01*
X77481187Y-131394416D01*
X77434501Y-131374925D01*
X77364333Y-131349344D01*
X77295456Y-131325990D01*
X77163014Y-131284821D01*
X76929478Y-131216670D01*
X76834151Y-131185130D01*
X76793109Y-131168996D01*
X76756962Y-131152240D01*
X76726070Y-131134578D01*
X76700795Y-131115723D01*
X76681496Y-131095392D01*
X76674200Y-131084584D01*
X76668534Y-131073299D01*
X76660284Y-131052161D01*
X76654069Y-131029017D01*
X76649785Y-131004005D01*
X76647325Y-130977259D01*
X76646587Y-130948914D01*
X76647465Y-130919105D01*
X76653651Y-130855638D01*
X76665045Y-130787939D01*
X76680812Y-130717089D01*
X76700113Y-130644169D01*
X76722112Y-130570261D01*
X76894752Y-130073174D01*
X76905908Y-130031453D01*
X76914604Y-129989807D01*
X76927805Y-129907789D01*
X76940727Y-129829212D01*
X76949074Y-129791869D01*
X76959741Y-129756171D01*
X76966193Y-129739020D01*
X76973524Y-129722379D01*
X76981833Y-129706280D01*
X76991220Y-129690756D01*
X77001784Y-129675840D01*
X77013624Y-129661563D01*
X77026841Y-129647960D01*
X77041534Y-129635062D01*
X77057803Y-129622902D01*
X77075746Y-129611514D01*
X77095465Y-129600929D01*
X77117057Y-129591181D01*
X77140623Y-129582302D01*
X77166262Y-129574324D01*
X77194074Y-129567282D01*
X77224159Y-129561206D01*
X77253411Y-129557374D01*
X77280930Y-129556921D01*
X77306773Y-129559669D01*
X77330997Y-129565438D01*
X77353661Y-129574050D01*
X77374821Y-129585327D01*
X77394535Y-129599088D01*
X77412860Y-129615156D01*
X77429854Y-129633352D01*
X77445574Y-129653497D01*
X77460078Y-129675412D01*
X77473422Y-129698919D01*
X77485665Y-129723838D01*
X77496864Y-129749991D01*
X77507075Y-129777199D01*
X77516358Y-129805284D01*
X77532364Y-129863368D01*
X77545341Y-129922812D01*
X77555748Y-129982186D01*
X77564045Y-130040061D01*
X77585315Y-130227956D01*
X77716284Y-130227956D01*
X77716933Y-130245028D01*
X77718824Y-130261281D01*
X77721876Y-130276733D01*
X77726004Y-130291402D01*
X77731126Y-130305307D01*
X77737160Y-130318466D01*
X77744022Y-130330896D01*
X77751630Y-130342616D01*
X77759901Y-130353645D01*
X77768751Y-130364000D01*
X77778099Y-130373699D01*
X77787861Y-130382761D01*
X77797954Y-130391204D01*
X77808295Y-130399046D01*
X77818803Y-130406305D01*
X77829393Y-130412999D01*
X77850491Y-130424767D01*
X77870925Y-130434494D01*
X77890035Y-130442325D01*
X77907156Y-130448407D01*
X77921626Y-130452885D01*
X77932782Y-130455903D01*
X77942502Y-130458143D01*
X77957134Y-130435743D01*
X77967700Y-130403959D01*
X77974436Y-130363453D01*
X77977578Y-130314888D01*
X77974027Y-130196226D01*
X77958936Y-130053268D01*
X77934194Y-129891312D01*
X77901691Y-129715653D01*
X77820960Y-129344412D01*
X77731856Y-128981915D01*
X77649497Y-128670531D01*
X77565471Y-128370580D01*
X77528075Y-128344940D01*
X77489174Y-128321545D01*
X77476356Y-128314718D01*
X78096493Y-128314718D01*
X78112970Y-128488157D01*
X78143329Y-128681130D01*
X78184927Y-128887823D01*
X78235117Y-129102422D01*
X78291254Y-129319115D01*
X78410789Y-129735523D01*
X78522372Y-130090540D01*
X78637032Y-130430365D01*
X78677522Y-130440349D01*
X78710368Y-130449410D01*
X78736575Y-130457459D01*
X78757148Y-130464409D01*
X78785418Y-130474664D01*
X78795125Y-130477795D01*
X78803223Y-130479478D01*
X78810716Y-130479626D01*
X78818609Y-130478152D01*
X78827910Y-130474969D01*
X78839624Y-130469990D01*
X78874311Y-130454293D01*
X78899297Y-130443402D01*
X78930718Y-130430365D01*
X78975775Y-130404931D01*
X79039099Y-130358795D01*
X79117841Y-130294789D01*
X79209151Y-130215742D01*
X79418084Y-130023855D01*
X79643109Y-129805783D01*
X79861437Y-129584176D01*
X80050278Y-129381685D01*
X80126520Y-129294685D01*
X80186843Y-129220958D01*
X80228401Y-129163335D01*
X80241252Y-129141447D01*
X80248343Y-129124646D01*
X80252000Y-129110715D01*
X80254811Y-129097193D01*
X80256812Y-129084068D01*
X80258040Y-129071332D01*
X80258533Y-129058973D01*
X80258328Y-129046983D01*
X80257462Y-129035349D01*
X80255971Y-129024063D01*
X80253893Y-129013115D01*
X80251265Y-129002493D01*
X80248123Y-128992188D01*
X80244506Y-128982190D01*
X80240450Y-128972488D01*
X80235992Y-128963073D01*
X80226019Y-128945060D01*
X80214883Y-128928071D01*
X80202881Y-128912024D01*
X80190309Y-128896837D01*
X80177464Y-128882429D01*
X80129281Y-128830959D01*
X80124483Y-128823679D01*
X80120481Y-128814581D01*
X80117231Y-128803798D01*
X80114693Y-128791465D01*
X80111579Y-128762687D01*
X80110802Y-128729322D01*
X80112025Y-128692445D01*
X80114910Y-128653132D01*
X80119121Y-128612459D01*
X80124321Y-128571502D01*
X80136335Y-128493034D01*
X80148257Y-128426332D01*
X80161032Y-128362646D01*
X80174375Y-128358122D01*
X80186158Y-128352779D01*
X80196423Y-128346682D01*
X80205215Y-128339896D01*
X80212577Y-128332484D01*
X80218551Y-128324512D01*
X80223183Y-128316044D01*
X80226516Y-128307146D01*
X80228593Y-128297881D01*
X80229458Y-128288314D01*
X80229154Y-128278511D01*
X80227725Y-128268536D01*
X80225215Y-128258452D01*
X80221667Y-128248326D01*
X80217126Y-128238222D01*
X80211633Y-128228205D01*
X80205234Y-128218338D01*
X80197971Y-128208687D01*
X80189889Y-128199317D01*
X80181030Y-128190292D01*
X80171439Y-128181677D01*
X80161159Y-128173536D01*
X80150234Y-128165935D01*
X80138707Y-128158938D01*
X80126622Y-128152609D01*
X80114023Y-128147013D01*
X80100952Y-128142215D01*
X80087455Y-128138280D01*
X80073573Y-128135272D01*
X80059352Y-128133256D01*
X80044834Y-128132297D01*
X80030063Y-128132459D01*
X79733027Y-128146163D01*
X79234328Y-128164705D01*
X78557657Y-128188021D01*
X78514000Y-128072927D01*
X78406843Y-128072927D01*
X78351281Y-127969740D01*
X78156812Y-127969740D01*
X78133398Y-128004733D01*
X78115769Y-128049696D01*
X78103595Y-128103903D01*
X78096545Y-128166627D01*
X78096493Y-128314718D01*
X77476356Y-128314718D01*
X77449307Y-128300311D01*
X77409016Y-128281159D01*
X77368841Y-128264007D01*
X77329323Y-128248774D01*
X77291003Y-128235377D01*
X77254421Y-128223737D01*
X77188634Y-128205397D01*
X77136289Y-128193103D01*
X77089222Y-128184049D01*
X77065379Y-128162157D01*
X77042936Y-128139697D01*
X77021850Y-128116752D01*
X77002080Y-128093403D01*
X76966316Y-128045831D01*
X76935308Y-127997642D01*
X76908719Y-127949499D01*
X76886210Y-127902066D01*
X76867446Y-127856005D01*
X76852088Y-127811979D01*
X76839800Y-127770650D01*
X76830245Y-127732682D01*
X76817982Y-127669476D01*
X76811408Y-127612549D01*
X76792412Y-127600545D01*
X76774829Y-127586228D01*
X76758603Y-127569777D01*
X76743684Y-127551367D01*
X76730018Y-127531176D01*
X76717551Y-127509379D01*
X76706231Y-127486153D01*
X76696005Y-127461675D01*
X76678622Y-127409670D01*
X76664976Y-127354775D01*
X76654645Y-127298403D01*
X76647202Y-127241968D01*
X76642225Y-127186881D01*
X76639288Y-127134556D01*
X76637838Y-127043840D01*
X76640753Y-126957706D01*
X76643896Y-126938907D01*
X76648778Y-126920473D01*
X76655279Y-126902417D01*
X76663279Y-126884757D01*
X76672656Y-126867506D01*
X76683291Y-126850680D01*
X76695063Y-126834295D01*
X76707850Y-126818365D01*
X76721533Y-126802907D01*
X76735990Y-126787934D01*
X76751101Y-126773463D01*
X76766746Y-126759509D01*
X76799153Y-126733211D01*
X76832246Y-126709163D01*
X76865060Y-126687487D01*
X76896630Y-126668305D01*
X76925990Y-126651739D01*
X76952177Y-126637911D01*
X76991167Y-126618959D01*
X77005879Y-126612425D01*
X77007677Y-126566474D01*
X77011948Y-126517616D01*
X77015517Y-126489220D01*
X77020266Y-126459132D01*
X77026363Y-126428067D01*
X77033978Y-126396740D01*
X77043279Y-126365867D01*
X77048614Y-126350824D01*
X77054434Y-126336162D01*
X77060760Y-126321972D01*
X77067612Y-126308341D01*
X77075013Y-126295361D01*
X77082982Y-126283119D01*
X77091542Y-126271706D01*
X77100713Y-126261211D01*
X77110516Y-126251722D01*
X77120972Y-126243331D01*
X77142020Y-126226549D01*
X77162295Y-126209162D01*
X77202269Y-126173878D01*
X77222841Y-126156631D01*
X77244383Y-126140081D01*
X77255654Y-126132170D01*
X77267332Y-126124555D01*
X77279470Y-126117278D01*
X77292124Y-126110378D01*
X77305347Y-126103897D01*
X77319195Y-126097875D01*
X77333721Y-126092353D01*
X77348981Y-126087371D01*
X77365028Y-126082972D01*
X77381918Y-126079194D01*
X77399704Y-126076078D01*
X77418442Y-126073667D01*
X77438185Y-126071999D01*
X77458989Y-126071117D01*
X77480907Y-126071059D01*
X77503995Y-126071868D01*
X77528306Y-126073584D01*
X77553896Y-126076248D01*
X77580818Y-126079900D01*
X77609128Y-126084581D01*
X77626853Y-126089033D01*
X77643582Y-126095593D01*
X77659345Y-126104113D01*
X77674170Y-126114447D01*
X77688086Y-126126446D01*
X77701119Y-126139964D01*
X77713300Y-126154852D01*
X77724656Y-126170963D01*
X77735215Y-126188150D01*
X77745006Y-126206264D01*
X77762397Y-126244687D01*
X77777056Y-126285052D01*
X77789210Y-126326178D01*
X77799084Y-126366886D01*
X77806906Y-126405995D01*
X77812903Y-126442325D01*
X77817301Y-126474697D01*
X77823440Y-126540987D01*
X77868074Y-126581028D01*
X77909831Y-126620587D01*
X77948901Y-126659366D01*
X77985477Y-126697071D01*
X78110679Y-126831202D01*
X78137662Y-126859081D01*
X78163303Y-126884106D01*
X78187793Y-126905979D01*
X78211323Y-126924406D01*
X78234086Y-126939088D01*
X78245240Y-126944932D01*
X78256274Y-126949730D01*
X78267212Y-126953443D01*
X78278078Y-126956035D01*
X78288896Y-126957468D01*
X78299690Y-126957706D01*
X78310522Y-126956742D01*
X78321420Y-126954645D01*
X78332358Y-126951492D01*
X78343307Y-126947358D01*
X78354243Y-126942320D01*
X78365137Y-126936454D01*
X78375962Y-126929837D01*
X78386692Y-126922545D01*
X78397301Y-126914654D01*
X78407760Y-126906241D01*
X78428124Y-126888152D01*
X78447570Y-126868889D01*
X78465881Y-126849061D01*
X78482845Y-126829281D01*
X78498244Y-126810157D01*
X78523490Y-126776322D01*
X78545753Y-126743394D01*
X78688318Y-126745192D01*
X79025475Y-126745874D01*
X79224587Y-126743587D01*
X79421420Y-126738371D01*
X79598999Y-126729340D01*
X79675263Y-126723119D01*
X79740347Y-126715612D01*
X79798909Y-126705990D01*
X79858169Y-126693699D01*
X79917615Y-126679048D01*
X79976736Y-126662344D01*
X80035019Y-126643897D01*
X80091953Y-126624013D01*
X80147027Y-126603002D01*
X80199730Y-126581171D01*
X80249548Y-126558828D01*
X80295972Y-126536282D01*
X80338488Y-126513841D01*
X80376587Y-126491812D01*
X80409755Y-126470504D01*
X80437482Y-126450226D01*
X80459256Y-126431284D01*
X80474565Y-126413987D01*
X80480152Y-126405645D01*
X80485030Y-126397014D01*
X80489233Y-126388129D01*
X80492797Y-126379028D01*
X80495756Y-126369747D01*
X80498146Y-126360322D01*
X80500000Y-126350789D01*
X80501355Y-126341186D01*
X80502703Y-126321910D01*
X80502471Y-126302785D01*
X80500936Y-126284102D01*
X80498378Y-126266151D01*
X80495076Y-126249224D01*
X80491309Y-126233611D01*
X80483495Y-126207488D01*
X80474565Y-126183800D01*
X80133253Y-126167925D01*
X80119582Y-126162171D01*
X80106112Y-126155381D01*
X80092859Y-126147635D01*
X80079838Y-126139012D01*
X80067063Y-126129593D01*
X80054551Y-126119457D01*
X80042317Y-126108685D01*
X80030375Y-126097356D01*
X80007432Y-126073348D01*
X79985843Y-126048072D01*
X79965731Y-126022168D01*
X79947218Y-125996276D01*
X79930425Y-125971036D01*
X79915475Y-125947086D01*
X79891593Y-125905615D01*
X79871315Y-125866299D01*
X79478409Y-125854393D01*
X79466002Y-125840749D01*
X79456216Y-125826634D01*
X79448905Y-125812087D01*
X79443923Y-125797149D01*
X79441124Y-125781858D01*
X79440362Y-125766256D01*
X79441491Y-125750382D01*
X79444365Y-125734276D01*
X79448837Y-125717979D01*
X79454763Y-125701530D01*
X79461994Y-125684968D01*
X79470387Y-125668335D01*
X79479793Y-125651670D01*
X79490069Y-125635012D01*
X79512640Y-125601882D01*
X79536932Y-125569263D01*
X79561776Y-125537475D01*
X79608448Y-125477672D01*
X79627938Y-125450297D01*
X79643306Y-125425032D01*
X79649079Y-125413291D01*
X79653384Y-125402198D01*
X79656074Y-125391791D01*
X79657003Y-125382113D01*
X79655439Y-125371816D01*
X79652307Y-125362478D01*
X79647713Y-125354056D01*
X79641763Y-125346511D01*
X79634563Y-125339800D01*
X79626219Y-125333881D01*
X79616837Y-125328714D01*
X79606524Y-125324257D01*
X79595385Y-125320468D01*
X79583527Y-125317307D01*
X79571056Y-125314731D01*
X79558077Y-125312700D01*
X79531022Y-125310104D01*
X79503212Y-125309189D01*
X79475494Y-125309622D01*
X79448719Y-125311073D01*
X79423734Y-125313209D01*
X79401388Y-125315700D01*
X79355375Y-125322584D01*
X79323137Y-125314097D01*
X79293178Y-125305104D01*
X79265172Y-125295751D01*
X79238793Y-125286183D01*
X79143048Y-125248666D01*
X79119925Y-125240202D01*
X79096477Y-125232396D01*
X79072377Y-125225391D01*
X79047301Y-125219335D01*
X79020923Y-125214371D01*
X78992917Y-125210645D01*
X78962958Y-125208304D01*
X78930719Y-125207491D01*
X78885929Y-125214896D01*
X78820199Y-125235853D01*
X78736028Y-125268472D01*
X78635916Y-125310864D01*
X78126055Y-125540370D01*
X77840476Y-125664633D01*
X77698773Y-125722530D01*
X77561129Y-125775084D01*
X77430042Y-125820406D01*
X77308012Y-125856606D01*
X77197540Y-125881796D01*
X77147420Y-125889671D01*
X77101126Y-125894085D01*
X77056792Y-125895450D01*
X77013140Y-125894403D01*
X76970245Y-125891044D01*
X76928183Y-125885473D01*
X76887031Y-125877788D01*
X76846865Y-125868089D01*
X76807762Y-125856476D01*
X76769797Y-125843049D01*
X76733048Y-125827907D01*
X76697589Y-125811149D01*
X76663499Y-125792875D01*
X76630852Y-125773185D01*
X76599726Y-125752178D01*
X76570196Y-125729954D01*
X76542339Y-125706612D01*
X76516231Y-125682252D01*
X76491949Y-125656974D01*
X76469569Y-125630877D01*
X76449166Y-125604060D01*
X76430818Y-125576623D01*
X76414601Y-125548666D01*
X76400590Y-125520288D01*
X76388863Y-125491589D01*
X76379496Y-125462669D01*
X76372564Y-125433626D01*
X76368144Y-125404561D01*
X76366313Y-125375573D01*
X76367147Y-125346761D01*
X76370722Y-125318226D01*
X76377115Y-125290066D01*
X76386401Y-125262381D01*
X76398657Y-125235272D01*
X76412733Y-125209022D01*
X76427508Y-125183819D01*
X76443096Y-125159620D01*
X76459614Y-125136379D01*
X76477179Y-125114050D01*
X76495907Y-125092589D01*
X76515913Y-125071950D01*
X76537315Y-125052089D01*
X76560228Y-125032961D01*
X76584769Y-125014520D01*
X76611055Y-124996721D01*
X76639200Y-124979520D01*
X76669322Y-124962871D01*
X76701538Y-124946729D01*
X76735962Y-124931050D01*
X76772712Y-124915788D01*
X76811903Y-124900897D01*
X76853652Y-124886334D01*
X76898076Y-124872053D01*
X76945290Y-124858008D01*
X76995411Y-124844156D01*
X77048555Y-124830450D01*
X77104839Y-124816846D01*
X77164378Y-124803298D01*
X77293688Y-124776193D01*
X77437415Y-124748775D01*
X77596491Y-124720681D01*
X77771845Y-124691553D01*
X77859845Y-124676273D01*
X77942392Y-124659536D01*
X78019661Y-124641468D01*
X78091825Y-124622193D01*
X78159059Y-124601837D01*
X78221538Y-124580525D01*
X78279435Y-124558382D01*
X78332926Y-124535532D01*
X78382185Y-124512100D01*
X78427386Y-124488213D01*
X78468703Y-124463994D01*
X78506311Y-124439569D01*
X78540385Y-124415062D01*
X78571098Y-124390599D01*
X78623141Y-124342303D01*
X78663836Y-124295682D01*
X78694579Y-124251735D01*
X78716764Y-124211462D01*
X78731786Y-124175864D01*
X78741041Y-124145939D01*
X78745925Y-124122689D01*
X78748157Y-124100209D01*
X78684447Y-124076261D01*
X78624223Y-124050656D01*
X78567388Y-124023555D01*
X78513846Y-123995115D01*
X78463502Y-123965495D01*
X78416259Y-123934853D01*
X78372022Y-123903348D01*
X78330694Y-123871138D01*
X78292181Y-123838382D01*
X78256385Y-123805237D01*
X78223211Y-123771863D01*
X78192563Y-123738417D01*
X78164346Y-123705059D01*
X78138462Y-123671947D01*
X78093314Y-123607092D01*
X78056351Y-123545121D01*
X78026806Y-123487301D01*
X78003912Y-123434899D01*
X77986902Y-123389183D01*
X77967461Y-123322877D01*
X77962345Y-123298522D01*
X78009733Y-123331813D01*
X78053836Y-123360402D01*
X78094904Y-123384514D01*
X78133187Y-123404376D01*
X78168936Y-123420215D01*
X78202400Y-123432258D01*
X78233829Y-123440731D01*
X78263474Y-123445862D01*
X78291584Y-123447876D01*
X78318409Y-123447001D01*
X78344199Y-123443463D01*
X78369204Y-123437490D01*
X78393674Y-123429307D01*
X78417860Y-123419142D01*
X78442011Y-123407221D01*
X78466376Y-123393772D01*
X78477899Y-123385168D01*
X78487959Y-123373634D01*
X78496628Y-123359382D01*
X78503979Y-123342620D01*
X78510082Y-123323559D01*
X78515010Y-123302408D01*
X78521629Y-123254679D01*
X78524410Y-123201114D01*
X78523931Y-123143392D01*
X78520765Y-123083193D01*
X78515489Y-123022198D01*
X78500909Y-122904538D01*
X78484794Y-122803854D01*
X78466376Y-122707178D01*
X78468931Y-122691947D01*
X78472811Y-122678208D01*
X78477925Y-122665895D01*
X78484182Y-122654941D01*
X78491487Y-122645281D01*
X78499749Y-122636848D01*
X78508877Y-122629577D01*
X78518776Y-122623400D01*
X78529356Y-122618253D01*
X78540524Y-122614069D01*
X78552188Y-122610781D01*
X78564254Y-122608324D01*
X78576632Y-122606631D01*
X78589229Y-122605637D01*
X78601952Y-122605275D01*
X78614709Y-122605479D01*
X78639956Y-122607321D01*
X78664233Y-122610634D01*
X78686801Y-122614888D01*
X78706921Y-122619556D01*
X78736865Y-122628013D01*
X78748158Y-122631772D01*
X78750219Y-122584409D01*
X78756226Y-122539037D01*
X78765915Y-122495625D01*
X78779025Y-122454139D01*
X78795291Y-122414549D01*
X78814451Y-122376822D01*
X78836242Y-122340927D01*
X78860400Y-122306831D01*
X78886662Y-122274502D01*
X78914767Y-122243908D01*
X78944449Y-122215018D01*
X78975447Y-122187799D01*
X79007497Y-122162220D01*
X79040336Y-122138248D01*
X79073702Y-122115851D01*
X79107330Y-122094999D01*
X79174324Y-122057795D01*
X79239214Y-122026383D01*
X79299894Y-122000504D01*
X79354261Y-121979905D01*
X79435636Y-121953519D01*
X79466502Y-121945178D01*
X79453053Y-121966581D01*
X79440952Y-121987619D01*
X79430149Y-122008274D01*
X79420598Y-122028530D01*
X79412250Y-122048370D01*
X79405058Y-122067778D01*
X79398974Y-122086737D01*
X79393948Y-122105231D01*
X79389935Y-122123241D01*
X79386885Y-122140753D01*
X79384750Y-122157748D01*
X79383484Y-122174211D01*
X79383362Y-122205471D01*
X79386135Y-122234401D01*
X79391419Y-122260865D01*
X79398832Y-122284731D01*
X79407988Y-122305865D01*
X79418505Y-122324132D01*
X79429999Y-122339399D01*
X79442085Y-122351533D01*
X79454381Y-122360400D01*
X79466502Y-122365866D01*
X79474656Y-122365586D01*
X79487038Y-122361207D01*
X79523445Y-122341247D01*
X79573641Y-122308172D01*
X79635546Y-122264167D01*
X79958627Y-122022569D01*
X80136306Y-121893026D01*
X80221896Y-121833720D01*
X80302544Y-121780971D01*
X80376169Y-121736966D01*
X80440690Y-121703891D01*
X80468887Y-121692135D01*
X80494026Y-121683931D01*
X80515849Y-121679552D01*
X80534095Y-121679272D01*
X80550643Y-121681678D01*
X80567508Y-121685127D01*
X80601967Y-121694860D01*
X80637031Y-121707884D01*
X80672257Y-121723610D01*
X80707205Y-121741453D01*
X80741431Y-121760825D01*
X80774495Y-121781139D01*
X80805955Y-121801807D01*
X80862292Y-121841859D01*
X80906910Y-121876283D01*
X80946845Y-121909460D01*
X80961742Y-121874902D01*
X80978072Y-121842617D01*
X80995710Y-121812526D01*
X81014531Y-121784552D01*
X81034410Y-121758620D01*
X81055223Y-121734651D01*
X81076843Y-121712568D01*
X81099146Y-121692295D01*
X81122008Y-121673754D01*
X81145302Y-121656868D01*
X81168905Y-121641562D01*
X81192691Y-121627756D01*
X81216535Y-121615375D01*
X81240312Y-121604341D01*
X81287166Y-121586007D01*
X81332252Y-121572137D01*
X81374571Y-121562117D01*
X81413123Y-121555328D01*
X81446908Y-121551156D01*
X81496176Y-121548195D01*
X81514377Y-121548303D01*
X81500759Y-121561382D01*
X81488870Y-121575265D01*
X81478624Y-121589871D01*
X81469938Y-121605122D01*
X81462725Y-121620936D01*
X81456901Y-121637234D01*
X81452380Y-121653936D01*
X81449078Y-121670963D01*
X81446910Y-121688233D01*
X81445791Y-121705668D01*
X81445635Y-121723187D01*
X81446358Y-121740710D01*
X81450099Y-121775450D01*
X81456334Y-121809249D01*
X81464383Y-121841466D01*
X81473565Y-121871462D01*
X81483201Y-121898598D01*
X81492611Y-121922234D01*
X81508028Y-121956449D01*
X81514377Y-121968991D01*
X81557273Y-121969947D01*
X81596914Y-121968456D01*
X81633672Y-121964674D01*
X81667918Y-121958759D01*
X81700024Y-121950867D01*
X81730364Y-121941155D01*
X81759308Y-121929781D01*
X81787228Y-121916901D01*
X81814498Y-121902672D01*
X81841489Y-121887252D01*
X81896121Y-121853463D01*
X81954102Y-121816791D01*
X81985278Y-121797766D01*
X82018408Y-121778491D01*
X82044560Y-121765132D01*
X82072288Y-121753291D01*
X82101400Y-121742903D01*
X82131703Y-121733904D01*
X82163006Y-121726231D01*
X82195118Y-121719820D01*
X82227846Y-121714606D01*
X82260998Y-121710526D01*
X82294382Y-121707516D01*
X82327808Y-121705511D01*
X82361082Y-121704448D01*
X82394013Y-121704263D01*
X82426409Y-121704892D01*
X82458079Y-121706270D01*
X82488830Y-121708335D01*
X82518471Y-121711022D01*
X82533708Y-121713088D01*
X82549585Y-121716200D01*
X82565997Y-121720196D01*
X82582839Y-121724913D01*
X82617395Y-121735858D01*
X82652416Y-121747733D01*
X82687065Y-121759236D01*
X82703988Y-121764441D01*
X82720505Y-121769065D01*
X82736510Y-121772945D01*
X82751898Y-121775917D01*
X82766566Y-121777820D01*
X82780408Y-121778491D01*
X82757397Y-121780351D01*
X82735237Y-121784345D01*
X82713923Y-121790331D01*
X82693444Y-121798164D01*
X82673795Y-121807701D01*
X82654965Y-121818797D01*
X82636948Y-121831308D01*
X82619736Y-121845091D01*
X82603320Y-121860003D01*
X82587692Y-121875898D01*
X82572845Y-121892633D01*
X82558771Y-121910064D01*
X82545461Y-121928048D01*
X82532907Y-121946440D01*
X82510037Y-121983874D01*
X82490098Y-122021214D01*
X82473024Y-122057311D01*
X82458753Y-122091012D01*
X82447219Y-122121168D01*
X82432112Y-122166235D01*
X82427190Y-122183303D01*
X82531580Y-122180492D01*
X82624953Y-122179420D01*
X82708013Y-122179963D01*
X82781463Y-122182001D01*
X82846006Y-122185411D01*
X82902347Y-122190070D01*
X82951188Y-122195858D01*
X82993233Y-122202651D01*
X83029185Y-122210328D01*
X83059748Y-122218766D01*
X83085625Y-122227844D01*
X83107520Y-122237440D01*
X83126136Y-122247430D01*
X83142177Y-122257694D01*
X83169346Y-122278553D01*
X83175282Y-122283829D01*
X83180464Y-122289225D01*
X83184930Y-122294723D01*
X83188717Y-122300304D01*
X83191861Y-122305949D01*
X83194400Y-122311639D01*
X83196370Y-122317355D01*
X83197809Y-122323078D01*
X83198754Y-122328790D01*
X83199242Y-122334471D01*
X83199310Y-122340102D01*
X83198995Y-122345666D01*
X83198334Y-122351142D01*
X83197364Y-122356512D01*
X83194647Y-122366858D01*
X83191138Y-122376553D01*
X83187135Y-122385446D01*
X83182935Y-122393386D01*
X83178834Y-122400221D01*
X83172113Y-122409972D01*
X83169346Y-122413491D01*
X83188015Y-122430525D01*
X83207499Y-122445954D01*
X83227706Y-122459849D01*
X83248542Y-122472278D01*
X83269917Y-122483312D01*
X83291736Y-122493021D01*
X83313909Y-122501474D01*
X83336343Y-122508741D01*
X83381624Y-122519996D01*
X83426841Y-122527345D01*
X83471256Y-122531344D01*
X83514131Y-122532554D01*
X83554726Y-122531530D01*
X83592304Y-122528833D01*
X83626127Y-122525019D01*
X83655455Y-122520647D01*
X83713064Y-122508741D01*
X83722466Y-122523623D01*
X83729906Y-122539196D01*
X83735495Y-122555383D01*
X83739342Y-122572109D01*
X83741555Y-122589298D01*
X83742243Y-122606872D01*
X83741515Y-122624755D01*
X83739481Y-122642872D01*
X83736250Y-122661146D01*
X83731929Y-122679501D01*
X83720459Y-122716147D01*
X83705943Y-122752200D01*
X83689252Y-122787050D01*
X83671259Y-122820085D01*
X83652835Y-122850697D01*
X83634854Y-122878274D01*
X83618186Y-122902205D01*
X83582095Y-122949272D01*
X83599274Y-122976764D01*
X83617997Y-123002008D01*
X83638158Y-123025106D01*
X83659649Y-123046158D01*
X83682364Y-123065265D01*
X83706195Y-123082529D01*
X83731037Y-123098050D01*
X83756782Y-123111929D01*
X83783324Y-123124268D01*
X83810555Y-123135167D01*
X83838369Y-123144727D01*
X83866659Y-123153051D01*
X83924240Y-123166388D01*
X83982443Y-123175987D01*
X84040414Y-123182656D01*
X84097297Y-123187203D01*
X84204383Y-123193164D01*
X84252877Y-123196194D01*
X84296866Y-123200334D01*
X84335494Y-123206393D01*
X84367908Y-123215178D01*
X84381150Y-123220613D01*
X84391945Y-123226474D01*
X84400423Y-123232722D01*
X84406720Y-123239316D01*
X84410967Y-123246219D01*
X84413298Y-123253391D01*
X84413845Y-123260793D01*
X84412743Y-123268384D01*
X84410123Y-123276127D01*
X84406118Y-123283982D01*
X84400862Y-123291910D01*
X84394488Y-123299871D01*
X84387128Y-123307826D01*
X84378916Y-123315736D01*
X84360467Y-123331264D01*
X84340204Y-123346141D01*
X84319190Y-123360053D01*
X84298491Y-123372686D01*
X84279169Y-123383726D01*
X84236939Y-123405678D01*
X84232466Y-123451131D01*
X84226638Y-123495084D01*
X84219682Y-123537339D01*
X84211825Y-123577699D01*
X84203293Y-123615966D01*
X84194314Y-123651942D01*
X84175920Y-123716233D01*
X84158456Y-123768989D01*
X84143736Y-123808630D01*
X84129783Y-123842241D01*
X84158036Y-123866430D01*
X84181911Y-123892045D01*
X84201610Y-123918975D01*
X84217336Y-123947110D01*
X84229292Y-123976342D01*
X84237681Y-124006559D01*
X84242705Y-124037653D01*
X84244567Y-124069514D01*
X84243470Y-124102031D01*
X84239617Y-124135096D01*
X84233210Y-124168598D01*
X84224452Y-124202428D01*
X84213546Y-124236476D01*
X84200694Y-124270632D01*
X84169967Y-124338831D01*
X84133890Y-124406145D01*
X84094088Y-124471699D01*
X84052180Y-124534612D01*
X84009790Y-124594009D01*
X83867846Y-124778866D01*
X83857027Y-124795376D01*
X83849056Y-124812904D01*
X83843830Y-124831448D01*
X83841243Y-124851001D01*
X83841190Y-124871560D01*
X83843568Y-124893120D01*
X83848271Y-124915678D01*
X83855195Y-124939228D01*
X83864235Y-124963766D01*
X83875287Y-124989289D01*
X83888245Y-125015791D01*
X83903006Y-125043268D01*
X83937516Y-125101131D01*
X83977978Y-125162842D01*
X84023557Y-125228367D01*
X84073414Y-125297671D01*
X84182617Y-125447476D01*
X84240288Y-125527907D01*
X84298889Y-125611977D01*
X84357583Y-125699652D01*
X84415533Y-125790897D01*
X84470931Y-125890030D01*
X84524038Y-126000000D01*
X84574890Y-126118714D01*
X84623520Y-126244078D01*
X84714259Y-126506388D01*
X84796533Y-126770186D01*
X84936803Y-127235274D01*
X84995358Y-127403077D01*
X85021862Y-127463469D01*
X85046564Y-127505397D01*
X85063833Y-127531585D01*
X85079236Y-127558726D01*
X85092858Y-127586702D01*
X85104786Y-127615398D01*
X85115106Y-127644695D01*
X85123906Y-127674476D01*
X85137287Y-127735026D01*
X85145623Y-127796110D01*
X85149605Y-127856793D01*
X85149923Y-127916140D01*
X85147271Y-127973213D01*
X85142340Y-128027076D01*
X85135822Y-128076795D01*
X85120792Y-128160054D01*
X85102127Y-128235646D01*
X85167221Y-128335028D01*
X85231646Y-128429068D01*
X85295571Y-128517446D01*
X85359165Y-128599841D01*
X85422597Y-128675934D01*
X85486034Y-128745406D01*
X85549645Y-128807936D01*
X85613599Y-128863205D01*
X85678065Y-128910893D01*
X85710543Y-128931794D01*
X85743212Y-128950680D01*
X85776093Y-128967511D01*
X85809207Y-128982247D01*
X85842575Y-128994848D01*
X85876219Y-129005273D01*
X85910159Y-129013484D01*
X85944417Y-129019440D01*
X85979014Y-129023101D01*
X86013970Y-129024427D01*
X86049307Y-129023378D01*
X86085046Y-129019915D01*
X86121208Y-129013996D01*
X86157814Y-129005583D01*
X86218400Y-128990978D01*
X86275224Y-128979065D01*
X86328405Y-128969696D01*
X86378064Y-128962725D01*
X86424323Y-128958008D01*
X86467301Y-128955397D01*
X86507120Y-128954747D01*
X86543899Y-128955912D01*
X86577760Y-128958745D01*
X86608824Y-128963101D01*
X86637210Y-128968832D01*
X86663039Y-128975795D01*
X86686433Y-128983841D01*
X86707511Y-128992826D01*
X86726395Y-129002602D01*
X86743205Y-129013025D01*
X86758061Y-129023948D01*
X86771085Y-129035224D01*
X86792117Y-129058255D01*
X86807265Y-129080948D01*
X86817495Y-129102136D01*
X86823772Y-129120649D01*
X86827060Y-129135320D01*
X86828533Y-129148459D01*
X86839650Y-129155791D01*
X86851378Y-129162193D01*
X86863653Y-129167710D01*
X86876414Y-129172388D01*
X86889596Y-129176271D01*
X86903136Y-129179407D01*
X86931039Y-129183619D01*
X86959615Y-129185390D01*
X86988361Y-129185084D01*
X87016769Y-129183070D01*
X87044334Y-129179713D01*
X87070550Y-129175379D01*
X87094912Y-129170434D01*
X87136049Y-129160179D01*
X87173814Y-129148459D01*
X87166721Y-129157723D01*
X87161016Y-129166904D01*
X87156623Y-129175988D01*
X87153467Y-129184960D01*
X87151470Y-129193808D01*
X87150557Y-129202516D01*
X87150651Y-129211072D01*
X87151676Y-129219462D01*
X87153556Y-129227671D01*
X87156214Y-129235687D01*
X87159574Y-129243494D01*
X87163559Y-129251080D01*
X87168094Y-129258431D01*
X87173102Y-129265532D01*
X87178507Y-129272370D01*
X87184232Y-129278931D01*
X87196339Y-129291168D01*
X87208812Y-129302131D01*
X87221041Y-129311711D01*
X87232415Y-129319797D01*
X87250158Y-129331044D01*
X87257158Y-129334990D01*
X87287912Y-129369866D01*
X87315529Y-129407358D01*
X87340151Y-129447221D01*
X87361919Y-129489213D01*
X87380975Y-129533088D01*
X87397460Y-129578603D01*
X87411517Y-129625513D01*
X87423287Y-129673574D01*
X87440533Y-129772172D01*
X87450332Y-129872445D01*
X87453818Y-129972439D01*
X87452123Y-130070200D01*
X87446382Y-130163776D01*
X87437728Y-130251212D01*
X87416218Y-130399854D01*
X87388127Y-130537520D01*
X87363908Y-130541919D01*
X87340370Y-130544760D01*
X87317518Y-130546136D01*
X87295357Y-130546140D01*
X87273894Y-130544865D01*
X87253135Y-130542404D01*
X87233085Y-130538850D01*
X87213750Y-130534296D01*
X87195136Y-130528835D01*
X87177248Y-130522560D01*
X87160093Y-130515564D01*
X87143677Y-130507941D01*
X87113082Y-130491182D01*
X87085510Y-130473028D01*
X87061007Y-130454223D01*
X87039621Y-130435511D01*
X87021397Y-130417637D01*
X87006383Y-130401343D01*
X86986167Y-130376477D01*
X86979346Y-130366865D01*
X86618189Y-130394647D01*
X86611335Y-130371046D01*
X86602749Y-130348578D01*
X86592537Y-130327191D01*
X86580804Y-130306830D01*
X86567655Y-130287443D01*
X86553196Y-130268977D01*
X86537532Y-130251378D01*
X86520769Y-130234594D01*
X86503011Y-130218572D01*
X86484365Y-130203258D01*
X86464935Y-130188599D01*
X86444828Y-130174543D01*
X86403000Y-130148027D01*
X86359724Y-130123283D01*
X86189006Y-130033552D01*
X86151137Y-130011308D01*
X86116879Y-129988291D01*
X86101367Y-129976360D01*
X86087073Y-129964077D01*
X86074104Y-129951388D01*
X86062564Y-129938240D01*
X86021332Y-129883914D01*
X85985158Y-129831239D01*
X85953612Y-129780471D01*
X85926262Y-129731865D01*
X85902681Y-129685678D01*
X85882436Y-129642165D01*
X85865098Y-129601582D01*
X85850236Y-129564185D01*
X85826222Y-129499972D01*
X85806952Y-129451572D01*
X85798020Y-129433941D01*
X85788984Y-129421031D01*
X85784292Y-129416426D01*
X85779413Y-129413098D01*
X85774292Y-129411077D01*
X85768877Y-129410396D01*
X85637661Y-129348922D01*
X85513520Y-129282861D01*
X85396647Y-129213394D01*
X85287232Y-129141700D01*
X85185468Y-129068959D01*
X85091546Y-128996352D01*
X85005659Y-128925059D01*
X84927998Y-128856260D01*
X84858755Y-128791135D01*
X84798122Y-128730864D01*
X84703454Y-128629607D01*
X84625877Y-128537272D01*
X84218088Y-128855764D01*
X84175904Y-128891337D01*
X84137535Y-128925852D01*
X84103537Y-128959275D01*
X84074469Y-128991569D01*
X84050889Y-129022701D01*
X84033355Y-129052635D01*
X84030592Y-129058973D01*
X84027030Y-129067142D01*
G37*
%LPC*%
D11*
X77500000Y-52500000D03*
%LPD*%
M02*
