%TF.GenerationSoftware,KiCad,Pcbnew,7.0.8*%
%TF.CreationDate,2023-10-17T14:22:27+02:00*%
%TF.ProjectId,Lines,4c696e65-732e-46b6-9963-61645f706362,1.0c*%
%TF.SameCoordinates,Original*%
%TF.FileFunction,Drillmap*%
%TF.FilePolarity,Positive*%
%FSLAX45Y45*%
G04 Gerber Fmt 4.5, Leading zero omitted, Abs format (unit mm)*
G04 Created by KiCad (PCBNEW 7.0.8) date 2023-10-17 14:22:27*
%MOMM*%
%LPD*%
G01*
G04 APERTURE LIST*
%ADD10C,0.100000*%
%ADD11C,0.200000*%
G04 APERTURE END LIST*
D10*
X15133500Y-4119500D02*
X15133500Y-13119500D01*
X5133500Y-13119500D02*
G75*
G03*
X5633500Y-13619500I500000J0D01*
G01*
X14633500Y-13619500D02*
G75*
G03*
X15133500Y-13119500I0J500000D01*
G01*
X5633500Y-3619500D02*
X14633500Y-3619500D01*
X14633500Y-13619500D02*
X5633500Y-13619500D01*
X5133500Y-13119500D02*
X5133500Y-4119500D01*
X15133500Y-4119500D02*
G75*
G03*
X14633500Y-3619500I-500000J0D01*
G01*
X5633500Y-3619500D02*
G75*
G03*
X5133500Y-4119500I0J-500000D01*
G01*
D11*
X5389277Y-13935984D02*
X5389277Y-13735984D01*
X5389277Y-13735984D02*
X5436896Y-13735984D01*
X5436896Y-13735984D02*
X5465467Y-13745508D01*
X5465467Y-13745508D02*
X5484515Y-13764555D01*
X5484515Y-13764555D02*
X5494039Y-13783603D01*
X5494039Y-13783603D02*
X5503563Y-13821698D01*
X5503563Y-13821698D02*
X5503563Y-13850269D01*
X5503563Y-13850269D02*
X5494039Y-13888365D01*
X5494039Y-13888365D02*
X5484515Y-13907412D01*
X5484515Y-13907412D02*
X5465467Y-13926460D01*
X5465467Y-13926460D02*
X5436896Y-13935984D01*
X5436896Y-13935984D02*
X5389277Y-13935984D01*
X5589277Y-13935984D02*
X5589277Y-13802650D01*
X5589277Y-13840746D02*
X5598801Y-13821698D01*
X5598801Y-13821698D02*
X5608324Y-13812174D01*
X5608324Y-13812174D02*
X5627372Y-13802650D01*
X5627372Y-13802650D02*
X5646420Y-13802650D01*
X5713086Y-13935984D02*
X5713086Y-13802650D01*
X5713086Y-13735984D02*
X5703562Y-13745508D01*
X5703562Y-13745508D02*
X5713086Y-13755031D01*
X5713086Y-13755031D02*
X5722610Y-13745508D01*
X5722610Y-13745508D02*
X5713086Y-13735984D01*
X5713086Y-13735984D02*
X5713086Y-13755031D01*
X5836896Y-13935984D02*
X5817848Y-13926460D01*
X5817848Y-13926460D02*
X5808324Y-13907412D01*
X5808324Y-13907412D02*
X5808324Y-13735984D01*
X5941658Y-13935984D02*
X5922610Y-13926460D01*
X5922610Y-13926460D02*
X5913086Y-13907412D01*
X5913086Y-13907412D02*
X5913086Y-13735984D01*
X6170229Y-13935984D02*
X6170229Y-13735984D01*
X6170229Y-13735984D02*
X6236896Y-13878841D01*
X6236896Y-13878841D02*
X6303562Y-13735984D01*
X6303562Y-13735984D02*
X6303562Y-13935984D01*
X6484515Y-13935984D02*
X6484515Y-13831222D01*
X6484515Y-13831222D02*
X6474991Y-13812174D01*
X6474991Y-13812174D02*
X6455943Y-13802650D01*
X6455943Y-13802650D02*
X6417848Y-13802650D01*
X6417848Y-13802650D02*
X6398801Y-13812174D01*
X6484515Y-13926460D02*
X6465467Y-13935984D01*
X6465467Y-13935984D02*
X6417848Y-13935984D01*
X6417848Y-13935984D02*
X6398801Y-13926460D01*
X6398801Y-13926460D02*
X6389277Y-13907412D01*
X6389277Y-13907412D02*
X6389277Y-13888365D01*
X6389277Y-13888365D02*
X6398801Y-13869317D01*
X6398801Y-13869317D02*
X6417848Y-13859793D01*
X6417848Y-13859793D02*
X6465467Y-13859793D01*
X6465467Y-13859793D02*
X6484515Y-13850269D01*
X6579753Y-13802650D02*
X6579753Y-14002650D01*
X6579753Y-13812174D02*
X6598801Y-13802650D01*
X6598801Y-13802650D02*
X6636896Y-13802650D01*
X6636896Y-13802650D02*
X6655943Y-13812174D01*
X6655943Y-13812174D02*
X6665467Y-13821698D01*
X6665467Y-13821698D02*
X6674991Y-13840746D01*
X6674991Y-13840746D02*
X6674991Y-13897888D01*
X6674991Y-13897888D02*
X6665467Y-13916936D01*
X6665467Y-13916936D02*
X6655943Y-13926460D01*
X6655943Y-13926460D02*
X6636896Y-13935984D01*
X6636896Y-13935984D02*
X6598801Y-13935984D01*
X6598801Y-13935984D02*
X6579753Y-13926460D01*
X6760705Y-13916936D02*
X6770229Y-13926460D01*
X6770229Y-13926460D02*
X6760705Y-13935984D01*
X6760705Y-13935984D02*
X6751182Y-13926460D01*
X6751182Y-13926460D02*
X6760705Y-13916936D01*
X6760705Y-13916936D02*
X6760705Y-13935984D01*
X6760705Y-13812174D02*
X6770229Y-13821698D01*
X6770229Y-13821698D02*
X6760705Y-13831222D01*
X6760705Y-13831222D02*
X6751182Y-13821698D01*
X6751182Y-13821698D02*
X6760705Y-13812174D01*
X6760705Y-13812174D02*
X6760705Y-13831222D01*
M02*
