G04 #@! TF.GenerationSoftware,KiCad,Pcbnew,7.0.8*
G04 #@! TF.CreationDate,2023-10-17T14:22:15+02:00*
G04 #@! TF.ProjectId,Lines,4c696e65-732e-46b6-9963-61645f706362,1.0c*
G04 #@! TF.SameCoordinates,Original*
G04 #@! TF.FileFunction,Legend,Top*
G04 #@! TF.FilePolarity,Positive*
%FSLAX46Y46*%
G04 Gerber Fmt 4.6, Leading zero omitted, Abs format (unit mm)*
G04 Created by KiCad (PCBNEW 7.0.8) date 2023-10-17 14:22:15*
%MOMM*%
%LPD*%
G01*
G04 APERTURE LIST*
%ADD10C,0.150000*%
%ADD11C,0.100000*%
%ADD12C,0.110000*%
%ADD13C,0.135000*%
%ADD14C,0.190000*%
%ADD15C,0.080000*%
%ADD16C,0.120000*%
%ADD17C,0.090000*%
%ADD18C,0.170000*%
%ADD19C,3.200000*%
G04 APERTURE END LIST*
D10*
X64147969Y-38234819D02*
X63671779Y-38234819D01*
X63671779Y-38234819D02*
X63671779Y-37234819D01*
X64481303Y-38234819D02*
X64481303Y-37568152D01*
X64481303Y-37234819D02*
X64433684Y-37282438D01*
X64433684Y-37282438D02*
X64481303Y-37330057D01*
X64481303Y-37330057D02*
X64528922Y-37282438D01*
X64528922Y-37282438D02*
X64481303Y-37234819D01*
X64481303Y-37234819D02*
X64481303Y-37330057D01*
X64957493Y-37568152D02*
X64957493Y-38234819D01*
X64957493Y-37663390D02*
X65005112Y-37615771D01*
X65005112Y-37615771D02*
X65100350Y-37568152D01*
X65100350Y-37568152D02*
X65243207Y-37568152D01*
X65243207Y-37568152D02*
X65338445Y-37615771D01*
X65338445Y-37615771D02*
X65386064Y-37711009D01*
X65386064Y-37711009D02*
X65386064Y-38234819D01*
X66243207Y-38187200D02*
X66147969Y-38234819D01*
X66147969Y-38234819D02*
X65957493Y-38234819D01*
X65957493Y-38234819D02*
X65862255Y-38187200D01*
X65862255Y-38187200D02*
X65814636Y-38091961D01*
X65814636Y-38091961D02*
X65814636Y-37711009D01*
X65814636Y-37711009D02*
X65862255Y-37615771D01*
X65862255Y-37615771D02*
X65957493Y-37568152D01*
X65957493Y-37568152D02*
X66147969Y-37568152D01*
X66147969Y-37568152D02*
X66243207Y-37615771D01*
X66243207Y-37615771D02*
X66290826Y-37711009D01*
X66290826Y-37711009D02*
X66290826Y-37806247D01*
X66290826Y-37806247D02*
X65814636Y-37901485D01*
X66671779Y-38187200D02*
X66767017Y-38234819D01*
X66767017Y-38234819D02*
X66957493Y-38234819D01*
X66957493Y-38234819D02*
X67052731Y-38187200D01*
X67052731Y-38187200D02*
X67100350Y-38091961D01*
X67100350Y-38091961D02*
X67100350Y-38044342D01*
X67100350Y-38044342D02*
X67052731Y-37949104D01*
X67052731Y-37949104D02*
X66957493Y-37901485D01*
X66957493Y-37901485D02*
X66814636Y-37901485D01*
X66814636Y-37901485D02*
X66719398Y-37853866D01*
X66719398Y-37853866D02*
X66671779Y-37758628D01*
X66671779Y-37758628D02*
X66671779Y-37711009D01*
X66671779Y-37711009D02*
X66719398Y-37615771D01*
X66719398Y-37615771D02*
X66814636Y-37568152D01*
X66814636Y-37568152D02*
X66957493Y-37568152D01*
X66957493Y-37568152D02*
X67052731Y-37615771D01*
X67528922Y-38139580D02*
X67576541Y-38187200D01*
X67576541Y-38187200D02*
X67528922Y-38234819D01*
X67528922Y-38234819D02*
X67481303Y-38187200D01*
X67481303Y-38187200D02*
X67528922Y-38139580D01*
X67528922Y-38139580D02*
X67528922Y-38234819D01*
X68005112Y-38234819D02*
X68005112Y-37234819D01*
X68100350Y-37853866D02*
X68386064Y-38234819D01*
X68386064Y-37568152D02*
X68005112Y-37949104D01*
X68814636Y-38234819D02*
X68814636Y-37568152D01*
X68814636Y-37234819D02*
X68767017Y-37282438D01*
X68767017Y-37282438D02*
X68814636Y-37330057D01*
X68814636Y-37330057D02*
X68862255Y-37282438D01*
X68862255Y-37282438D02*
X68814636Y-37234819D01*
X68814636Y-37234819D02*
X68814636Y-37330057D01*
X69719397Y-38187200D02*
X69624159Y-38234819D01*
X69624159Y-38234819D02*
X69433683Y-38234819D01*
X69433683Y-38234819D02*
X69338445Y-38187200D01*
X69338445Y-38187200D02*
X69290826Y-38139580D01*
X69290826Y-38139580D02*
X69243207Y-38044342D01*
X69243207Y-38044342D02*
X69243207Y-37758628D01*
X69243207Y-37758628D02*
X69290826Y-37663390D01*
X69290826Y-37663390D02*
X69338445Y-37615771D01*
X69338445Y-37615771D02*
X69433683Y-37568152D01*
X69433683Y-37568152D02*
X69624159Y-37568152D01*
X69624159Y-37568152D02*
X69719397Y-37615771D01*
X70576540Y-38234819D02*
X70576540Y-37711009D01*
X70576540Y-37711009D02*
X70528921Y-37615771D01*
X70528921Y-37615771D02*
X70433683Y-37568152D01*
X70433683Y-37568152D02*
X70243207Y-37568152D01*
X70243207Y-37568152D02*
X70147969Y-37615771D01*
X70576540Y-38187200D02*
X70481302Y-38234819D01*
X70481302Y-38234819D02*
X70243207Y-38234819D01*
X70243207Y-38234819D02*
X70147969Y-38187200D01*
X70147969Y-38187200D02*
X70100350Y-38091961D01*
X70100350Y-38091961D02*
X70100350Y-37996723D01*
X70100350Y-37996723D02*
X70147969Y-37901485D01*
X70147969Y-37901485D02*
X70243207Y-37853866D01*
X70243207Y-37853866D02*
X70481302Y-37853866D01*
X70481302Y-37853866D02*
X70576540Y-37806247D01*
X71481302Y-38234819D02*
X71481302Y-37234819D01*
X71481302Y-38187200D02*
X71386064Y-38234819D01*
X71386064Y-38234819D02*
X71195588Y-38234819D01*
X71195588Y-38234819D02*
X71100350Y-38187200D01*
X71100350Y-38187200D02*
X71052731Y-38139580D01*
X71052731Y-38139580D02*
X71005112Y-38044342D01*
X71005112Y-38044342D02*
X71005112Y-37758628D01*
X71005112Y-37758628D02*
X71052731Y-37663390D01*
X71052731Y-37663390D02*
X71100350Y-37615771D01*
X71100350Y-37615771D02*
X71195588Y-37568152D01*
X71195588Y-37568152D02*
X71386064Y-37568152D01*
X71386064Y-37568152D02*
X71481302Y-37615771D01*
X71719398Y-38330057D02*
X72481302Y-38330057D01*
X72719398Y-37568152D02*
X72719398Y-38568152D01*
X72719398Y-37615771D02*
X72814636Y-37568152D01*
X72814636Y-37568152D02*
X73005112Y-37568152D01*
X73005112Y-37568152D02*
X73100350Y-37615771D01*
X73100350Y-37615771D02*
X73147969Y-37663390D01*
X73147969Y-37663390D02*
X73195588Y-37758628D01*
X73195588Y-37758628D02*
X73195588Y-38044342D01*
X73195588Y-38044342D02*
X73147969Y-38139580D01*
X73147969Y-38139580D02*
X73100350Y-38187200D01*
X73100350Y-38187200D02*
X73005112Y-38234819D01*
X73005112Y-38234819D02*
X72814636Y-38234819D01*
X72814636Y-38234819D02*
X72719398Y-38187200D01*
X74052731Y-38187200D02*
X73957493Y-38234819D01*
X73957493Y-38234819D02*
X73767017Y-38234819D01*
X73767017Y-38234819D02*
X73671779Y-38187200D01*
X73671779Y-38187200D02*
X73624160Y-38139580D01*
X73624160Y-38139580D02*
X73576541Y-38044342D01*
X73576541Y-38044342D02*
X73576541Y-37758628D01*
X73576541Y-37758628D02*
X73624160Y-37663390D01*
X73624160Y-37663390D02*
X73671779Y-37615771D01*
X73671779Y-37615771D02*
X73767017Y-37568152D01*
X73767017Y-37568152D02*
X73957493Y-37568152D01*
X73957493Y-37568152D02*
X74052731Y-37615771D01*
X74481303Y-38234819D02*
X74481303Y-37234819D01*
X74481303Y-37615771D02*
X74576541Y-37568152D01*
X74576541Y-37568152D02*
X74767017Y-37568152D01*
X74767017Y-37568152D02*
X74862255Y-37615771D01*
X74862255Y-37615771D02*
X74909874Y-37663390D01*
X74909874Y-37663390D02*
X74957493Y-37758628D01*
X74957493Y-37758628D02*
X74957493Y-38044342D01*
X74957493Y-38044342D02*
X74909874Y-38139580D01*
X74909874Y-38139580D02*
X74862255Y-38187200D01*
X74862255Y-38187200D02*
X74767017Y-38234819D01*
X74767017Y-38234819D02*
X74576541Y-38234819D01*
X74576541Y-38234819D02*
X74481303Y-38187200D01*
X76147970Y-37853866D02*
X76909875Y-37853866D01*
X78481303Y-37711009D02*
X78147970Y-37711009D01*
X78147970Y-38234819D02*
X78147970Y-37234819D01*
X78147970Y-37234819D02*
X78624160Y-37234819D01*
X79005113Y-38139580D02*
X79052732Y-38187200D01*
X79052732Y-38187200D02*
X79005113Y-38234819D01*
X79005113Y-38234819D02*
X78957494Y-38187200D01*
X78957494Y-38187200D02*
X79005113Y-38139580D01*
X79005113Y-38139580D02*
X79005113Y-38234819D01*
X79433684Y-38187200D02*
X79576541Y-38234819D01*
X79576541Y-38234819D02*
X79814636Y-38234819D01*
X79814636Y-38234819D02*
X79909874Y-38187200D01*
X79909874Y-38187200D02*
X79957493Y-38139580D01*
X79957493Y-38139580D02*
X80005112Y-38044342D01*
X80005112Y-38044342D02*
X80005112Y-37949104D01*
X80005112Y-37949104D02*
X79957493Y-37853866D01*
X79957493Y-37853866D02*
X79909874Y-37806247D01*
X79909874Y-37806247D02*
X79814636Y-37758628D01*
X79814636Y-37758628D02*
X79624160Y-37711009D01*
X79624160Y-37711009D02*
X79528922Y-37663390D01*
X79528922Y-37663390D02*
X79481303Y-37615771D01*
X79481303Y-37615771D02*
X79433684Y-37520533D01*
X79433684Y-37520533D02*
X79433684Y-37425295D01*
X79433684Y-37425295D02*
X79481303Y-37330057D01*
X79481303Y-37330057D02*
X79528922Y-37282438D01*
X79528922Y-37282438D02*
X79624160Y-37234819D01*
X79624160Y-37234819D02*
X79862255Y-37234819D01*
X79862255Y-37234819D02*
X80005112Y-37282438D01*
X80433684Y-38234819D02*
X80433684Y-37568152D01*
X80433684Y-37234819D02*
X80386065Y-37282438D01*
X80386065Y-37282438D02*
X80433684Y-37330057D01*
X80433684Y-37330057D02*
X80481303Y-37282438D01*
X80481303Y-37282438D02*
X80433684Y-37234819D01*
X80433684Y-37234819D02*
X80433684Y-37330057D01*
X81052731Y-38234819D02*
X80957493Y-38187200D01*
X80957493Y-38187200D02*
X80909874Y-38091961D01*
X80909874Y-38091961D02*
X80909874Y-37234819D01*
X81433684Y-38234819D02*
X81433684Y-37234819D01*
X81528922Y-37853866D02*
X81814636Y-38234819D01*
X81814636Y-37568152D02*
X81433684Y-37949104D01*
X82195589Y-38187200D02*
X82290827Y-38234819D01*
X82290827Y-38234819D02*
X82481303Y-38234819D01*
X82481303Y-38234819D02*
X82576541Y-38187200D01*
X82576541Y-38187200D02*
X82624160Y-38091961D01*
X82624160Y-38091961D02*
X82624160Y-38044342D01*
X82624160Y-38044342D02*
X82576541Y-37949104D01*
X82576541Y-37949104D02*
X82481303Y-37901485D01*
X82481303Y-37901485D02*
X82338446Y-37901485D01*
X82338446Y-37901485D02*
X82243208Y-37853866D01*
X82243208Y-37853866D02*
X82195589Y-37758628D01*
X82195589Y-37758628D02*
X82195589Y-37711009D01*
X82195589Y-37711009D02*
X82243208Y-37615771D01*
X82243208Y-37615771D02*
X82338446Y-37568152D01*
X82338446Y-37568152D02*
X82481303Y-37568152D01*
X82481303Y-37568152D02*
X82576541Y-37615771D01*
X83481303Y-38187200D02*
X83386065Y-38234819D01*
X83386065Y-38234819D02*
X83195589Y-38234819D01*
X83195589Y-38234819D02*
X83100351Y-38187200D01*
X83100351Y-38187200D02*
X83052732Y-38139580D01*
X83052732Y-38139580D02*
X83005113Y-38044342D01*
X83005113Y-38044342D02*
X83005113Y-37758628D01*
X83005113Y-37758628D02*
X83052732Y-37663390D01*
X83052732Y-37663390D02*
X83100351Y-37615771D01*
X83100351Y-37615771D02*
X83195589Y-37568152D01*
X83195589Y-37568152D02*
X83386065Y-37568152D01*
X83386065Y-37568152D02*
X83481303Y-37615771D01*
X83909875Y-38234819D02*
X83909875Y-37568152D01*
X83909875Y-37758628D02*
X83957494Y-37663390D01*
X83957494Y-37663390D02*
X84005113Y-37615771D01*
X84005113Y-37615771D02*
X84100351Y-37568152D01*
X84100351Y-37568152D02*
X84195589Y-37568152D01*
X84909875Y-38187200D02*
X84814637Y-38234819D01*
X84814637Y-38234819D02*
X84624161Y-38234819D01*
X84624161Y-38234819D02*
X84528923Y-38187200D01*
X84528923Y-38187200D02*
X84481304Y-38091961D01*
X84481304Y-38091961D02*
X84481304Y-37711009D01*
X84481304Y-37711009D02*
X84528923Y-37615771D01*
X84528923Y-37615771D02*
X84624161Y-37568152D01*
X84624161Y-37568152D02*
X84814637Y-37568152D01*
X84814637Y-37568152D02*
X84909875Y-37615771D01*
X84909875Y-37615771D02*
X84957494Y-37711009D01*
X84957494Y-37711009D02*
X84957494Y-37806247D01*
X84957494Y-37806247D02*
X84481304Y-37901485D01*
X85767018Y-38187200D02*
X85671780Y-38234819D01*
X85671780Y-38234819D02*
X85481304Y-38234819D01*
X85481304Y-38234819D02*
X85386066Y-38187200D01*
X85386066Y-38187200D02*
X85338447Y-38091961D01*
X85338447Y-38091961D02*
X85338447Y-37711009D01*
X85338447Y-37711009D02*
X85386066Y-37615771D01*
X85386066Y-37615771D02*
X85481304Y-37568152D01*
X85481304Y-37568152D02*
X85671780Y-37568152D01*
X85671780Y-37568152D02*
X85767018Y-37615771D01*
X85767018Y-37615771D02*
X85814637Y-37711009D01*
X85814637Y-37711009D02*
X85814637Y-37806247D01*
X85814637Y-37806247D02*
X85338447Y-37901485D01*
X86243209Y-37568152D02*
X86243209Y-38234819D01*
X86243209Y-37663390D02*
X86290828Y-37615771D01*
X86290828Y-37615771D02*
X86386066Y-37568152D01*
X86386066Y-37568152D02*
X86528923Y-37568152D01*
X86528923Y-37568152D02*
X86624161Y-37615771D01*
X86624161Y-37615771D02*
X86671780Y-37711009D01*
X86671780Y-37711009D02*
X86671780Y-38234819D01*
X87195590Y-38187200D02*
X87195590Y-38234819D01*
X87195590Y-38234819D02*
X87147971Y-38330057D01*
X87147971Y-38330057D02*
X87100352Y-38377676D01*
X88386066Y-38234819D02*
X88386066Y-37568152D01*
X88386066Y-37758628D02*
X88433685Y-37663390D01*
X88433685Y-37663390D02*
X88481304Y-37615771D01*
X88481304Y-37615771D02*
X88576542Y-37568152D01*
X88576542Y-37568152D02*
X88671780Y-37568152D01*
X89386066Y-38187200D02*
X89290828Y-38234819D01*
X89290828Y-38234819D02*
X89100352Y-38234819D01*
X89100352Y-38234819D02*
X89005114Y-38187200D01*
X89005114Y-38187200D02*
X88957495Y-38091961D01*
X88957495Y-38091961D02*
X88957495Y-37711009D01*
X88957495Y-37711009D02*
X89005114Y-37615771D01*
X89005114Y-37615771D02*
X89100352Y-37568152D01*
X89100352Y-37568152D02*
X89290828Y-37568152D01*
X89290828Y-37568152D02*
X89386066Y-37615771D01*
X89386066Y-37615771D02*
X89433685Y-37711009D01*
X89433685Y-37711009D02*
X89433685Y-37806247D01*
X89433685Y-37806247D02*
X88957495Y-37901485D01*
X89767019Y-37568152D02*
X90005114Y-38234819D01*
X90005114Y-38234819D02*
X90243209Y-37568152D01*
X91909876Y-38234819D02*
X91338448Y-38234819D01*
X91624162Y-38234819D02*
X91624162Y-37234819D01*
X91624162Y-37234819D02*
X91528924Y-37377676D01*
X91528924Y-37377676D02*
X91433686Y-37472914D01*
X91433686Y-37472914D02*
X91338448Y-37520533D01*
X92338448Y-38139580D02*
X92386067Y-38187200D01*
X92386067Y-38187200D02*
X92338448Y-38234819D01*
X92338448Y-38234819D02*
X92290829Y-38187200D01*
X92290829Y-38187200D02*
X92338448Y-38139580D01*
X92338448Y-38139580D02*
X92338448Y-38234819D01*
X93005114Y-37234819D02*
X93100352Y-37234819D01*
X93100352Y-37234819D02*
X93195590Y-37282438D01*
X93195590Y-37282438D02*
X93243209Y-37330057D01*
X93243209Y-37330057D02*
X93290828Y-37425295D01*
X93290828Y-37425295D02*
X93338447Y-37615771D01*
X93338447Y-37615771D02*
X93338447Y-37853866D01*
X93338447Y-37853866D02*
X93290828Y-38044342D01*
X93290828Y-38044342D02*
X93243209Y-38139580D01*
X93243209Y-38139580D02*
X93195590Y-38187200D01*
X93195590Y-38187200D02*
X93100352Y-38234819D01*
X93100352Y-38234819D02*
X93005114Y-38234819D01*
X93005114Y-38234819D02*
X92909876Y-38187200D01*
X92909876Y-38187200D02*
X92862257Y-38139580D01*
X92862257Y-38139580D02*
X92814638Y-38044342D01*
X92814638Y-38044342D02*
X92767019Y-37853866D01*
X92767019Y-37853866D02*
X92767019Y-37615771D01*
X92767019Y-37615771D02*
X92814638Y-37425295D01*
X92814638Y-37425295D02*
X92862257Y-37330057D01*
X92862257Y-37330057D02*
X92909876Y-37282438D01*
X92909876Y-37282438D02*
X93005114Y-37234819D01*
X94195590Y-38187200D02*
X94100352Y-38234819D01*
X94100352Y-38234819D02*
X93909876Y-38234819D01*
X93909876Y-38234819D02*
X93814638Y-38187200D01*
X93814638Y-38187200D02*
X93767019Y-38139580D01*
X93767019Y-38139580D02*
X93719400Y-38044342D01*
X93719400Y-38044342D02*
X93719400Y-37758628D01*
X93719400Y-37758628D02*
X93767019Y-37663390D01*
X93767019Y-37663390D02*
X93814638Y-37615771D01*
X93814638Y-37615771D02*
X93909876Y-37568152D01*
X93909876Y-37568152D02*
X94100352Y-37568152D01*
X94100352Y-37568152D02*
X94195590Y-37615771D01*
X94671781Y-38187200D02*
X94671781Y-38234819D01*
X94671781Y-38234819D02*
X94624162Y-38330057D01*
X94624162Y-38330057D02*
X94576543Y-38377676D01*
X95862257Y-38234819D02*
X95862257Y-37568152D01*
X95862257Y-37234819D02*
X95814638Y-37282438D01*
X95814638Y-37282438D02*
X95862257Y-37330057D01*
X95862257Y-37330057D02*
X95909876Y-37282438D01*
X95909876Y-37282438D02*
X95862257Y-37234819D01*
X95862257Y-37234819D02*
X95862257Y-37330057D01*
X96290828Y-38187200D02*
X96386066Y-38234819D01*
X96386066Y-38234819D02*
X96576542Y-38234819D01*
X96576542Y-38234819D02*
X96671780Y-38187200D01*
X96671780Y-38187200D02*
X96719399Y-38091961D01*
X96719399Y-38091961D02*
X96719399Y-38044342D01*
X96719399Y-38044342D02*
X96671780Y-37949104D01*
X96671780Y-37949104D02*
X96576542Y-37901485D01*
X96576542Y-37901485D02*
X96433685Y-37901485D01*
X96433685Y-37901485D02*
X96338447Y-37853866D01*
X96338447Y-37853866D02*
X96290828Y-37758628D01*
X96290828Y-37758628D02*
X96290828Y-37711009D01*
X96290828Y-37711009D02*
X96338447Y-37615771D01*
X96338447Y-37615771D02*
X96433685Y-37568152D01*
X96433685Y-37568152D02*
X96576542Y-37568152D01*
X96576542Y-37568152D02*
X96671780Y-37615771D01*
X97100352Y-38187200D02*
X97195590Y-38234819D01*
X97195590Y-38234819D02*
X97386066Y-38234819D01*
X97386066Y-38234819D02*
X97481304Y-38187200D01*
X97481304Y-38187200D02*
X97528923Y-38091961D01*
X97528923Y-38091961D02*
X97528923Y-38044342D01*
X97528923Y-38044342D02*
X97481304Y-37949104D01*
X97481304Y-37949104D02*
X97386066Y-37901485D01*
X97386066Y-37901485D02*
X97243209Y-37901485D01*
X97243209Y-37901485D02*
X97147971Y-37853866D01*
X97147971Y-37853866D02*
X97100352Y-37758628D01*
X97100352Y-37758628D02*
X97100352Y-37711009D01*
X97100352Y-37711009D02*
X97147971Y-37615771D01*
X97147971Y-37615771D02*
X97243209Y-37568152D01*
X97243209Y-37568152D02*
X97386066Y-37568152D01*
X97386066Y-37568152D02*
X97481304Y-37615771D01*
X98386066Y-37568152D02*
X98386066Y-38234819D01*
X97957495Y-37568152D02*
X97957495Y-38091961D01*
X97957495Y-38091961D02*
X98005114Y-38187200D01*
X98005114Y-38187200D02*
X98100352Y-38234819D01*
X98100352Y-38234819D02*
X98243209Y-38234819D01*
X98243209Y-38234819D02*
X98338447Y-38187200D01*
X98338447Y-38187200D02*
X98386066Y-38139580D01*
X99243209Y-38187200D02*
X99147971Y-38234819D01*
X99147971Y-38234819D02*
X98957495Y-38234819D01*
X98957495Y-38234819D02*
X98862257Y-38187200D01*
X98862257Y-38187200D02*
X98814638Y-38091961D01*
X98814638Y-38091961D02*
X98814638Y-37711009D01*
X98814638Y-37711009D02*
X98862257Y-37615771D01*
X98862257Y-37615771D02*
X98957495Y-37568152D01*
X98957495Y-37568152D02*
X99147971Y-37568152D01*
X99147971Y-37568152D02*
X99243209Y-37615771D01*
X99243209Y-37615771D02*
X99290828Y-37711009D01*
X99290828Y-37711009D02*
X99290828Y-37806247D01*
X99290828Y-37806247D02*
X98814638Y-37901485D01*
X100433686Y-37330057D02*
X100481305Y-37282438D01*
X100481305Y-37282438D02*
X100576543Y-37234819D01*
X100576543Y-37234819D02*
X100814638Y-37234819D01*
X100814638Y-37234819D02*
X100909876Y-37282438D01*
X100909876Y-37282438D02*
X100957495Y-37330057D01*
X100957495Y-37330057D02*
X101005114Y-37425295D01*
X101005114Y-37425295D02*
X101005114Y-37520533D01*
X101005114Y-37520533D02*
X100957495Y-37663390D01*
X100957495Y-37663390D02*
X100386067Y-38234819D01*
X100386067Y-38234819D02*
X101005114Y-38234819D01*
X101624162Y-37234819D02*
X101719400Y-37234819D01*
X101719400Y-37234819D02*
X101814638Y-37282438D01*
X101814638Y-37282438D02*
X101862257Y-37330057D01*
X101862257Y-37330057D02*
X101909876Y-37425295D01*
X101909876Y-37425295D02*
X101957495Y-37615771D01*
X101957495Y-37615771D02*
X101957495Y-37853866D01*
X101957495Y-37853866D02*
X101909876Y-38044342D01*
X101909876Y-38044342D02*
X101862257Y-38139580D01*
X101862257Y-38139580D02*
X101814638Y-38187200D01*
X101814638Y-38187200D02*
X101719400Y-38234819D01*
X101719400Y-38234819D02*
X101624162Y-38234819D01*
X101624162Y-38234819D02*
X101528924Y-38187200D01*
X101528924Y-38187200D02*
X101481305Y-38139580D01*
X101481305Y-38139580D02*
X101433686Y-38044342D01*
X101433686Y-38044342D02*
X101386067Y-37853866D01*
X101386067Y-37853866D02*
X101386067Y-37615771D01*
X101386067Y-37615771D02*
X101433686Y-37425295D01*
X101433686Y-37425295D02*
X101481305Y-37330057D01*
X101481305Y-37330057D02*
X101528924Y-37282438D01*
X101528924Y-37282438D02*
X101624162Y-37234819D01*
X102338448Y-37330057D02*
X102386067Y-37282438D01*
X102386067Y-37282438D02*
X102481305Y-37234819D01*
X102481305Y-37234819D02*
X102719400Y-37234819D01*
X102719400Y-37234819D02*
X102814638Y-37282438D01*
X102814638Y-37282438D02*
X102862257Y-37330057D01*
X102862257Y-37330057D02*
X102909876Y-37425295D01*
X102909876Y-37425295D02*
X102909876Y-37520533D01*
X102909876Y-37520533D02*
X102862257Y-37663390D01*
X102862257Y-37663390D02*
X102290829Y-38234819D01*
X102290829Y-38234819D02*
X102909876Y-38234819D01*
X103243210Y-37234819D02*
X103862257Y-37234819D01*
X103862257Y-37234819D02*
X103528924Y-37615771D01*
X103528924Y-37615771D02*
X103671781Y-37615771D01*
X103671781Y-37615771D02*
X103767019Y-37663390D01*
X103767019Y-37663390D02*
X103814638Y-37711009D01*
X103814638Y-37711009D02*
X103862257Y-37806247D01*
X103862257Y-37806247D02*
X103862257Y-38044342D01*
X103862257Y-38044342D02*
X103814638Y-38139580D01*
X103814638Y-38139580D02*
X103767019Y-38187200D01*
X103767019Y-38187200D02*
X103671781Y-38234819D01*
X103671781Y-38234819D02*
X103386067Y-38234819D01*
X103386067Y-38234819D02*
X103290829Y-38187200D01*
X103290829Y-38187200D02*
X103243210Y-38139580D01*
X104290829Y-37853866D02*
X105052734Y-37853866D01*
X106052733Y-38234819D02*
X105481305Y-38234819D01*
X105767019Y-38234819D02*
X105767019Y-37234819D01*
X105767019Y-37234819D02*
X105671781Y-37377676D01*
X105671781Y-37377676D02*
X105576543Y-37472914D01*
X105576543Y-37472914D02*
X105481305Y-37520533D01*
X106671781Y-37234819D02*
X106767019Y-37234819D01*
X106767019Y-37234819D02*
X106862257Y-37282438D01*
X106862257Y-37282438D02*
X106909876Y-37330057D01*
X106909876Y-37330057D02*
X106957495Y-37425295D01*
X106957495Y-37425295D02*
X107005114Y-37615771D01*
X107005114Y-37615771D02*
X107005114Y-37853866D01*
X107005114Y-37853866D02*
X106957495Y-38044342D01*
X106957495Y-38044342D02*
X106909876Y-38139580D01*
X106909876Y-38139580D02*
X106862257Y-38187200D01*
X106862257Y-38187200D02*
X106767019Y-38234819D01*
X106767019Y-38234819D02*
X106671781Y-38234819D01*
X106671781Y-38234819D02*
X106576543Y-38187200D01*
X106576543Y-38187200D02*
X106528924Y-38139580D01*
X106528924Y-38139580D02*
X106481305Y-38044342D01*
X106481305Y-38044342D02*
X106433686Y-37853866D01*
X106433686Y-37853866D02*
X106433686Y-37615771D01*
X106433686Y-37615771D02*
X106481305Y-37425295D01*
X106481305Y-37425295D02*
X106528924Y-37330057D01*
X106528924Y-37330057D02*
X106576543Y-37282438D01*
X106576543Y-37282438D02*
X106671781Y-37234819D01*
X107433686Y-37853866D02*
X108195591Y-37853866D01*
X109195590Y-38234819D02*
X108624162Y-38234819D01*
X108909876Y-38234819D02*
X108909876Y-37234819D01*
X108909876Y-37234819D02*
X108814638Y-37377676D01*
X108814638Y-37377676D02*
X108719400Y-37472914D01*
X108719400Y-37472914D02*
X108624162Y-37520533D01*
X109528924Y-37234819D02*
X110195590Y-37234819D01*
X110195590Y-37234819D02*
X109767019Y-38234819D01*
X136474409Y-37234819D02*
X136474409Y-37949104D01*
X136474409Y-37949104D02*
X136426790Y-38091961D01*
X136426790Y-38091961D02*
X136331552Y-38187200D01*
X136331552Y-38187200D02*
X136188695Y-38234819D01*
X136188695Y-38234819D02*
X136093457Y-38234819D01*
X137426790Y-38234819D02*
X136950600Y-38234819D01*
X136950600Y-38234819D02*
X136950600Y-37234819D01*
X138331552Y-38139580D02*
X138283933Y-38187200D01*
X138283933Y-38187200D02*
X138141076Y-38234819D01*
X138141076Y-38234819D02*
X138045838Y-38234819D01*
X138045838Y-38234819D02*
X137902981Y-38187200D01*
X137902981Y-38187200D02*
X137807743Y-38091961D01*
X137807743Y-38091961D02*
X137760124Y-37996723D01*
X137760124Y-37996723D02*
X137712505Y-37806247D01*
X137712505Y-37806247D02*
X137712505Y-37663390D01*
X137712505Y-37663390D02*
X137760124Y-37472914D01*
X137760124Y-37472914D02*
X137807743Y-37377676D01*
X137807743Y-37377676D02*
X137902981Y-37282438D01*
X137902981Y-37282438D02*
X138045838Y-37234819D01*
X138045838Y-37234819D02*
X138141076Y-37234819D01*
X138141076Y-37234819D02*
X138283933Y-37282438D01*
X138283933Y-37282438D02*
X138331552Y-37330057D01*
X139045838Y-37234819D02*
X139045838Y-37949104D01*
X139045838Y-37949104D02*
X138998219Y-38091961D01*
X138998219Y-38091961D02*
X138902981Y-38187200D01*
X138902981Y-38187200D02*
X138760124Y-38234819D01*
X138760124Y-38234819D02*
X138664886Y-38234819D01*
X139998219Y-38234819D02*
X139522029Y-38234819D01*
X139522029Y-38234819D02*
X139522029Y-37234819D01*
X140902981Y-38139580D02*
X140855362Y-38187200D01*
X140855362Y-38187200D02*
X140712505Y-38234819D01*
X140712505Y-38234819D02*
X140617267Y-38234819D01*
X140617267Y-38234819D02*
X140474410Y-38187200D01*
X140474410Y-38187200D02*
X140379172Y-38091961D01*
X140379172Y-38091961D02*
X140331553Y-37996723D01*
X140331553Y-37996723D02*
X140283934Y-37806247D01*
X140283934Y-37806247D02*
X140283934Y-37663390D01*
X140283934Y-37663390D02*
X140331553Y-37472914D01*
X140331553Y-37472914D02*
X140379172Y-37377676D01*
X140379172Y-37377676D02*
X140474410Y-37282438D01*
X140474410Y-37282438D02*
X140617267Y-37234819D01*
X140617267Y-37234819D02*
X140712505Y-37234819D01*
X140712505Y-37234819D02*
X140855362Y-37282438D01*
X140855362Y-37282438D02*
X140902981Y-37330057D01*
X141617267Y-37234819D02*
X141617267Y-37949104D01*
X141617267Y-37949104D02*
X141569648Y-38091961D01*
X141569648Y-38091961D02*
X141474410Y-38187200D01*
X141474410Y-38187200D02*
X141331553Y-38234819D01*
X141331553Y-38234819D02*
X141236315Y-38234819D01*
X142569648Y-38234819D02*
X142093458Y-38234819D01*
X142093458Y-38234819D02*
X142093458Y-37234819D01*
X143474410Y-38139580D02*
X143426791Y-38187200D01*
X143426791Y-38187200D02*
X143283934Y-38234819D01*
X143283934Y-38234819D02*
X143188696Y-38234819D01*
X143188696Y-38234819D02*
X143045839Y-38187200D01*
X143045839Y-38187200D02*
X142950601Y-38091961D01*
X142950601Y-38091961D02*
X142902982Y-37996723D01*
X142902982Y-37996723D02*
X142855363Y-37806247D01*
X142855363Y-37806247D02*
X142855363Y-37663390D01*
X142855363Y-37663390D02*
X142902982Y-37472914D01*
X142902982Y-37472914D02*
X142950601Y-37377676D01*
X142950601Y-37377676D02*
X143045839Y-37282438D01*
X143045839Y-37282438D02*
X143188696Y-37234819D01*
X143188696Y-37234819D02*
X143283934Y-37234819D01*
X143283934Y-37234819D02*
X143426791Y-37282438D01*
X143426791Y-37282438D02*
X143474410Y-37330057D01*
X144188696Y-37234819D02*
X144188696Y-37949104D01*
X144188696Y-37949104D02*
X144141077Y-38091961D01*
X144141077Y-38091961D02*
X144045839Y-38187200D01*
X144045839Y-38187200D02*
X143902982Y-38234819D01*
X143902982Y-38234819D02*
X143807744Y-38234819D01*
X145141077Y-38234819D02*
X144664887Y-38234819D01*
X144664887Y-38234819D02*
X144664887Y-37234819D01*
X146045839Y-38139580D02*
X145998220Y-38187200D01*
X145998220Y-38187200D02*
X145855363Y-38234819D01*
X145855363Y-38234819D02*
X145760125Y-38234819D01*
X145760125Y-38234819D02*
X145617268Y-38187200D01*
X145617268Y-38187200D02*
X145522030Y-38091961D01*
X145522030Y-38091961D02*
X145474411Y-37996723D01*
X145474411Y-37996723D02*
X145426792Y-37806247D01*
X145426792Y-37806247D02*
X145426792Y-37663390D01*
X145426792Y-37663390D02*
X145474411Y-37472914D01*
X145474411Y-37472914D02*
X145522030Y-37377676D01*
X145522030Y-37377676D02*
X145617268Y-37282438D01*
X145617268Y-37282438D02*
X145760125Y-37234819D01*
X145760125Y-37234819D02*
X145855363Y-37234819D01*
X145855363Y-37234819D02*
X145998220Y-37282438D01*
X145998220Y-37282438D02*
X146045839Y-37330057D01*
X52789819Y-102002043D02*
X52789819Y-101382996D01*
X52789819Y-101382996D02*
X53170771Y-101716329D01*
X53170771Y-101716329D02*
X53170771Y-101573472D01*
X53170771Y-101573472D02*
X53218390Y-101478234D01*
X53218390Y-101478234D02*
X53266009Y-101430615D01*
X53266009Y-101430615D02*
X53361247Y-101382996D01*
X53361247Y-101382996D02*
X53599342Y-101382996D01*
X53599342Y-101382996D02*
X53694580Y-101430615D01*
X53694580Y-101430615D02*
X53742200Y-101478234D01*
X53742200Y-101478234D02*
X53789819Y-101573472D01*
X53789819Y-101573472D02*
X53789819Y-101859186D01*
X53789819Y-101859186D02*
X53742200Y-101954424D01*
X53742200Y-101954424D02*
X53694580Y-102002043D01*
X52789819Y-100763948D02*
X52789819Y-100668710D01*
X52789819Y-100668710D02*
X52837438Y-100573472D01*
X52837438Y-100573472D02*
X52885057Y-100525853D01*
X52885057Y-100525853D02*
X52980295Y-100478234D01*
X52980295Y-100478234D02*
X53170771Y-100430615D01*
X53170771Y-100430615D02*
X53408866Y-100430615D01*
X53408866Y-100430615D02*
X53599342Y-100478234D01*
X53599342Y-100478234D02*
X53694580Y-100525853D01*
X53694580Y-100525853D02*
X53742200Y-100573472D01*
X53742200Y-100573472D02*
X53789819Y-100668710D01*
X53789819Y-100668710D02*
X53789819Y-100763948D01*
X53789819Y-100763948D02*
X53742200Y-100859186D01*
X53742200Y-100859186D02*
X53694580Y-100906805D01*
X53694580Y-100906805D02*
X53599342Y-100954424D01*
X53599342Y-100954424D02*
X53408866Y-101002043D01*
X53408866Y-101002043D02*
X53170771Y-101002043D01*
X53170771Y-101002043D02*
X52980295Y-100954424D01*
X52980295Y-100954424D02*
X52885057Y-100906805D01*
X52885057Y-100906805D02*
X52837438Y-100859186D01*
X52837438Y-100859186D02*
X52789819Y-100763948D01*
X61573095Y-133649819D02*
X61096905Y-133649819D01*
X61096905Y-133649819D02*
X61049286Y-134126009D01*
X61049286Y-134126009D02*
X61096905Y-134078390D01*
X61096905Y-134078390D02*
X61192143Y-134030771D01*
X61192143Y-134030771D02*
X61430238Y-134030771D01*
X61430238Y-134030771D02*
X61525476Y-134078390D01*
X61525476Y-134078390D02*
X61573095Y-134126009D01*
X61573095Y-134126009D02*
X61620714Y-134221247D01*
X61620714Y-134221247D02*
X61620714Y-134459342D01*
X61620714Y-134459342D02*
X61573095Y-134554580D01*
X61573095Y-134554580D02*
X61525476Y-134602200D01*
X61525476Y-134602200D02*
X61430238Y-134649819D01*
X61430238Y-134649819D02*
X61192143Y-134649819D01*
X61192143Y-134649819D02*
X61096905Y-134602200D01*
X61096905Y-134602200D02*
X61049286Y-134554580D01*
X56287381Y-133649819D02*
X56382619Y-133649819D01*
X56382619Y-133649819D02*
X56477857Y-133697438D01*
X56477857Y-133697438D02*
X56525476Y-133745057D01*
X56525476Y-133745057D02*
X56573095Y-133840295D01*
X56573095Y-133840295D02*
X56620714Y-134030771D01*
X56620714Y-134030771D02*
X56620714Y-134268866D01*
X56620714Y-134268866D02*
X56573095Y-134459342D01*
X56573095Y-134459342D02*
X56525476Y-134554580D01*
X56525476Y-134554580D02*
X56477857Y-134602200D01*
X56477857Y-134602200D02*
X56382619Y-134649819D01*
X56382619Y-134649819D02*
X56287381Y-134649819D01*
X56287381Y-134649819D02*
X56192143Y-134602200D01*
X56192143Y-134602200D02*
X56144524Y-134554580D01*
X56144524Y-134554580D02*
X56096905Y-134459342D01*
X56096905Y-134459342D02*
X56049286Y-134268866D01*
X56049286Y-134268866D02*
X56049286Y-134030771D01*
X56049286Y-134030771D02*
X56096905Y-133840295D01*
X56096905Y-133840295D02*
X56144524Y-133745057D01*
X56144524Y-133745057D02*
X56192143Y-133697438D01*
X56192143Y-133697438D02*
X56287381Y-133649819D01*
X53789819Y-121382956D02*
X53789819Y-121954384D01*
X53789819Y-121668670D02*
X52789819Y-121668670D01*
X52789819Y-121668670D02*
X52932676Y-121763908D01*
X52932676Y-121763908D02*
X53027914Y-121859146D01*
X53027914Y-121859146D02*
X53075533Y-121954384D01*
X52789819Y-120763908D02*
X52789819Y-120668670D01*
X52789819Y-120668670D02*
X52837438Y-120573432D01*
X52837438Y-120573432D02*
X52885057Y-120525813D01*
X52885057Y-120525813D02*
X52980295Y-120478194D01*
X52980295Y-120478194D02*
X53170771Y-120430575D01*
X53170771Y-120430575D02*
X53408866Y-120430575D01*
X53408866Y-120430575D02*
X53599342Y-120478194D01*
X53599342Y-120478194D02*
X53694580Y-120525813D01*
X53694580Y-120525813D02*
X53742200Y-120573432D01*
X53742200Y-120573432D02*
X53789819Y-120668670D01*
X53789819Y-120668670D02*
X53789819Y-120763908D01*
X53789819Y-120763908D02*
X53742200Y-120859146D01*
X53742200Y-120859146D02*
X53694580Y-120906765D01*
X53694580Y-120906765D02*
X53599342Y-120954384D01*
X53599342Y-120954384D02*
X53408866Y-121002003D01*
X53408866Y-121002003D02*
X53170771Y-121002003D01*
X53170771Y-121002003D02*
X52980295Y-120954384D01*
X52980295Y-120954384D02*
X52885057Y-120906765D01*
X52885057Y-120906765D02*
X52837438Y-120859146D01*
X52837438Y-120859146D02*
X52789819Y-120763908D01*
X53123152Y-91478254D02*
X53789819Y-91478254D01*
X52742200Y-91716349D02*
X53456485Y-91954444D01*
X53456485Y-91954444D02*
X53456485Y-91335397D01*
X52789819Y-90763968D02*
X52789819Y-90668730D01*
X52789819Y-90668730D02*
X52837438Y-90573492D01*
X52837438Y-90573492D02*
X52885057Y-90525873D01*
X52885057Y-90525873D02*
X52980295Y-90478254D01*
X52980295Y-90478254D02*
X53170771Y-90430635D01*
X53170771Y-90430635D02*
X53408866Y-90430635D01*
X53408866Y-90430635D02*
X53599342Y-90478254D01*
X53599342Y-90478254D02*
X53694580Y-90525873D01*
X53694580Y-90525873D02*
X53742200Y-90573492D01*
X53742200Y-90573492D02*
X53789819Y-90668730D01*
X53789819Y-90668730D02*
X53789819Y-90763968D01*
X53789819Y-90763968D02*
X53742200Y-90859206D01*
X53742200Y-90859206D02*
X53694580Y-90906825D01*
X53694580Y-90906825D02*
X53599342Y-90954444D01*
X53599342Y-90954444D02*
X53408866Y-91002063D01*
X53408866Y-91002063D02*
X53170771Y-91002063D01*
X53170771Y-91002063D02*
X52980295Y-90954444D01*
X52980295Y-90954444D02*
X52885057Y-90906825D01*
X52885057Y-90906825D02*
X52837438Y-90859206D01*
X52837438Y-90859206D02*
X52789819Y-90763968D01*
X52885057Y-111855344D02*
X52837438Y-111807725D01*
X52837438Y-111807725D02*
X52789819Y-111712487D01*
X52789819Y-111712487D02*
X52789819Y-111474392D01*
X52789819Y-111474392D02*
X52837438Y-111379154D01*
X52837438Y-111379154D02*
X52885057Y-111331535D01*
X52885057Y-111331535D02*
X52980295Y-111283916D01*
X52980295Y-111283916D02*
X53075533Y-111283916D01*
X53075533Y-111283916D02*
X53218390Y-111331535D01*
X53218390Y-111331535D02*
X53789819Y-111902963D01*
X53789819Y-111902963D02*
X53789819Y-111283916D01*
X52789819Y-110664868D02*
X52789819Y-110569630D01*
X52789819Y-110569630D02*
X52837438Y-110474392D01*
X52837438Y-110474392D02*
X52885057Y-110426773D01*
X52885057Y-110426773D02*
X52980295Y-110379154D01*
X52980295Y-110379154D02*
X53170771Y-110331535D01*
X53170771Y-110331535D02*
X53408866Y-110331535D01*
X53408866Y-110331535D02*
X53599342Y-110379154D01*
X53599342Y-110379154D02*
X53694580Y-110426773D01*
X53694580Y-110426773D02*
X53742200Y-110474392D01*
X53742200Y-110474392D02*
X53789819Y-110569630D01*
X53789819Y-110569630D02*
X53789819Y-110664868D01*
X53789819Y-110664868D02*
X53742200Y-110760106D01*
X53742200Y-110760106D02*
X53694580Y-110807725D01*
X53694580Y-110807725D02*
X53599342Y-110855344D01*
X53599342Y-110855344D02*
X53408866Y-110902963D01*
X53408866Y-110902963D02*
X53170771Y-110902963D01*
X53170771Y-110902963D02*
X52980295Y-110855344D01*
X52980295Y-110855344D02*
X52885057Y-110807725D01*
X52885057Y-110807725D02*
X52837438Y-110760106D01*
X52837438Y-110760106D02*
X52789819Y-110664868D01*
X104763471Y-133649819D02*
X104287281Y-133649819D01*
X104287281Y-133649819D02*
X104239662Y-134126009D01*
X104239662Y-134126009D02*
X104287281Y-134078390D01*
X104287281Y-134078390D02*
X104382519Y-134030771D01*
X104382519Y-134030771D02*
X104620614Y-134030771D01*
X104620614Y-134030771D02*
X104715852Y-134078390D01*
X104715852Y-134078390D02*
X104763471Y-134126009D01*
X104763471Y-134126009D02*
X104811090Y-134221247D01*
X104811090Y-134221247D02*
X104811090Y-134459342D01*
X104811090Y-134459342D02*
X104763471Y-134554580D01*
X104763471Y-134554580D02*
X104715852Y-134602200D01*
X104715852Y-134602200D02*
X104620614Y-134649819D01*
X104620614Y-134649819D02*
X104382519Y-134649819D01*
X104382519Y-134649819D02*
X104287281Y-134602200D01*
X104287281Y-134602200D02*
X104239662Y-134554580D01*
X105430138Y-133649819D02*
X105525376Y-133649819D01*
X105525376Y-133649819D02*
X105620614Y-133697438D01*
X105620614Y-133697438D02*
X105668233Y-133745057D01*
X105668233Y-133745057D02*
X105715852Y-133840295D01*
X105715852Y-133840295D02*
X105763471Y-134030771D01*
X105763471Y-134030771D02*
X105763471Y-134268866D01*
X105763471Y-134268866D02*
X105715852Y-134459342D01*
X105715852Y-134459342D02*
X105668233Y-134554580D01*
X105668233Y-134554580D02*
X105620614Y-134602200D01*
X105620614Y-134602200D02*
X105525376Y-134649819D01*
X105525376Y-134649819D02*
X105430138Y-134649819D01*
X105430138Y-134649819D02*
X105334900Y-134602200D01*
X105334900Y-134602200D02*
X105287281Y-134554580D01*
X105287281Y-134554580D02*
X105239662Y-134459342D01*
X105239662Y-134459342D02*
X105192043Y-134268866D01*
X105192043Y-134268866D02*
X105192043Y-134030771D01*
X105192043Y-134030771D02*
X105239662Y-133840295D01*
X105239662Y-133840295D02*
X105287281Y-133745057D01*
X105287281Y-133745057D02*
X105334900Y-133697438D01*
X105334900Y-133697438D02*
X105430138Y-133649819D01*
X106192043Y-134649819D02*
X106192043Y-133983152D01*
X106192043Y-134078390D02*
X106239662Y-134030771D01*
X106239662Y-134030771D02*
X106334900Y-133983152D01*
X106334900Y-133983152D02*
X106477757Y-133983152D01*
X106477757Y-133983152D02*
X106572995Y-134030771D01*
X106572995Y-134030771D02*
X106620614Y-134126009D01*
X106620614Y-134126009D02*
X106620614Y-134649819D01*
X106620614Y-134126009D02*
X106668233Y-134030771D01*
X106668233Y-134030771D02*
X106763471Y-133983152D01*
X106763471Y-133983152D02*
X106906328Y-133983152D01*
X106906328Y-133983152D02*
X107001567Y-134030771D01*
X107001567Y-134030771D02*
X107049186Y-134126009D01*
X107049186Y-134126009D02*
X107049186Y-134649819D01*
X107525376Y-134649819D02*
X107525376Y-133983152D01*
X107525376Y-134078390D02*
X107572995Y-134030771D01*
X107572995Y-134030771D02*
X107668233Y-133983152D01*
X107668233Y-133983152D02*
X107811090Y-133983152D01*
X107811090Y-133983152D02*
X107906328Y-134030771D01*
X107906328Y-134030771D02*
X107953947Y-134126009D01*
X107953947Y-134126009D02*
X107953947Y-134649819D01*
X107953947Y-134126009D02*
X108001566Y-134030771D01*
X108001566Y-134030771D02*
X108096804Y-133983152D01*
X108096804Y-133983152D02*
X108239661Y-133983152D01*
X108239661Y-133983152D02*
X108334900Y-134030771D01*
X108334900Y-134030771D02*
X108382519Y-134126009D01*
X108382519Y-134126009D02*
X108382519Y-134649819D01*
X85525416Y-133649819D02*
X86144463Y-133649819D01*
X86144463Y-133649819D02*
X85811130Y-134030771D01*
X85811130Y-134030771D02*
X85953987Y-134030771D01*
X85953987Y-134030771D02*
X86049225Y-134078390D01*
X86049225Y-134078390D02*
X86096844Y-134126009D01*
X86096844Y-134126009D02*
X86144463Y-134221247D01*
X86144463Y-134221247D02*
X86144463Y-134459342D01*
X86144463Y-134459342D02*
X86096844Y-134554580D01*
X86096844Y-134554580D02*
X86049225Y-134602200D01*
X86049225Y-134602200D02*
X85953987Y-134649819D01*
X85953987Y-134649819D02*
X85668273Y-134649819D01*
X85668273Y-134649819D02*
X85573035Y-134602200D01*
X85573035Y-134602200D02*
X85525416Y-134554580D01*
X86763511Y-133649819D02*
X86858749Y-133649819D01*
X86858749Y-133649819D02*
X86953987Y-133697438D01*
X86953987Y-133697438D02*
X87001606Y-133745057D01*
X87001606Y-133745057D02*
X87049225Y-133840295D01*
X87049225Y-133840295D02*
X87096844Y-134030771D01*
X87096844Y-134030771D02*
X87096844Y-134268866D01*
X87096844Y-134268866D02*
X87049225Y-134459342D01*
X87049225Y-134459342D02*
X87001606Y-134554580D01*
X87001606Y-134554580D02*
X86953987Y-134602200D01*
X86953987Y-134602200D02*
X86858749Y-134649819D01*
X86858749Y-134649819D02*
X86763511Y-134649819D01*
X86763511Y-134649819D02*
X86668273Y-134602200D01*
X86668273Y-134602200D02*
X86620654Y-134554580D01*
X86620654Y-134554580D02*
X86573035Y-134459342D01*
X86573035Y-134459342D02*
X86525416Y-134268866D01*
X86525416Y-134268866D02*
X86525416Y-134030771D01*
X86525416Y-134030771D02*
X86573035Y-133840295D01*
X86573035Y-133840295D02*
X86620654Y-133745057D01*
X86620654Y-133745057D02*
X86668273Y-133697438D01*
X86668273Y-133697438D02*
X86763511Y-133649819D01*
X96049205Y-133983152D02*
X96049205Y-134649819D01*
X95811110Y-133602200D02*
X95573015Y-134316485D01*
X95573015Y-134316485D02*
X96192062Y-134316485D01*
X96763491Y-133649819D02*
X96858729Y-133649819D01*
X96858729Y-133649819D02*
X96953967Y-133697438D01*
X96953967Y-133697438D02*
X97001586Y-133745057D01*
X97001586Y-133745057D02*
X97049205Y-133840295D01*
X97049205Y-133840295D02*
X97096824Y-134030771D01*
X97096824Y-134030771D02*
X97096824Y-134268866D01*
X97096824Y-134268866D02*
X97049205Y-134459342D01*
X97049205Y-134459342D02*
X97001586Y-134554580D01*
X97001586Y-134554580D02*
X96953967Y-134602200D01*
X96953967Y-134602200D02*
X96858729Y-134649819D01*
X96858729Y-134649819D02*
X96763491Y-134649819D01*
X96763491Y-134649819D02*
X96668253Y-134602200D01*
X96668253Y-134602200D02*
X96620634Y-134554580D01*
X96620634Y-134554580D02*
X96573015Y-134459342D01*
X96573015Y-134459342D02*
X96525396Y-134268866D01*
X96525396Y-134268866D02*
X96525396Y-134030771D01*
X96525396Y-134030771D02*
X96573015Y-133840295D01*
X96573015Y-133840295D02*
X96620634Y-133745057D01*
X96620634Y-133745057D02*
X96668253Y-133697438D01*
X96668253Y-133697438D02*
X96763491Y-133649819D01*
X75672115Y-133745057D02*
X75719734Y-133697438D01*
X75719734Y-133697438D02*
X75814972Y-133649819D01*
X75814972Y-133649819D02*
X76053067Y-133649819D01*
X76053067Y-133649819D02*
X76148305Y-133697438D01*
X76148305Y-133697438D02*
X76195924Y-133745057D01*
X76195924Y-133745057D02*
X76243543Y-133840295D01*
X76243543Y-133840295D02*
X76243543Y-133935533D01*
X76243543Y-133935533D02*
X76195924Y-134078390D01*
X76195924Y-134078390D02*
X75624496Y-134649819D01*
X75624496Y-134649819D02*
X76243543Y-134649819D01*
X76862591Y-133649819D02*
X76957829Y-133649819D01*
X76957829Y-133649819D02*
X77053067Y-133697438D01*
X77053067Y-133697438D02*
X77100686Y-133745057D01*
X77100686Y-133745057D02*
X77148305Y-133840295D01*
X77148305Y-133840295D02*
X77195924Y-134030771D01*
X77195924Y-134030771D02*
X77195924Y-134268866D01*
X77195924Y-134268866D02*
X77148305Y-134459342D01*
X77148305Y-134459342D02*
X77100686Y-134554580D01*
X77100686Y-134554580D02*
X77053067Y-134602200D01*
X77053067Y-134602200D02*
X76957829Y-134649819D01*
X76957829Y-134649819D02*
X76862591Y-134649819D01*
X76862591Y-134649819D02*
X76767353Y-134602200D01*
X76767353Y-134602200D02*
X76719734Y-134554580D01*
X76719734Y-134554580D02*
X76672115Y-134459342D01*
X76672115Y-134459342D02*
X76624496Y-134268866D01*
X76624496Y-134268866D02*
X76624496Y-134030771D01*
X76624496Y-134030771D02*
X76672115Y-133840295D01*
X76672115Y-133840295D02*
X76719734Y-133745057D01*
X76719734Y-133745057D02*
X76767353Y-133697438D01*
X76767353Y-133697438D02*
X76862591Y-133649819D01*
X52789819Y-125955644D02*
X52789819Y-126431834D01*
X52789819Y-126431834D02*
X53266009Y-126479453D01*
X53266009Y-126479453D02*
X53218390Y-126431834D01*
X53218390Y-126431834D02*
X53170771Y-126336596D01*
X53170771Y-126336596D02*
X53170771Y-126098501D01*
X53170771Y-126098501D02*
X53218390Y-126003263D01*
X53218390Y-126003263D02*
X53266009Y-125955644D01*
X53266009Y-125955644D02*
X53361247Y-125908025D01*
X53361247Y-125908025D02*
X53599342Y-125908025D01*
X53599342Y-125908025D02*
X53694580Y-125955644D01*
X53694580Y-125955644D02*
X53742200Y-126003263D01*
X53742200Y-126003263D02*
X53789819Y-126098501D01*
X53789819Y-126098501D02*
X53789819Y-126336596D01*
X53789819Y-126336596D02*
X53742200Y-126431834D01*
X53742200Y-126431834D02*
X53694580Y-126479453D01*
X66144523Y-134649819D02*
X65573095Y-134649819D01*
X65858809Y-134649819D02*
X65858809Y-133649819D01*
X65858809Y-133649819D02*
X65763571Y-133792676D01*
X65763571Y-133792676D02*
X65668333Y-133887914D01*
X65668333Y-133887914D02*
X65573095Y-133935533D01*
X66763571Y-133649819D02*
X66858809Y-133649819D01*
X66858809Y-133649819D02*
X66954047Y-133697438D01*
X66954047Y-133697438D02*
X67001666Y-133745057D01*
X67001666Y-133745057D02*
X67049285Y-133840295D01*
X67049285Y-133840295D02*
X67096904Y-134030771D01*
X67096904Y-134030771D02*
X67096904Y-134268866D01*
X67096904Y-134268866D02*
X67049285Y-134459342D01*
X67049285Y-134459342D02*
X67001666Y-134554580D01*
X67001666Y-134554580D02*
X66954047Y-134602200D01*
X66954047Y-134602200D02*
X66858809Y-134649819D01*
X66858809Y-134649819D02*
X66763571Y-134649819D01*
X66763571Y-134649819D02*
X66668333Y-134602200D01*
X66668333Y-134602200D02*
X66620714Y-134554580D01*
X66620714Y-134554580D02*
X66573095Y-134459342D01*
X66573095Y-134459342D02*
X66525476Y-134268866D01*
X66525476Y-134268866D02*
X66525476Y-134030771D01*
X66525476Y-134030771D02*
X66573095Y-133840295D01*
X66573095Y-133840295D02*
X66620714Y-133745057D01*
X66620714Y-133745057D02*
X66668333Y-133697438D01*
X66668333Y-133697438D02*
X66763571Y-133649819D01*
X52789819Y-82763988D02*
X52789819Y-83240178D01*
X52789819Y-83240178D02*
X53266009Y-83287797D01*
X53266009Y-83287797D02*
X53218390Y-83240178D01*
X53218390Y-83240178D02*
X53170771Y-83144940D01*
X53170771Y-83144940D02*
X53170771Y-82906845D01*
X53170771Y-82906845D02*
X53218390Y-82811607D01*
X53218390Y-82811607D02*
X53266009Y-82763988D01*
X53266009Y-82763988D02*
X53361247Y-82716369D01*
X53361247Y-82716369D02*
X53599342Y-82716369D01*
X53599342Y-82716369D02*
X53694580Y-82763988D01*
X53694580Y-82763988D02*
X53742200Y-82811607D01*
X53742200Y-82811607D02*
X53789819Y-82906845D01*
X53789819Y-82906845D02*
X53789819Y-83144940D01*
X53789819Y-83144940D02*
X53742200Y-83240178D01*
X53742200Y-83240178D02*
X53694580Y-83287797D01*
X52789819Y-82097321D02*
X52789819Y-82002083D01*
X52789819Y-82002083D02*
X52837438Y-81906845D01*
X52837438Y-81906845D02*
X52885057Y-81859226D01*
X52885057Y-81859226D02*
X52980295Y-81811607D01*
X52980295Y-81811607D02*
X53170771Y-81763988D01*
X53170771Y-81763988D02*
X53408866Y-81763988D01*
X53408866Y-81763988D02*
X53599342Y-81811607D01*
X53599342Y-81811607D02*
X53694580Y-81859226D01*
X53694580Y-81859226D02*
X53742200Y-81906845D01*
X53742200Y-81906845D02*
X53789819Y-82002083D01*
X53789819Y-82002083D02*
X53789819Y-82097321D01*
X53789819Y-82097321D02*
X53742200Y-82192559D01*
X53742200Y-82192559D02*
X53694580Y-82240178D01*
X53694580Y-82240178D02*
X53599342Y-82287797D01*
X53599342Y-82287797D02*
X53408866Y-82335416D01*
X53408866Y-82335416D02*
X53170771Y-82335416D01*
X53170771Y-82335416D02*
X52980295Y-82287797D01*
X52980295Y-82287797D02*
X52885057Y-82240178D01*
X52885057Y-82240178D02*
X52837438Y-82192559D01*
X52837438Y-82192559D02*
X52789819Y-82097321D01*
X53789819Y-81335416D02*
X53123152Y-81335416D01*
X53218390Y-81335416D02*
X53170771Y-81287797D01*
X53170771Y-81287797D02*
X53123152Y-81192559D01*
X53123152Y-81192559D02*
X53123152Y-81049702D01*
X53123152Y-81049702D02*
X53170771Y-80954464D01*
X53170771Y-80954464D02*
X53266009Y-80906845D01*
X53266009Y-80906845D02*
X53789819Y-80906845D01*
X53266009Y-80906845D02*
X53170771Y-80859226D01*
X53170771Y-80859226D02*
X53123152Y-80763988D01*
X53123152Y-80763988D02*
X53123152Y-80621131D01*
X53123152Y-80621131D02*
X53170771Y-80525892D01*
X53170771Y-80525892D02*
X53266009Y-80478273D01*
X53266009Y-80478273D02*
X53789819Y-80478273D01*
X53789819Y-80002083D02*
X53123152Y-80002083D01*
X53218390Y-80002083D02*
X53170771Y-79954464D01*
X53170771Y-79954464D02*
X53123152Y-79859226D01*
X53123152Y-79859226D02*
X53123152Y-79716369D01*
X53123152Y-79716369D02*
X53170771Y-79621131D01*
X53170771Y-79621131D02*
X53266009Y-79573512D01*
X53266009Y-79573512D02*
X53789819Y-79573512D01*
X53266009Y-79573512D02*
X53170771Y-79525893D01*
X53170771Y-79525893D02*
X53123152Y-79430655D01*
X53123152Y-79430655D02*
X53123152Y-79287798D01*
X53123152Y-79287798D02*
X53170771Y-79192559D01*
X53170771Y-79192559D02*
X53266009Y-79144940D01*
X53266009Y-79144940D02*
X53789819Y-79144940D01*
X52789819Y-131240078D02*
X52789819Y-131144840D01*
X52789819Y-131144840D02*
X52837438Y-131049602D01*
X52837438Y-131049602D02*
X52885057Y-131001983D01*
X52885057Y-131001983D02*
X52980295Y-130954364D01*
X52980295Y-130954364D02*
X53170771Y-130906745D01*
X53170771Y-130906745D02*
X53408866Y-130906745D01*
X53408866Y-130906745D02*
X53599342Y-130954364D01*
X53599342Y-130954364D02*
X53694580Y-131001983D01*
X53694580Y-131001983D02*
X53742200Y-131049602D01*
X53742200Y-131049602D02*
X53789819Y-131144840D01*
X53789819Y-131144840D02*
X53789819Y-131240078D01*
X53789819Y-131240078D02*
X53742200Y-131335316D01*
X53742200Y-131335316D02*
X53694580Y-131382935D01*
X53694580Y-131382935D02*
X53599342Y-131430554D01*
X53599342Y-131430554D02*
X53408866Y-131478173D01*
X53408866Y-131478173D02*
X53170771Y-131478173D01*
X53170771Y-131478173D02*
X52980295Y-131430554D01*
X52980295Y-131430554D02*
X52885057Y-131382935D01*
X52885057Y-131382935D02*
X52837438Y-131335316D01*
X52837438Y-131335316D02*
X52789819Y-131240078D01*
X56335000Y-81195100D02*
X54336020Y-81195100D01*
X56335000Y-86193820D02*
X55085000Y-86193820D01*
X56335000Y-91195080D02*
X54336020Y-91195080D01*
X56335000Y-96193800D02*
X55085000Y-96193800D01*
X56335000Y-101195060D02*
X54336020Y-101195060D01*
X56335000Y-106193780D02*
X55085000Y-106193780D01*
X56335000Y-111195040D02*
X54336020Y-111195040D01*
X56335000Y-116193760D02*
X55085000Y-116193760D01*
X56335000Y-121195020D02*
X54336020Y-121195020D01*
X56335000Y-122195780D02*
X55585000Y-122195000D01*
X56335000Y-123194000D02*
X55585000Y-123194000D01*
X56335000Y-124194760D02*
X55585000Y-124194760D01*
X56335000Y-125195520D02*
X55585000Y-125195000D01*
X56335000Y-126193740D02*
X55085000Y-126193740D01*
X56335000Y-127194500D02*
X55585000Y-127194500D01*
X56335000Y-128195260D02*
X55585000Y-128195000D01*
X56335000Y-129196020D02*
X55585000Y-129195000D01*
X56335000Y-130194240D02*
X55585000Y-130194240D01*
X56335000Y-131195000D02*
X54336020Y-131195000D01*
X56335000Y-131195000D02*
X56335000Y-81195100D01*
X56335000Y-131195000D02*
X56335000Y-133193980D01*
X56335000Y-131195000D02*
X66334980Y-131195000D01*
X57335760Y-131195000D02*
X57335000Y-131945000D01*
X58333980Y-131195000D02*
X58333980Y-131945000D01*
X59334740Y-131195000D02*
X59334740Y-131945000D01*
X60335500Y-131195000D02*
X60335000Y-131945000D01*
X61336260Y-131195000D02*
X61335000Y-132445000D01*
X62334480Y-131195000D02*
X62334480Y-131945000D01*
X63335240Y-131195000D02*
X63335000Y-131945000D01*
X64336000Y-131195000D02*
X64335000Y-131945000D01*
X65334220Y-131195000D02*
X65334220Y-131945000D01*
X66334980Y-131195000D02*
X66334980Y-133193980D01*
X66334980Y-131195000D02*
X106334900Y-131195000D01*
X71336240Y-131195000D02*
X71335000Y-132445000D01*
X76334960Y-131195000D02*
X76334960Y-133193980D01*
X81336220Y-131195000D02*
X81335000Y-132445000D01*
X86334940Y-131195000D02*
X86334940Y-133193980D01*
X91336200Y-131195000D02*
X91335000Y-132445000D01*
X96334920Y-131195000D02*
X96334920Y-133193980D01*
X101336180Y-131195000D02*
X101335000Y-132445000D01*
X106334900Y-131195000D02*
X106334900Y-133193980D01*
D11*
X119335000Y-43195000D02*
X121795000Y-68195000D01*
X119335000Y-43195000D02*
X124305000Y-68195000D01*
X119335000Y-43195000D02*
X126915000Y-68195000D01*
X119335000Y-43195000D02*
X129695000Y-68195000D01*
X119335000Y-43195000D02*
X132695000Y-68195000D01*
X119335000Y-43195000D02*
X136035000Y-68195000D01*
X119335000Y-43195000D02*
X139845000Y-68195000D01*
X119335000Y-43195000D02*
X144335000Y-45655000D01*
X119335000Y-43195000D02*
X144335000Y-48165000D01*
X119335000Y-43195000D02*
X144335000Y-50775000D01*
X119335000Y-43195000D02*
X144335000Y-53555000D01*
X119335000Y-43195000D02*
X144335000Y-56555000D01*
X119335000Y-43195000D02*
X144335000Y-59895000D01*
X119335000Y-43195000D02*
X144335000Y-63705000D01*
X119335000Y-43195000D02*
X144335000Y-68195000D01*
X119335000Y-43195000D02*
X144335000Y-43195000D01*
X144335000Y-43195000D02*
X144335000Y-68195000D01*
X144335000Y-68195000D02*
X119335000Y-68195000D01*
X119335000Y-68195000D02*
X119335000Y-43195000D01*
D12*
X63335000Y-73195000D02*
X65795000Y-98195000D01*
X63335000Y-73195000D02*
X68305000Y-98195000D01*
X63335000Y-73195000D02*
X70915000Y-98195000D01*
X63335000Y-73195000D02*
X73695000Y-98195000D01*
X63335000Y-73195000D02*
X76695000Y-98195000D01*
X63335000Y-73195000D02*
X80035000Y-98195000D01*
X63335000Y-73195000D02*
X83845000Y-98195000D01*
X63335000Y-73195000D02*
X88335000Y-75655000D01*
X63335000Y-73195000D02*
X88335000Y-78165000D01*
X63335000Y-73195000D02*
X88335000Y-80775000D01*
X63335000Y-73195000D02*
X88335000Y-83555000D01*
X63335000Y-73195000D02*
X88335000Y-86555000D01*
X63335000Y-73195000D02*
X88335000Y-89895000D01*
X63335000Y-73195000D02*
X88335000Y-93705000D01*
X63335000Y-73195000D02*
X88335000Y-98195000D01*
X63335000Y-73195000D02*
X88335000Y-73195000D01*
X88335000Y-73195000D02*
X88335000Y-98195000D01*
X88335000Y-98195000D02*
X63335000Y-98195000D01*
X63335000Y-98195000D02*
X63335000Y-73195000D01*
D10*
X63335000Y-103195000D02*
X65795000Y-128195000D01*
X63335000Y-103195000D02*
X68305000Y-128195000D01*
X63335000Y-103195000D02*
X70915000Y-128195000D01*
X63335000Y-103195000D02*
X73695000Y-128195000D01*
X63335000Y-103195000D02*
X76695000Y-128195000D01*
X63335000Y-103195000D02*
X80035000Y-128195000D01*
X63335000Y-103195000D02*
X83845000Y-128195000D01*
X63335000Y-103195000D02*
X88335000Y-105655000D01*
X63335000Y-103195000D02*
X88335000Y-108165000D01*
X63335000Y-103195000D02*
X88335000Y-110775000D01*
X63335000Y-103195000D02*
X88335000Y-113555000D01*
X63335000Y-103195000D02*
X88335000Y-116555000D01*
X63335000Y-103195000D02*
X88335000Y-119895000D01*
X63335000Y-103195000D02*
X88335000Y-123705000D01*
X63335000Y-103195000D02*
X88335000Y-128195000D01*
X63335000Y-103195000D02*
X88335000Y-103195000D01*
X88335000Y-103195000D02*
X88335000Y-128195000D01*
X88335000Y-128195000D02*
X63335000Y-128195000D01*
X63335000Y-128195000D02*
X63335000Y-103195000D01*
D13*
X119335000Y-73195000D02*
X121795000Y-98195000D01*
X119335000Y-73195000D02*
X124305000Y-98195000D01*
X119335000Y-73195000D02*
X126915000Y-98195000D01*
X119335000Y-73195000D02*
X129695000Y-98195000D01*
X119335000Y-73195000D02*
X132695000Y-98195000D01*
X119335000Y-73195000D02*
X136035000Y-98195000D01*
X119335000Y-73195000D02*
X139845000Y-98195000D01*
X119335000Y-73195000D02*
X144335000Y-75655000D01*
X119335000Y-73195000D02*
X144335000Y-78165000D01*
X119335000Y-73195000D02*
X144335000Y-80775000D01*
X119335000Y-73195000D02*
X144335000Y-83555000D01*
X119335000Y-73195000D02*
X144335000Y-86555000D01*
X119335000Y-73195000D02*
X144335000Y-89895000D01*
X119335000Y-73195000D02*
X144335000Y-93705000D01*
X119335000Y-73195000D02*
X144335000Y-98195000D01*
X119335000Y-73195000D02*
X144335000Y-73195000D01*
X144335000Y-73195000D02*
X144335000Y-98195000D01*
X144335000Y-98195000D02*
X119335000Y-98195000D01*
X119335000Y-98195000D02*
X119335000Y-73195000D01*
D14*
X119335000Y-103195000D02*
X121795000Y-128195000D01*
X119335000Y-103195000D02*
X124305000Y-128195000D01*
X119335000Y-103195000D02*
X126915000Y-128195000D01*
X119335000Y-103195000D02*
X129695000Y-128195000D01*
X119335000Y-103195000D02*
X132695000Y-128195000D01*
X119335000Y-103195000D02*
X136035000Y-128195000D01*
X119335000Y-103195000D02*
X139845000Y-128195000D01*
X119335000Y-103195000D02*
X144335000Y-105655000D01*
X119335000Y-103195000D02*
X144335000Y-108165000D01*
X119335000Y-103195000D02*
X144335000Y-110775000D01*
X119335000Y-103195000D02*
X144335000Y-113555000D01*
X119335000Y-103195000D02*
X144335000Y-116555000D01*
X119335000Y-103195000D02*
X144335000Y-119895000D01*
X119335000Y-103195000D02*
X144335000Y-123705000D01*
X119335000Y-103195000D02*
X144335000Y-128195000D01*
X119335000Y-103195000D02*
X144335000Y-103195000D01*
X144335000Y-103195000D02*
X144335000Y-128195000D01*
X144335000Y-128195000D02*
X119335000Y-128195000D01*
X119335000Y-128195000D02*
X119335000Y-103195000D01*
D15*
X63335000Y-43195000D02*
X65795000Y-68195000D01*
X63335000Y-43195000D02*
X68305000Y-68195000D01*
X63335000Y-43195000D02*
X70915000Y-68195000D01*
X63335000Y-43195000D02*
X73695000Y-68195000D01*
X63335000Y-43195000D02*
X76695000Y-68195000D01*
X63335000Y-43195000D02*
X80035000Y-68195000D01*
X63335000Y-43195000D02*
X83845000Y-68195000D01*
X63335000Y-43195000D02*
X88335000Y-45655000D01*
X63335000Y-43195000D02*
X88335000Y-48165000D01*
X63335000Y-43195000D02*
X88335000Y-50775000D01*
X63335000Y-43195000D02*
X88335000Y-53555000D01*
X63335000Y-43195000D02*
X88335000Y-56555000D01*
X63335000Y-43195000D02*
X88335000Y-59895000D01*
X63335000Y-43195000D02*
X88335000Y-63705000D01*
X63335000Y-43195000D02*
X88335000Y-68195000D01*
X63335000Y-43195000D02*
X88335000Y-43195000D01*
X88335000Y-43195000D02*
X88335000Y-68195000D01*
X88335000Y-68195000D02*
X63335000Y-68195000D01*
X63335000Y-68195000D02*
X63335000Y-43195000D01*
D16*
X91335000Y-73195000D02*
X93795000Y-98195000D01*
X91335000Y-73195000D02*
X96305000Y-98195000D01*
X91335000Y-73195000D02*
X98915000Y-98195000D01*
X91335000Y-73195000D02*
X101695000Y-98195000D01*
X91335000Y-73195000D02*
X104695000Y-98195000D01*
X91335000Y-73195000D02*
X108035000Y-98195000D01*
X91335000Y-73195000D02*
X111845000Y-98195000D01*
X91335000Y-73195000D02*
X116335000Y-75655000D01*
X91335000Y-73195000D02*
X116335000Y-78165000D01*
X91335000Y-73195000D02*
X116335000Y-80775000D01*
X91335000Y-73195000D02*
X116335000Y-83555000D01*
X91335000Y-73195000D02*
X116335000Y-86555000D01*
X91335000Y-73195000D02*
X116335000Y-89895000D01*
X91335000Y-73195000D02*
X116335000Y-93705000D01*
X91335000Y-73195000D02*
X116335000Y-98195000D01*
X91335000Y-73195000D02*
X116335000Y-73195000D01*
X116335000Y-73195000D02*
X116335000Y-98195000D01*
X116335000Y-98195000D02*
X91335000Y-98195000D01*
X91335000Y-98195000D02*
X91335000Y-73195000D01*
D17*
X91335000Y-43195000D02*
X93795000Y-68195000D01*
X91335000Y-43195000D02*
X96305000Y-68195000D01*
X91335000Y-43195000D02*
X98915000Y-68195000D01*
X91335000Y-43195000D02*
X101695000Y-68195000D01*
X91335000Y-43195000D02*
X104695000Y-68195000D01*
X91335000Y-43195000D02*
X108035000Y-68195000D01*
X91335000Y-43195000D02*
X111845000Y-68195000D01*
X91335000Y-43195000D02*
X116335000Y-45655000D01*
X91335000Y-43195000D02*
X116335000Y-48165000D01*
X91335000Y-43195000D02*
X116335000Y-50775000D01*
X91335000Y-43195000D02*
X116335000Y-53555000D01*
X91335000Y-43195000D02*
X116335000Y-56555000D01*
X91335000Y-43195000D02*
X116335000Y-59895000D01*
X91335000Y-43195000D02*
X116335000Y-63705000D01*
X91335000Y-43195000D02*
X116335000Y-68195000D01*
X91335000Y-43195000D02*
X116335000Y-43195000D01*
X116335000Y-43195000D02*
X116335000Y-68195000D01*
X116335000Y-68195000D02*
X91335000Y-68195000D01*
X91335000Y-68195000D02*
X91335000Y-43195000D01*
D18*
X91335000Y-103195000D02*
X93795000Y-128195000D01*
X91335000Y-103195000D02*
X96305000Y-128195000D01*
X91335000Y-103195000D02*
X98915000Y-128195000D01*
X91335000Y-103195000D02*
X101695000Y-128195000D01*
X91335000Y-103195000D02*
X104695000Y-128195000D01*
X91335000Y-103195000D02*
X108035000Y-128195000D01*
X91335000Y-103195000D02*
X111845000Y-128195000D01*
X91335000Y-103195000D02*
X116335000Y-105655000D01*
X91335000Y-103195000D02*
X116335000Y-108165000D01*
X91335000Y-103195000D02*
X116335000Y-110775000D01*
X91335000Y-103195000D02*
X116335000Y-113555000D01*
X91335000Y-103195000D02*
X116335000Y-116555000D01*
X91335000Y-103195000D02*
X116335000Y-119895000D01*
X91335000Y-103195000D02*
X116335000Y-123705000D01*
X91335000Y-103195000D02*
X116335000Y-128195000D01*
X91335000Y-103195000D02*
X116335000Y-103195000D01*
X116335000Y-103195000D02*
X116335000Y-128195000D01*
X116335000Y-128195000D02*
X91335000Y-128195000D01*
X91335000Y-128195000D02*
X91335000Y-103195000D01*
%LPC*%
D19*
X56335000Y-41195000D03*
%LPD*%
M02*
