%TF.GenerationSoftware,KiCad,Pcbnew,7.0.8*%
%TF.CreationDate,2023-10-17T14:22:27+02:00*%
%TF.ProjectId,Lines,4c696e65-732e-46b6-9963-61645f706362,1.0c*%
%TF.SameCoordinates,Original*%
%TF.FileFunction,Drillmap*%
%TF.FilePolarity,Positive*%
%FSLAX45Y45*%
G04 Gerber Fmt 4.5, Leading zero omitted, Abs format (unit mm)*
G04 Created by KiCad (PCBNEW 7.0.8) date 2023-10-17 14:22:27*
%MOMM*%
%LPD*%
G01*
G04 APERTURE LIST*
%ADD10C,0.100000*%
%ADD11C,0.200000*%
%ADD12C,0.320000*%
G04 APERTURE END LIST*
D10*
X15133500Y-4119500D02*
X15133500Y-13119500D01*
X5133500Y-13119500D02*
G75*
G03*
X5633500Y-13619500I500000J0D01*
G01*
X14633500Y-13619500D02*
G75*
G03*
X15133500Y-13119500I0J500000D01*
G01*
X5633500Y-3619500D02*
X14633500Y-3619500D01*
X14633500Y-13619500D02*
X5633500Y-13619500D01*
X5133500Y-13119500D02*
X5133500Y-4119500D01*
X15133500Y-4119500D02*
G75*
G03*
X14633500Y-3619500I-500000J0D01*
G01*
X5633500Y-3619500D02*
G75*
G03*
X5133500Y-4119500I0J-500000D01*
G01*
D11*
D12*
X5473500Y-3959500D02*
X5793500Y-4279500D01*
X5793500Y-3959500D02*
X5473500Y-4279500D01*
D11*
X5389277Y-13935984D02*
X5389277Y-13735984D01*
X5389277Y-13735984D02*
X5436896Y-13735984D01*
X5436896Y-13735984D02*
X5465467Y-13745508D01*
X5465467Y-13745508D02*
X5484515Y-13764555D01*
X5484515Y-13764555D02*
X5494039Y-13783603D01*
X5494039Y-13783603D02*
X5503563Y-13821698D01*
X5503563Y-13821698D02*
X5503563Y-13850269D01*
X5503563Y-13850269D02*
X5494039Y-13888365D01*
X5494039Y-13888365D02*
X5484515Y-13907412D01*
X5484515Y-13907412D02*
X5465467Y-13926460D01*
X5465467Y-13926460D02*
X5436896Y-13935984D01*
X5436896Y-13935984D02*
X5389277Y-13935984D01*
X5589277Y-13935984D02*
X5589277Y-13802650D01*
X5589277Y-13840746D02*
X5598801Y-13821698D01*
X5598801Y-13821698D02*
X5608324Y-13812174D01*
X5608324Y-13812174D02*
X5627372Y-13802650D01*
X5627372Y-13802650D02*
X5646420Y-13802650D01*
X5713086Y-13935984D02*
X5713086Y-13802650D01*
X5713086Y-13735984D02*
X5703562Y-13745508D01*
X5703562Y-13745508D02*
X5713086Y-13755031D01*
X5713086Y-13755031D02*
X5722610Y-13745508D01*
X5722610Y-13745508D02*
X5713086Y-13735984D01*
X5713086Y-13735984D02*
X5713086Y-13755031D01*
X5836896Y-13935984D02*
X5817848Y-13926460D01*
X5817848Y-13926460D02*
X5808324Y-13907412D01*
X5808324Y-13907412D02*
X5808324Y-13735984D01*
X5941658Y-13935984D02*
X5922610Y-13926460D01*
X5922610Y-13926460D02*
X5913086Y-13907412D01*
X5913086Y-13907412D02*
X5913086Y-13735984D01*
X6170229Y-13935984D02*
X6170229Y-13735984D01*
X6170229Y-13735984D02*
X6236896Y-13878841D01*
X6236896Y-13878841D02*
X6303562Y-13735984D01*
X6303562Y-13735984D02*
X6303562Y-13935984D01*
X6484515Y-13935984D02*
X6484515Y-13831222D01*
X6484515Y-13831222D02*
X6474991Y-13812174D01*
X6474991Y-13812174D02*
X6455943Y-13802650D01*
X6455943Y-13802650D02*
X6417848Y-13802650D01*
X6417848Y-13802650D02*
X6398801Y-13812174D01*
X6484515Y-13926460D02*
X6465467Y-13935984D01*
X6465467Y-13935984D02*
X6417848Y-13935984D01*
X6417848Y-13935984D02*
X6398801Y-13926460D01*
X6398801Y-13926460D02*
X6389277Y-13907412D01*
X6389277Y-13907412D02*
X6389277Y-13888365D01*
X6389277Y-13888365D02*
X6398801Y-13869317D01*
X6398801Y-13869317D02*
X6417848Y-13859793D01*
X6417848Y-13859793D02*
X6465467Y-13859793D01*
X6465467Y-13859793D02*
X6484515Y-13850269D01*
X6579753Y-13802650D02*
X6579753Y-14002650D01*
X6579753Y-13812174D02*
X6598801Y-13802650D01*
X6598801Y-13802650D02*
X6636896Y-13802650D01*
X6636896Y-13802650D02*
X6655943Y-13812174D01*
X6655943Y-13812174D02*
X6665467Y-13821698D01*
X6665467Y-13821698D02*
X6674991Y-13840746D01*
X6674991Y-13840746D02*
X6674991Y-13897888D01*
X6674991Y-13897888D02*
X6665467Y-13916936D01*
X6665467Y-13916936D02*
X6655943Y-13926460D01*
X6655943Y-13926460D02*
X6636896Y-13935984D01*
X6636896Y-13935984D02*
X6598801Y-13935984D01*
X6598801Y-13935984D02*
X6579753Y-13926460D01*
X6760705Y-13916936D02*
X6770229Y-13926460D01*
X6770229Y-13926460D02*
X6760705Y-13935984D01*
X6760705Y-13935984D02*
X6751182Y-13926460D01*
X6751182Y-13926460D02*
X6760705Y-13916936D01*
X6760705Y-13916936D02*
X6760705Y-13935984D01*
X6760705Y-13812174D02*
X6770229Y-13821698D01*
X6770229Y-13821698D02*
X6760705Y-13831222D01*
X6760705Y-13831222D02*
X6751182Y-13821698D01*
X6751182Y-13821698D02*
X6760705Y-13812174D01*
X6760705Y-13812174D02*
X6760705Y-13831222D01*
X4928500Y-14164500D02*
X5128500Y-14364500D01*
X5128500Y-14164500D02*
X4928500Y-14364500D01*
X5370229Y-14155984D02*
X5494039Y-14155984D01*
X5494039Y-14155984D02*
X5427372Y-14232174D01*
X5427372Y-14232174D02*
X5455944Y-14232174D01*
X5455944Y-14232174D02*
X5474991Y-14241698D01*
X5474991Y-14241698D02*
X5484515Y-14251222D01*
X5484515Y-14251222D02*
X5494039Y-14270269D01*
X5494039Y-14270269D02*
X5494039Y-14317888D01*
X5494039Y-14317888D02*
X5484515Y-14336936D01*
X5484515Y-14336936D02*
X5474991Y-14346460D01*
X5474991Y-14346460D02*
X5455944Y-14355984D01*
X5455944Y-14355984D02*
X5398801Y-14355984D01*
X5398801Y-14355984D02*
X5379753Y-14346460D01*
X5379753Y-14346460D02*
X5370229Y-14336936D01*
X5579753Y-14336936D02*
X5589277Y-14346460D01*
X5589277Y-14346460D02*
X5579753Y-14355984D01*
X5579753Y-14355984D02*
X5570229Y-14346460D01*
X5570229Y-14346460D02*
X5579753Y-14336936D01*
X5579753Y-14336936D02*
X5579753Y-14355984D01*
X5665467Y-14175031D02*
X5674991Y-14165508D01*
X5674991Y-14165508D02*
X5694039Y-14155984D01*
X5694039Y-14155984D02*
X5741658Y-14155984D01*
X5741658Y-14155984D02*
X5760705Y-14165508D01*
X5760705Y-14165508D02*
X5770229Y-14175031D01*
X5770229Y-14175031D02*
X5779753Y-14194079D01*
X5779753Y-14194079D02*
X5779753Y-14213127D01*
X5779753Y-14213127D02*
X5770229Y-14241698D01*
X5770229Y-14241698D02*
X5655943Y-14355984D01*
X5655943Y-14355984D02*
X5779753Y-14355984D01*
X5903562Y-14155984D02*
X5922610Y-14155984D01*
X5922610Y-14155984D02*
X5941658Y-14165508D01*
X5941658Y-14165508D02*
X5951182Y-14175031D01*
X5951182Y-14175031D02*
X5960705Y-14194079D01*
X5960705Y-14194079D02*
X5970229Y-14232174D01*
X5970229Y-14232174D02*
X5970229Y-14279793D01*
X5970229Y-14279793D02*
X5960705Y-14317888D01*
X5960705Y-14317888D02*
X5951182Y-14336936D01*
X5951182Y-14336936D02*
X5941658Y-14346460D01*
X5941658Y-14346460D02*
X5922610Y-14355984D01*
X5922610Y-14355984D02*
X5903562Y-14355984D01*
X5903562Y-14355984D02*
X5884515Y-14346460D01*
X5884515Y-14346460D02*
X5874991Y-14336936D01*
X5874991Y-14336936D02*
X5865467Y-14317888D01*
X5865467Y-14317888D02*
X5855943Y-14279793D01*
X5855943Y-14279793D02*
X5855943Y-14232174D01*
X5855943Y-14232174D02*
X5865467Y-14194079D01*
X5865467Y-14194079D02*
X5874991Y-14175031D01*
X5874991Y-14175031D02*
X5884515Y-14165508D01*
X5884515Y-14165508D02*
X5903562Y-14155984D01*
X6094039Y-14155984D02*
X6113086Y-14155984D01*
X6113086Y-14155984D02*
X6132134Y-14165508D01*
X6132134Y-14165508D02*
X6141658Y-14175031D01*
X6141658Y-14175031D02*
X6151182Y-14194079D01*
X6151182Y-14194079D02*
X6160705Y-14232174D01*
X6160705Y-14232174D02*
X6160705Y-14279793D01*
X6160705Y-14279793D02*
X6151182Y-14317888D01*
X6151182Y-14317888D02*
X6141658Y-14336936D01*
X6141658Y-14336936D02*
X6132134Y-14346460D01*
X6132134Y-14346460D02*
X6113086Y-14355984D01*
X6113086Y-14355984D02*
X6094039Y-14355984D01*
X6094039Y-14355984D02*
X6074991Y-14346460D01*
X6074991Y-14346460D02*
X6065467Y-14336936D01*
X6065467Y-14336936D02*
X6055943Y-14317888D01*
X6055943Y-14317888D02*
X6046420Y-14279793D01*
X6046420Y-14279793D02*
X6046420Y-14232174D01*
X6046420Y-14232174D02*
X6055943Y-14194079D01*
X6055943Y-14194079D02*
X6065467Y-14175031D01*
X6065467Y-14175031D02*
X6074991Y-14165508D01*
X6074991Y-14165508D02*
X6094039Y-14155984D01*
X6246420Y-14355984D02*
X6246420Y-14222650D01*
X6246420Y-14241698D02*
X6255943Y-14232174D01*
X6255943Y-14232174D02*
X6274991Y-14222650D01*
X6274991Y-14222650D02*
X6303563Y-14222650D01*
X6303563Y-14222650D02*
X6322610Y-14232174D01*
X6322610Y-14232174D02*
X6332134Y-14251222D01*
X6332134Y-14251222D02*
X6332134Y-14355984D01*
X6332134Y-14251222D02*
X6341658Y-14232174D01*
X6341658Y-14232174D02*
X6360705Y-14222650D01*
X6360705Y-14222650D02*
X6389277Y-14222650D01*
X6389277Y-14222650D02*
X6408324Y-14232174D01*
X6408324Y-14232174D02*
X6417848Y-14251222D01*
X6417848Y-14251222D02*
X6417848Y-14355984D01*
X6513086Y-14355984D02*
X6513086Y-14222650D01*
X6513086Y-14241698D02*
X6522610Y-14232174D01*
X6522610Y-14232174D02*
X6541658Y-14222650D01*
X6541658Y-14222650D02*
X6570229Y-14222650D01*
X6570229Y-14222650D02*
X6589277Y-14232174D01*
X6589277Y-14232174D02*
X6598801Y-14251222D01*
X6598801Y-14251222D02*
X6598801Y-14355984D01*
X6598801Y-14251222D02*
X6608324Y-14232174D01*
X6608324Y-14232174D02*
X6627372Y-14222650D01*
X6627372Y-14222650D02*
X6655943Y-14222650D01*
X6655943Y-14222650D02*
X6674991Y-14232174D01*
X6674991Y-14232174D02*
X6684515Y-14251222D01*
X6684515Y-14251222D02*
X6684515Y-14355984D01*
X7074991Y-14146460D02*
X6903563Y-14403603D01*
X7332134Y-14155984D02*
X7351182Y-14155984D01*
X7351182Y-14155984D02*
X7370229Y-14165508D01*
X7370229Y-14165508D02*
X7379753Y-14175031D01*
X7379753Y-14175031D02*
X7389277Y-14194079D01*
X7389277Y-14194079D02*
X7398801Y-14232174D01*
X7398801Y-14232174D02*
X7398801Y-14279793D01*
X7398801Y-14279793D02*
X7389277Y-14317888D01*
X7389277Y-14317888D02*
X7379753Y-14336936D01*
X7379753Y-14336936D02*
X7370229Y-14346460D01*
X7370229Y-14346460D02*
X7351182Y-14355984D01*
X7351182Y-14355984D02*
X7332134Y-14355984D01*
X7332134Y-14355984D02*
X7313086Y-14346460D01*
X7313086Y-14346460D02*
X7303563Y-14336936D01*
X7303563Y-14336936D02*
X7294039Y-14317888D01*
X7294039Y-14317888D02*
X7284515Y-14279793D01*
X7284515Y-14279793D02*
X7284515Y-14232174D01*
X7284515Y-14232174D02*
X7294039Y-14194079D01*
X7294039Y-14194079D02*
X7303563Y-14175031D01*
X7303563Y-14175031D02*
X7313086Y-14165508D01*
X7313086Y-14165508D02*
X7332134Y-14155984D01*
X7484515Y-14336936D02*
X7494039Y-14346460D01*
X7494039Y-14346460D02*
X7484515Y-14355984D01*
X7484515Y-14355984D02*
X7474991Y-14346460D01*
X7474991Y-14346460D02*
X7484515Y-14336936D01*
X7484515Y-14336936D02*
X7484515Y-14355984D01*
X7684515Y-14355984D02*
X7570229Y-14355984D01*
X7627372Y-14355984D02*
X7627372Y-14155984D01*
X7627372Y-14155984D02*
X7608325Y-14184555D01*
X7608325Y-14184555D02*
X7589277Y-14203603D01*
X7589277Y-14203603D02*
X7570229Y-14213127D01*
X7760706Y-14175031D02*
X7770229Y-14165508D01*
X7770229Y-14165508D02*
X7789277Y-14155984D01*
X7789277Y-14155984D02*
X7836896Y-14155984D01*
X7836896Y-14155984D02*
X7855944Y-14165508D01*
X7855944Y-14165508D02*
X7865467Y-14175031D01*
X7865467Y-14175031D02*
X7874991Y-14194079D01*
X7874991Y-14194079D02*
X7874991Y-14213127D01*
X7874991Y-14213127D02*
X7865467Y-14241698D01*
X7865467Y-14241698D02*
X7751182Y-14355984D01*
X7751182Y-14355984D02*
X7874991Y-14355984D01*
X8046420Y-14155984D02*
X8008325Y-14155984D01*
X8008325Y-14155984D02*
X7989277Y-14165508D01*
X7989277Y-14165508D02*
X7979753Y-14175031D01*
X7979753Y-14175031D02*
X7960706Y-14203603D01*
X7960706Y-14203603D02*
X7951182Y-14241698D01*
X7951182Y-14241698D02*
X7951182Y-14317888D01*
X7951182Y-14317888D02*
X7960706Y-14336936D01*
X7960706Y-14336936D02*
X7970229Y-14346460D01*
X7970229Y-14346460D02*
X7989277Y-14355984D01*
X7989277Y-14355984D02*
X8027372Y-14355984D01*
X8027372Y-14355984D02*
X8046420Y-14346460D01*
X8046420Y-14346460D02*
X8055944Y-14336936D01*
X8055944Y-14336936D02*
X8065467Y-14317888D01*
X8065467Y-14317888D02*
X8065467Y-14270269D01*
X8065467Y-14270269D02*
X8055944Y-14251222D01*
X8055944Y-14251222D02*
X8046420Y-14241698D01*
X8046420Y-14241698D02*
X8027372Y-14232174D01*
X8027372Y-14232174D02*
X7989277Y-14232174D01*
X7989277Y-14232174D02*
X7970229Y-14241698D01*
X7970229Y-14241698D02*
X7960706Y-14251222D01*
X7960706Y-14251222D02*
X7951182Y-14270269D01*
X8189277Y-14155984D02*
X8208325Y-14155984D01*
X8208325Y-14155984D02*
X8227372Y-14165508D01*
X8227372Y-14165508D02*
X8236896Y-14175031D01*
X8236896Y-14175031D02*
X8246420Y-14194079D01*
X8246420Y-14194079D02*
X8255944Y-14232174D01*
X8255944Y-14232174D02*
X8255944Y-14279793D01*
X8255944Y-14279793D02*
X8246420Y-14317888D01*
X8246420Y-14317888D02*
X8236896Y-14336936D01*
X8236896Y-14336936D02*
X8227372Y-14346460D01*
X8227372Y-14346460D02*
X8208325Y-14355984D01*
X8208325Y-14355984D02*
X8189277Y-14355984D01*
X8189277Y-14355984D02*
X8170229Y-14346460D01*
X8170229Y-14346460D02*
X8160706Y-14336936D01*
X8160706Y-14336936D02*
X8151182Y-14317888D01*
X8151182Y-14317888D02*
X8141658Y-14279793D01*
X8141658Y-14279793D02*
X8141658Y-14232174D01*
X8141658Y-14232174D02*
X8151182Y-14194079D01*
X8151182Y-14194079D02*
X8160706Y-14175031D01*
X8160706Y-14175031D02*
X8170229Y-14165508D01*
X8170229Y-14165508D02*
X8189277Y-14155984D01*
X8332134Y-14155984D02*
X8332134Y-14194079D01*
X8408325Y-14155984D02*
X8408325Y-14194079D01*
X8703563Y-14432174D02*
X8694039Y-14422650D01*
X8694039Y-14422650D02*
X8674991Y-14394079D01*
X8674991Y-14394079D02*
X8665468Y-14375031D01*
X8665468Y-14375031D02*
X8655944Y-14346460D01*
X8655944Y-14346460D02*
X8646420Y-14298841D01*
X8646420Y-14298841D02*
X8646420Y-14260746D01*
X8646420Y-14260746D02*
X8655944Y-14213127D01*
X8655944Y-14213127D02*
X8665468Y-14184555D01*
X8665468Y-14184555D02*
X8674991Y-14165508D01*
X8674991Y-14165508D02*
X8694039Y-14136936D01*
X8694039Y-14136936D02*
X8703563Y-14127412D01*
X8884515Y-14355984D02*
X8770230Y-14355984D01*
X8827372Y-14355984D02*
X8827372Y-14155984D01*
X8827372Y-14155984D02*
X8808325Y-14184555D01*
X8808325Y-14184555D02*
X8789277Y-14203603D01*
X8789277Y-14203603D02*
X8770230Y-14213127D01*
X9122611Y-14355984D02*
X9122611Y-14155984D01*
X9208325Y-14355984D02*
X9208325Y-14251222D01*
X9208325Y-14251222D02*
X9198801Y-14232174D01*
X9198801Y-14232174D02*
X9179753Y-14222650D01*
X9179753Y-14222650D02*
X9151182Y-14222650D01*
X9151182Y-14222650D02*
X9132134Y-14232174D01*
X9132134Y-14232174D02*
X9122611Y-14241698D01*
X9332134Y-14355984D02*
X9313087Y-14346460D01*
X9313087Y-14346460D02*
X9303563Y-14336936D01*
X9303563Y-14336936D02*
X9294039Y-14317888D01*
X9294039Y-14317888D02*
X9294039Y-14260746D01*
X9294039Y-14260746D02*
X9303563Y-14241698D01*
X9303563Y-14241698D02*
X9313087Y-14232174D01*
X9313087Y-14232174D02*
X9332134Y-14222650D01*
X9332134Y-14222650D02*
X9360706Y-14222650D01*
X9360706Y-14222650D02*
X9379753Y-14232174D01*
X9379753Y-14232174D02*
X9389277Y-14241698D01*
X9389277Y-14241698D02*
X9398801Y-14260746D01*
X9398801Y-14260746D02*
X9398801Y-14317888D01*
X9398801Y-14317888D02*
X9389277Y-14336936D01*
X9389277Y-14336936D02*
X9379753Y-14346460D01*
X9379753Y-14346460D02*
X9360706Y-14355984D01*
X9360706Y-14355984D02*
X9332134Y-14355984D01*
X9513087Y-14355984D02*
X9494039Y-14346460D01*
X9494039Y-14346460D02*
X9484515Y-14327412D01*
X9484515Y-14327412D02*
X9484515Y-14155984D01*
X9665468Y-14346460D02*
X9646420Y-14355984D01*
X9646420Y-14355984D02*
X9608325Y-14355984D01*
X9608325Y-14355984D02*
X9589277Y-14346460D01*
X9589277Y-14346460D02*
X9579753Y-14327412D01*
X9579753Y-14327412D02*
X9579753Y-14251222D01*
X9579753Y-14251222D02*
X9589277Y-14232174D01*
X9589277Y-14232174D02*
X9608325Y-14222650D01*
X9608325Y-14222650D02*
X9646420Y-14222650D01*
X9646420Y-14222650D02*
X9665468Y-14232174D01*
X9665468Y-14232174D02*
X9674992Y-14251222D01*
X9674992Y-14251222D02*
X9674992Y-14270269D01*
X9674992Y-14270269D02*
X9579753Y-14289317D01*
X9741658Y-14432174D02*
X9751182Y-14422650D01*
X9751182Y-14422650D02*
X9770230Y-14394079D01*
X9770230Y-14394079D02*
X9779753Y-14375031D01*
X9779753Y-14375031D02*
X9789277Y-14346460D01*
X9789277Y-14346460D02*
X9798801Y-14298841D01*
X9798801Y-14298841D02*
X9798801Y-14260746D01*
X9798801Y-14260746D02*
X9789277Y-14213127D01*
X9789277Y-14213127D02*
X9779753Y-14184555D01*
X9779753Y-14184555D02*
X9770230Y-14165508D01*
X9770230Y-14165508D02*
X9751182Y-14136936D01*
X9751182Y-14136936D02*
X9741658Y-14127412D01*
X10103563Y-14432174D02*
X10094039Y-14422650D01*
X10094039Y-14422650D02*
X10074992Y-14394079D01*
X10074992Y-14394079D02*
X10065468Y-14375031D01*
X10065468Y-14375031D02*
X10055944Y-14346460D01*
X10055944Y-14346460D02*
X10046420Y-14298841D01*
X10046420Y-14298841D02*
X10046420Y-14260746D01*
X10046420Y-14260746D02*
X10055944Y-14213127D01*
X10055944Y-14213127D02*
X10065468Y-14184555D01*
X10065468Y-14184555D02*
X10074992Y-14165508D01*
X10074992Y-14165508D02*
X10094039Y-14136936D01*
X10094039Y-14136936D02*
X10103563Y-14127412D01*
X10179753Y-14222650D02*
X10179753Y-14355984D01*
X10179753Y-14241698D02*
X10189277Y-14232174D01*
X10189277Y-14232174D02*
X10208325Y-14222650D01*
X10208325Y-14222650D02*
X10236896Y-14222650D01*
X10236896Y-14222650D02*
X10255944Y-14232174D01*
X10255944Y-14232174D02*
X10265468Y-14251222D01*
X10265468Y-14251222D02*
X10265468Y-14355984D01*
X10389277Y-14355984D02*
X10370230Y-14346460D01*
X10370230Y-14346460D02*
X10360706Y-14336936D01*
X10360706Y-14336936D02*
X10351182Y-14317888D01*
X10351182Y-14317888D02*
X10351182Y-14260746D01*
X10351182Y-14260746D02*
X10360706Y-14241698D01*
X10360706Y-14241698D02*
X10370230Y-14232174D01*
X10370230Y-14232174D02*
X10389277Y-14222650D01*
X10389277Y-14222650D02*
X10417849Y-14222650D01*
X10417849Y-14222650D02*
X10436896Y-14232174D01*
X10436896Y-14232174D02*
X10446420Y-14241698D01*
X10446420Y-14241698D02*
X10455944Y-14260746D01*
X10455944Y-14260746D02*
X10455944Y-14317888D01*
X10455944Y-14317888D02*
X10446420Y-14336936D01*
X10446420Y-14336936D02*
X10436896Y-14346460D01*
X10436896Y-14346460D02*
X10417849Y-14355984D01*
X10417849Y-14355984D02*
X10389277Y-14355984D01*
X10513087Y-14222650D02*
X10589277Y-14222650D01*
X10541658Y-14155984D02*
X10541658Y-14327412D01*
X10541658Y-14327412D02*
X10551182Y-14346460D01*
X10551182Y-14346460D02*
X10570230Y-14355984D01*
X10570230Y-14355984D02*
X10589277Y-14355984D01*
X10808325Y-14222650D02*
X10808325Y-14422650D01*
X10808325Y-14232174D02*
X10827373Y-14222650D01*
X10827373Y-14222650D02*
X10865468Y-14222650D01*
X10865468Y-14222650D02*
X10884515Y-14232174D01*
X10884515Y-14232174D02*
X10894039Y-14241698D01*
X10894039Y-14241698D02*
X10903563Y-14260746D01*
X10903563Y-14260746D02*
X10903563Y-14317888D01*
X10903563Y-14317888D02*
X10894039Y-14336936D01*
X10894039Y-14336936D02*
X10884515Y-14346460D01*
X10884515Y-14346460D02*
X10865468Y-14355984D01*
X10865468Y-14355984D02*
X10827373Y-14355984D01*
X10827373Y-14355984D02*
X10808325Y-14346460D01*
X11017849Y-14355984D02*
X10998801Y-14346460D01*
X10998801Y-14346460D02*
X10989277Y-14327412D01*
X10989277Y-14327412D02*
X10989277Y-14155984D01*
X11179754Y-14355984D02*
X11179754Y-14251222D01*
X11179754Y-14251222D02*
X11170230Y-14232174D01*
X11170230Y-14232174D02*
X11151182Y-14222650D01*
X11151182Y-14222650D02*
X11113087Y-14222650D01*
X11113087Y-14222650D02*
X11094039Y-14232174D01*
X11179754Y-14346460D02*
X11160706Y-14355984D01*
X11160706Y-14355984D02*
X11113087Y-14355984D01*
X11113087Y-14355984D02*
X11094039Y-14346460D01*
X11094039Y-14346460D02*
X11084515Y-14327412D01*
X11084515Y-14327412D02*
X11084515Y-14308365D01*
X11084515Y-14308365D02*
X11094039Y-14289317D01*
X11094039Y-14289317D02*
X11113087Y-14279793D01*
X11113087Y-14279793D02*
X11160706Y-14279793D01*
X11160706Y-14279793D02*
X11179754Y-14270269D01*
X11246420Y-14222650D02*
X11322611Y-14222650D01*
X11274992Y-14155984D02*
X11274992Y-14327412D01*
X11274992Y-14327412D02*
X11284515Y-14346460D01*
X11284515Y-14346460D02*
X11303563Y-14355984D01*
X11303563Y-14355984D02*
X11322611Y-14355984D01*
X11465468Y-14346460D02*
X11446420Y-14355984D01*
X11446420Y-14355984D02*
X11408325Y-14355984D01*
X11408325Y-14355984D02*
X11389277Y-14346460D01*
X11389277Y-14346460D02*
X11379753Y-14327412D01*
X11379753Y-14327412D02*
X11379753Y-14251222D01*
X11379753Y-14251222D02*
X11389277Y-14232174D01*
X11389277Y-14232174D02*
X11408325Y-14222650D01*
X11408325Y-14222650D02*
X11446420Y-14222650D01*
X11446420Y-14222650D02*
X11465468Y-14232174D01*
X11465468Y-14232174D02*
X11474992Y-14251222D01*
X11474992Y-14251222D02*
X11474992Y-14270269D01*
X11474992Y-14270269D02*
X11379753Y-14289317D01*
X11646420Y-14355984D02*
X11646420Y-14155984D01*
X11646420Y-14346460D02*
X11627373Y-14355984D01*
X11627373Y-14355984D02*
X11589277Y-14355984D01*
X11589277Y-14355984D02*
X11570230Y-14346460D01*
X11570230Y-14346460D02*
X11560706Y-14336936D01*
X11560706Y-14336936D02*
X11551182Y-14317888D01*
X11551182Y-14317888D02*
X11551182Y-14260746D01*
X11551182Y-14260746D02*
X11560706Y-14241698D01*
X11560706Y-14241698D02*
X11570230Y-14232174D01*
X11570230Y-14232174D02*
X11589277Y-14222650D01*
X11589277Y-14222650D02*
X11627373Y-14222650D01*
X11627373Y-14222650D02*
X11646420Y-14232174D01*
X11722611Y-14432174D02*
X11732134Y-14422650D01*
X11732134Y-14422650D02*
X11751182Y-14394079D01*
X11751182Y-14394079D02*
X11760706Y-14375031D01*
X11760706Y-14375031D02*
X11770230Y-14346460D01*
X11770230Y-14346460D02*
X11779753Y-14298841D01*
X11779753Y-14298841D02*
X11779753Y-14260746D01*
X11779753Y-14260746D02*
X11770230Y-14213127D01*
X11770230Y-14213127D02*
X11760706Y-14184555D01*
X11760706Y-14184555D02*
X11751182Y-14165508D01*
X11751182Y-14165508D02*
X11732134Y-14136936D01*
X11732134Y-14136936D02*
X11722611Y-14127412D01*
M02*
